<?xml version="1.0" encoding="UTF-8"?>
<svg id="Layer_1" data-name="Layer 1" xmlns="http://www.w3.org/2000/svg" viewBox="0 0 1200 675">
  <defs>
    <style>
      .cls-1, .cls-2, .cls-3, .cls-4, .cls-5 {
        stroke-miterlimit: 10;
      }

      .cls-1, .cls-2, .cls-4, .cls-5 {
        fill: none;
      }

      .cls-1, .cls-6, .cls-3 {
        stroke: #000;
      }

      .cls-7, .cls-8, .cls-9, .cls-10 {
        fill: #4d4d4d;
      }

      .cls-11, .cls-12 {
        fill: #fff;
      }

      .cls-8, .cls-13, .cls-9, .cls-10 {
        font-family: ArialMT, Arial;
      }

      .cls-13 {
        font-size: 21px;
      }

      .cls-9, .cls-14 {
        font-size: 32px;
      }

      .cls-15 {
        letter-spacing: -.02em;
      }

      .cls-16, .cls-10 {
        font-size: 24px;
      }

      .cls-2 {
        stroke: #4d4d4d;
      }

      .cls-6 {
        fill: #999;
        stroke-linecap: round;
        stroke-linejoin: round;
      }

      .cls-17 {
        fill: #ccc;
      }

      .cls-18 {
        fill: #b3b3b3;
      }

      .cls-3 {
        fill: #437355;
        stroke-width: .5px;
      }

      .cls-4 {
        stroke: gray;
      }

      .cls-5 {
        stroke: #b3b3b3;
      }

      .cls-12 {
        font-family: Arial-BoldMT, Arial;
        font-size: 38px;
        font-weight: 700;
        opacity: .95;
      }
    </style>
  </defs>
  <rect class="cls-3" y="1.26" width="1199" height="89.43"/>
  <text class="cls-12" transform="translate(371.92 60.74)"><tspan x="0" y="0">CHIỀU CAO BÀN ĐÁ BẾ</tspan><tspan class="cls-15" x="434.9" y="0">P</tspan></text>
  <g>
    <rect class="cls-11" x="273.12" y="364.86" width="85.18" height="169.47"/>
    <path d="M357.8,365.36v168.47h-84.18v-168.47h84.18M358.8,364.36h-86.18v170.47h86.18v-170.47h0Z"/>
  </g>
  <g>
    <rect class="cls-17" x="282.73" y="535.33" width="75.57" height="21.94"/>
    <path d="M357.8,535.83v20.94h-74.57v-20.94h74.57M358.8,534.83h-76.57v22.94h76.57v-22.94h0Z"/>
  </g>
  <g>
    <rect class="cls-17" x="269.98" y="357.07" width="88.32" height="6.79"/>
    <path d="M357.8,357.57v5.79h-87.32v-5.79h87.32M358.8,356.57h-89.32v7.79h89.32v-7.79h0Z"/>
  </g>
  <g>
    <rect class="cls-11" x="375.93" y="347.3" width="85.18" height="187.03"/>
    <path d="M460.61,347.8v186.03h-84.18v-186.03h84.18M461.61,346.8h-86.18v188.03h86.18v-188.03h0Z"/>
  </g>
  <g>
    <rect class="cls-17" x="385.54" y="535.33" width="75.57" height="21.94"/>
    <path d="M460.61,535.83v20.94h-74.57v-20.94h74.57M461.61,534.83h-76.57v22.94h76.57v-22.94h0Z"/>
  </g>
  <g>
    <rect class="cls-17" x="372.79" y="339.36" width="88.32" height="6.79"/>
    <path d="M460.61,339.86v5.79h-87.32v-5.79h87.32M461.61,338.86h-89.32v7.79h89.32v-7.79h0Z"/>
  </g>
  <g>
    <rect class="cls-11" x="480.02" y="321.37" width="85.18" height="212.96"/>
    <path d="M564.71,321.87v211.96h-84.18v-211.96h84.18M565.71,320.87h-86.18v213.96h86.18v-213.96h0Z"/>
  </g>
  <g>
    <rect class="cls-17" x="489.64" y="535.33" width="75.57" height="21.94"/>
    <path d="M564.71,535.83v20.94h-74.57v-20.94h74.57M565.71,534.83h-76.57v22.94h76.57v-22.94h0Z"/>
  </g>
  <g>
    <rect class="cls-17" x="476.88" y="314.58" width="88.32" height="6.79"/>
    <path d="M564.71,315.08v5.79h-87.32v-5.79h87.32M565.71,314.08h-89.32v7.79h89.32v-7.79h0Z"/>
  </g>
  <line class="cls-5" x1="272.97" y1="557.77" x2="79.75" y2="556.54"/>
  <line class="cls-5" x1="272.97" y1="184.85" x2="79.75" y2="183.62"/>
  <path class="cls-6" d="M195.68,188.26c-6.98-1.97-10.21-1.77-12.94-2.14-2.73-.37-4.95-1.31-8.16-.67-3.2.64-7.38,2.86-9.88,4.65-2.49,1.79-3.3,3.13-4.68,6.03-1.38,2.9-3.34,7.34-4.42,10.11-1.08,2.76-1.28,3.84-1.42,5.36-.14,1.52-.2,3.47-.57,5.63-.37,2.16-1.04,4.51-1.52,5.9-.47,1.38-.74,1.79-.98,2.39-.24.61-.44,1.42-.1,2.53.34,1.11,1.21,2.53,1.55,3.64.34,1.11.13,1.92-.2,2.7-.34.77-.81,1.52-1.21,2.43-.4.91-.74,1.99-.77,3.1-.03,1.11.24,2.26.27,3.2.04.94-.17,1.68-.57,2.36-.4.67-1.01,1.28-1.79,2.36-.77,1.08-1.72,2.63-2.02,4.95-.3,2.33.04,5.42.64,6.87.61,1.45,1.48,1.25,1.11,1.35-.37.1-1.99.5-3.44.44-1.45-.07-2.73-.61-3.61-1.68-.88-1.08-1.35-2.7-1.55-2.73-.2-.03-.13,1.52.71,2.8.84,1.28,2.46,2.29,3.74,2.7,1.28.4,2.22.2,2.26.54.03.34-.84,1.21-1.48,1.95-.64.74-1.04,1.35-1.04,2.19s.41,1.92,1.11,3.03c.71,1.11,1.72,2.26,1.99,2.8.27.54-.2.47-.88,1.21-.67.74-1.55,2.29-1.21,3.81.34,1.52,1.89,3,1.89,4.65s-1.55,3.47-.3,6.2c1.25,2.73,5.29,6.37,6.44,8.86,1.15,2.49-.61,3.84-.98,4.78-.37.94.64,1.48,1.65-.07,1.01-1.55,2.02-5.19,2.63-8.09.61-2.9.81-5.05,1.42-2.9.61,2.15,1.62,8.62,2.66,14.39,1.04,5.76,2.12,10.81,2.66,13.5.54,2.69.54,3.01.58,4.22.04,1.21.12,3.31-.23,4.49-.36,1.18-1.16,1.45-1.41,1.94-.25.49.05,1.21.34,2.17.29.96.57,2.16.4,3.12-.18.97-.81,1.7-1.28,2.66-.47.96-.77,2.14-1.08,3.28-.32,1.14-.65,2.24-1.46,3.34-.81,1.1-2.09,2.2-2.41,3.19-.32.99.33,1.87.43,3.24.1,1.37-.36,3.22-1.46,5.69-1.1,2.46-2.85,5.54-3.21,7.71-.36,2.17.66,3.46.76,4.76.1,1.31-.73,2.64-.98,4.46-.25,1.82.08,4.12.83,6.19.75,2.07,1.92,3.91,2.58,5,.67,1.09.83,1.44.98,1.69.15.26.29.42.39.61.1.19.18.4.32.72.14.32.36.75.62,1.11.26.36.57.65.76.9.19.25.26.46.35.63.09.17.2.29.32.42.12.12.24.24.36.38.12.14.22.3.33.44.11.14.21.26.26.31q.05.06.14.19c.09.13.27.39.44.69.17.3.33.66.63,1.06.3.4.74.85.94,1.27.21.43.18.83.26,1.31.08.48.25,1.04.36,1.48.11.44.15.75.18,1,.06.5.07.76.34,1.92.14.58.34,1.38.63,2.04.29.66.68,1.17,1.08,7.07.41,5.9.83,17.18.81,23.29-.02,6.11-.49,7.05-.59,7.59-.1.53.18.66-.09.79-.28.13-1.11.26-1.03.77.08.51,1.07,1.39,1.09,1.89.01.5-.95.6-1.31.99-.36.39-.12,1.06-.82,1.47-.7.42-2.33.58-2.8,1.14-.47.56.23,1.53-.11,2.2-.34.67-1.7,1.04-2.35,1.69-.64.64-.56,1.55-1.46,2.3-.9.75-2.78,1.34-4.17,2.31-1.4.97-2.31,2.3-3.38,3.38-1.07,1.07-2.31,1.88-2.56,1.84-.25-.04.47-.93.99-1.56.52-.63.85-1,.98-1.29.14-.28.08-.47-.04-.6-.12-.13-.31-.21-.62.12-.31.34-.74,1.09-1.33,1.53-.59.44-1.34.58-2.8,1.7-1.45,1.12-3.61,3.23-5.98,5.72-2.37,2.49-4.94,5.36-9.17,11.5-4.23,6.13-10.11,15.53-13.35,20.23-3.24,4.7-3.84,4.7-4.49,5.32-.64.62-1.33,1.87-2.66,3-1.33,1.14-3.31,2.17-5.24,3.78-1.93,1.61-3.82,3.8-4.81,5.28-.99,1.48-1.07,2.25-1.4,2.32-.32.06-.88-.58-1.76-.19-.88.39-2.08,1.8-2.75,2.57-.66.77-.79.9.58,2.93,1.37,2.03,4.25,5.95,5.73,7.95,1.48,2,1.57,2.09,1.91,1.7.34-.39.94-1.25,1.27-1.63.32-.39.37-.3,1.93,2.49,1.57,2.79,4.66,8.28,6.61,11.39,1.95,3.11,2.77,3.84,3.56,4.46.79.62,1.57,1.14,2.88,1.91,1.31.77,3.15,1.8,5.02,2.49,1.87.69,3.76,1.03,5.11,1.27,1.35.24,2.17.36,3.97.28,1.8-.09,4.59-.38,6.01-.6,1.42-.21,1.46-.34,1.42-.92-.04-.58-.17-1.61-.39-2.12-.21-.52-.52-.52-.56-1.03-.04-.51.17-1.54-.08-2.38-.26-.84-.99-1.48-2.02-1.97-1.03-.49-2.36-.84-3.33-1.18-.97-.34-1.57-.69-1.87-1.18-.3-.49-.3-1.14-.49-1.65-.19-.51-.58-.9-.9-1.35-.32-.45-.58-.97-.58-1.46s.26-.97.15-1.59c-.11-.62-.58-1.39-.9-2.49-.32-1.1-.49-2.51-.58-4.25-.09-1.74-.09-3.8.09-5.49.17-1.69.52-3.02,1.12-4.05.6-1.03,1.46-1.76,1.97-2.79.52-1.03.69-2.36.77-3.17.08-.82.08-1.12.6-1.42.52-.3,1.55-.6,2.73-1.46,1.18-.86,2.51-2.27,3.97-3.95,1.46-1.67,3.05-3.6,7.9-7.98,4.85-4.37,12.96-11.2,17.06-14.63,4.1-3.43,4.19-3.47,3.84-4.44-.35-.97-1.12-2.85-1.57-3.89-.45-1.04-.58-1.23-.06-2.17.52-.93,1.68-2.61,2.28-3.44.6-.84.65-.84,1.2-.82.56.02,1.63.07,2.27-.04.64-.11.86-.37,1.03-.73.17-.37.3-.84.86-1.2.56-.36,1.55-.62,2.66-1.11,1.11-.49,2.36-1.22,3.65-2.21,1.29-.99,2.62-2.23,3.93-3.22,1.31-.99,2.6-1.72,3.6-2.64,1.01-.92,1.74-2.04,2.86-4.89,1.12-2.85,2.62-7.44,3.35-9.65.73-2.21.69-2.04.83-1.48.15.56.49,1.5.54,2.42.04.92-.21,1.82-.47,2.49-.26.66-.52,1.1-.49,1.89.02.79.32,1.95.32,3.09s-.3,2.25-.32,3.17c-.02.92.24,1.65.26,3.93.02,2.27-.19,6.09-.28,8.11-.09,2.02-.04,2.23-.26,2.49-.22.26-.69.56-.77,2.56-.09,2,.22,5.71,2.17,14.64,1.95,8.94,5.56,23.11,7.36,30.17,1.8,7.06,1.8,7.02,1.63,7.47-.17.45-.51,1.39-.54,2.08-.02.69.28,1.12.54,1.74.26.62.47,1.44.6,2.08.13.64.17,1.12.13,1.5-.04.39-.17.69-.47,2.34-.3,1.65-.77,4.65-.97,6.63-.19,1.97-.11,2.92-.22,3.58-.11.66-.41,1.05-.64,1.11-.24.07-.41-.19-.49.92-.09,1.12-.09,3.6.24,4.83.32,1.22.97,1.18,4.1,1.22,3.13.04,8.76.17,11.57.28,2.81.11,2.81.19,2.81-.19s0-1.24.09-1.8c.09-.56.26-.82,1.59-.6,1.33.21,3.82.9,6.29,1.42,2.47.51,4.91.86,8.45.97,3.54.11,8.18-.02,11.03-.28,2.85-.26,3.93-.64,5.39-1.31,1.46-.67,3.31-1.61,4.66-2.57,1.35-.97,2.21-1.95,2.53-2.62.32-.66.11-1.01-1.03-2.04-1.14-1.03-3.2-2.74-5.71-3.32-2.51-.58-5.47-.02-8.28-.49-2.81-.47-5.47-1.97-7.55-3.39-2.08-1.42-3.58-2.75-5.11-4.31-1.52-1.57-3.07-3.37-3.91-4.29-.84-.92-.97-.97-1.03-1.55-.06-.58-.06-1.69-.58-2.64-.51-.94-1.55-1.72-1.63-2.83-.09-1.12.77-2.57.84-4.35.07-1.78-.66-3.88-1.37-12.3-.71-8.41-1.39-23.14-1.93-30.61-.54-7.47-.92-7.69-1.85-7.66-.92.02-2.38.28-3.13.32-.75.04-.79-.13-.91-.26-.12-.13-.31-.22-.27-1.45.05-1.22.33-3.58.01-5.29-.32-1.7-1.25-2.75-.91-4.16.34-1.42,1.94-3.2,2.73-5.22.79-2.01.78-4.26.71-7.17-.07-2.92-.18-6.51-.82-13.46-.64-6.95-1.81-17.26-2.39-22.75-.58-5.49-.58-6.15-.3-7.6.28-1.45.84-3.69,1.27-4.67.43-.97.73-.67.69.34-.04,1.01-.43,2.74-.56,3.64-.13.91,0,.99.34.99s.91-.09,1.49-1.68c.58-1.6,1.19-4.7,1.27-7.68.09-2.98-.35-5.82-1.98-9.71-1.64-3.88-4.49-8.8-6.09-11.39-1.6-2.6-1.94-2.87-2.46-4.24-.52-1.37-1.21-3.83-1.62-6.56-.41-2.74-.54-5.76-.37-7.87.17-2.11.65-3.32.52-4.27-.13-.95-.86-1.64-1.36-3.92-.5-2.29-.76-6.17-.78-9.02-.02-2.85.19-4.66-.02-6.08-.21-1.42-.86-2.46-1.06-4.35-.2-1.89.05-4.63.12-7.59.06-2.95-.07-6.1.23-8.13.3-2.03,1.04-2.94,2.27-4.11,1.23-1.17,2.96-2.59,4.48-4.75,1.51-2.16,2.81-5.06,2.96-8.36.15-3.31-.84-7.02-2.59-9.84-1.75-2.82-4.26-4.73-6.57-7.13-2.31-2.41-4.43-5.3-5.62-6.92-1.19-1.62-1.45-1.97-1.36-2.12.08-.15.52-.11.93-.02.41.09.8.22,1.28-.09.48-.3,1.04-1.04,1.47-2.59.43-1.56.74-3.93,0-5.42-.73-1.49-2.51-2.1-3.83-3.29-1.32-1.19-2.18-2.96-2.7-4.95-.52-1.99-.69-4.19-1.21-5.34s-1.38-1.23-1.64-2.1c-.26-.86.09-2.51.02-3.75-.06-1.24-.54-2.09-.39-3.22.15-1.14.93-2.56,2.42-3.52,1.49-.95,3.68-1.43,5.35-1.8,1.67-.37,2.82-.65,3.6-1.45.78-.81,1.2-2.15,1-3.11-.2-.97-1.02-1.56-1.59-1.91-.57-.36-.88-.49-.39-1.05.49-.57,1.78-1.58,2.12-2.14.34-.56-.28-.67-.76-.87-.48-.2-.81-.49-.93-.86-.11-.37,0-.82.04-1.09.05-.27.05-.35.23-.42.18-.07.53-.11.62-.38.1-.27-.06-.75-.28-.96-.22-.21-.5-.16-.68-.55-.18-.39-.26-1.24.3-1.57.57-.34,1.78-.17,2.61-.42.83-.25,1.28-.91,1.2-1.52-.08-.61-.69-1.16-1.47-1.79-.78-.63-1.72-1.33-2.49-2.1-.77-.76-1.35-1.58-1.84-2.14-.49-.56-.88-.86-.94-1.75-.06-.89.19-2.36.16-4.32-.04-1.97-.37-4.43-.74-6.21-.36-1.78-.74-2.87-1.63-3.89-.89-1.02-2.28-1.97-2.28-1.97Z"/>
  <g>
    <line class="cls-1" x1="49.55" y1="184.73" x2="49.55" y2="557.27"/>
    <rect x="46.3" y="184.23" width="6.5" height="1"/>
    <rect x="46.3" y="556.77" width="6.5" height="1"/>
  </g>
  <text class="cls-13" transform="translate(55.82 336.98)"><tspan x="0" y="0">Chiều cao </tspan><tspan x="17.63" y="25.2">cơ thể</tspan></text>
  <g>
    <line class="cls-5" x1="317.14" y1="357.56" x2="317.14" y2="555.88"/>
    <rect class="cls-18" x="313.89" y="357.06" width="6.5" height="1"/>
    <rect class="cls-18" x="313.89" y="555.38" width="6.5" height="1"/>
  </g>
  <text class="cls-13" transform="translate(325.24 443.82)"><tspan x="0" y="0">80 </tspan><tspan x="-2.32" y="25.2">cm</tspan></text>
  <g>
    <line class="cls-5" x1="410.67" y1="339.36" x2="410.67" y2="555.88"/>
    <rect class="cls-18" x="407.42" y="338.86" width="6.5" height="1"/>
    <rect class="cls-18" x="407.42" y="555.38" width="6.5" height="1"/>
  </g>
  <text class="cls-13" transform="translate(421.77 435.04)"><tspan x="0" y="0">85 </tspan><tspan x="-2.32" y="25.2">cm</tspan></text>
  <g>
    <line class="cls-5" x1="524.67" y1="314.58" x2="524.67" y2="555.88"/>
    <rect class="cls-18" x="521.42" y="314.08" width="6.5" height="1"/>
    <rect class="cls-18" x="521.42" y="555.38" width="6.5" height="1"/>
  </g>
  <text class="cls-13" transform="translate(532.77 417.6)"><tspan x="0" y="0">90 </tspan><tspan x="-2.32" y="25.2">cm</tspan></text>
  <text class="cls-9" transform="translate(718.72 196.62)"><tspan x="0" y="0">Công thức tính</tspan></text>
  <text class="cls-8" transform="translate(708.35 301.82)"><tspan class="cls-16"><tspan x="0" y="0">Chiều cao </tspan></tspan><tspan class="cls-16" x="17.33" y="38.4">bàn đá </tspan><tspan class="cls-14" x="97.41" y="38.4"> </tspan></text>
  <text class="cls-9" transform="translate(841.16 328.52)"><tspan x="0" y="0">=</tspan></text>
  <text class="cls-10" transform="translate(919.65 275.3)"><tspan x="0" y="0">Chiều cao </tspan><tspan x="20.15" y="28.8" xml:space="preserve">cơ thể  </tspan></text>
  <line class="cls-4" x1="1044.09" y1="316.45" x2="893.7" y2="316.45"/>
  <text class="cls-10" transform="translate(967.62 350.83)"><tspan x="0" y="0">2</tspan></text>
  <g>
    <path class="cls-7" d="M1069.73,321.24v-4.71h-4.68v-1.97h4.68v-4.68h1.99v4.68h4.68v1.97h-4.68v4.71h-1.99Z"/>
    <path class="cls-7" d="M1082.71,319.52l2.21-.19c.16,1.08.54,1.89,1.14,2.43s1.32.81,2.16.81c1.02,0,1.88-.38,2.58-1.15s1.05-1.78,1.05-3.05-.34-2.15-1.01-2.85-1.56-1.04-2.65-1.04c-.68,0-1.29.15-1.84.46s-.98.71-1.29,1.2l-1.98-.26,1.66-8.82h8.54v2.02h-6.86l-.93,4.62c1.03-.72,2.11-1.08,3.25-1.08,1.5,0,2.77.52,3.8,1.56s1.55,2.38,1.55,4.01-.45,2.9-1.36,4.03c-1.1,1.39-2.61,2.09-4.51,2.09-1.56,0-2.84-.44-3.83-1.31s-1.55-2.04-1.69-3.48Z"/>
    <path class="cls-7" d="M1104.77,319.46l2.07.27c-.23,1.43-.81,2.55-1.74,3.36s-2.08,1.21-3.44,1.21c-1.7,0-3.07-.56-4.11-1.67s-1.55-2.71-1.55-4.79c0-1.34.22-2.52.67-3.53s1.12-1.76,2.03-2.27,1.9-.76,2.97-.76c1.35,0,2.46.34,3.32,1.03s1.41,1.65,1.65,2.91l-2.05.32c-.2-.84-.54-1.46-1.04-1.89s-1.1-.63-1.8-.63c-1.06,0-1.93.38-2.59,1.14s-1,1.97-1,3.62.32,2.89.96,3.64,1.48,1.14,2.51,1.14c.83,0,1.52-.25,2.07-.76s.91-1.29,1.05-2.34Z"/>
    <path class="cls-7" d="M1108.64,324.02v-12.45h1.89v1.75c.39-.61.91-1.1,1.56-1.47s1.39-.56,2.21-.56c.92,0,1.68.19,2.27.57s1.01.92,1.25,1.61c.98-1.45,2.27-2.18,3.84-2.18,1.23,0,2.18.34,2.85,1.03s1,1.74,1,3.16v8.54h-2.1v-7.84c0-.84-.07-1.45-.21-1.82s-.38-.67-.74-.9-.78-.34-1.27-.34c-.88,0-1.6.29-2.18.87s-.87,1.51-.87,2.79v7.23h-2.11v-8.09c0-.94-.17-1.64-.52-2.11s-.91-.7-1.69-.7c-.59,0-1.14.16-1.65.47s-.87.77-1.1,1.37-.34,1.47-.34,2.6v6.46h-2.11Z"/>
  </g>
  <rect class="cls-2" x="679.93" y="228.55" width="474.93" height="145.35"/>
  <text class="cls-9" transform="translate(725.03 453.89)"><tspan x="0" y="0">Ví dụ</tspan></text>
  <rect class="cls-7" x="678.11" y="172.98" width="24.39" height="24.39"/>
  <rect class="cls-7" x="678.11" y="430.24" width="24.39" height="24.39"/>
  <text class="cls-10" transform="translate(675.19 500.05)"><tspan x="0" y="0">Cao 150cm: bàn đá cao 150/2 + 5 = 80 cm</tspan><tspan x="0" y="36">Cao 160cm: bàn đá cao 160/2 + 5 = 85 cm</tspan><tspan x="0" y="72">Cao 170cm: bàn đá cao 170/2 + 5 = 90 cm</tspan></text>
</svg>