<?xml version="1.0" encoding="UTF-8"?>
<svg xmlns="http://www.w3.org/2000/svg" xmlns:xlink="http://www.w3.org/1999/xlink" viewBox="0 0 1920 1080">
  <defs>
    <style>
      .cls-1, .cls-2 {
        fill: none;
      }

      .cls-1, .cls-2, .cls-3 {
        stroke: #000;
      }

      .cls-1, .cls-2, .cls-3, .cls-4 {
        stroke-miterlimit: 10;
      }

      .cls-1, .cls-3, .cls-4 {
        stroke-width: .5px;
      }

      .cls-5 {
        letter-spacing: -.04em;
      }

      .cls-5, .cls-6, .cls-7, .cls-8, .cls-9, .cls-10 {
        font-family: Arial-BoldMT, Arial;
        font-weight: 700;
      }

      .cls-5, .cls-7, .cls-8 {
        font-size: 30px;
      }

      .cls-11, .cls-12 {
        mix-blend-mode: multiply;
      }

      .cls-11, .cls-12, .cls-13, .cls-14 {
        fill: #e6e6e6;
      }

      .cls-15 {
        font-size: 36px;
      }

      .cls-15, .cls-16 {
        fill: #fff;
      }

      .cls-15, .cls-17, .cls-18, .cls-19, .cls-20 {
        font-family: ArialMT, Arial;
      }

      .cls-15, .cls-19 {
        opacity: .95;
      }

      .cls-6, .cls-21 {
        letter-spacing: -.04em;
      }

      .cls-6, .cls-18, .cls-19, .cls-9, .cls-10 {
        font-size: 26.75px;
      }

      .cls-7, .cls-22 {
        letter-spacing: -.02em;
      }

      .cls-17 {
        font-size: 18px;
      }

      .cls-17, .cls-23 {
        fill: gray;
      }

      .cls-24 {
        isolation: isolate;
      }

      .cls-12 {
        opacity: .5;
      }

      .cls-20 {
        font-size: 27.27px;
      }

      .cls-25 {
        fill: #ccc;
      }

      .cls-3 {
        fill: #437355;
      }

      .cls-26, .cls-9 {
        letter-spacing: -.02em;
      }

      .cls-13 {
        mix-blend-mode: screen;
      }

      .cls-4 {
        fill: #4d4d4d;
        stroke: #4d4d4d;
      }
    </style>
  </defs>
  <g class="cls-24">
    <g id="Layer_1" data-name="Layer 1">
      <g>
        <g>
          <path class="cls-14" d="M405.17,980.61s-2.41-1.43-5.98-2.44c-3.82-1.08-31.95-15.83-35.82-16.96-1.33-.39-.42-12.72-.42-18.8h-20.41c.7,4.61,1.74,16.81,1.74,19.7,0,10.88-3.62,15.56-1.41,20.2,2.18,4.59,5.63,5.08,9.49,4.87,5.08-.28,11.65-1.81,17.05-.82,5.4,1,15.76,2.75,21.01,1.69l4.35-1.15s6.63,1.65,10.89,1c0,0,3.75-.65,3.86-2.23.11-1.58-.29-3.99-4.36-5.06Z"/>
          <path class="cls-12" d="M361.08,942.41c.06.85.08,1.71.08,2.55.01,2.85-.25,5.68-.33,8.52-.08,2.87-.02,5.74.07,8.61,0,.25.02.51.02.76,0,.17.33.16.43.18.33.06.66.13.99.21.66.16,1.31.35,1.96.58,1.31.46,2.59,1.02,3.84,1.64,2.57,1.28,5.02,2.8,7.59,4.08,2.86,1.43,5.77,2.77,8.75,3.92,2.65,1.02,5.37,1.85,8.07,2.74,1.58.52,3.23,1.05,4.9,1.3-7.28-3.13-30.59-15.27-34.08-16.29-1.33-.39-.42-12.72-.42-18.8h-1.87Z"/>
          <path class="cls-12" d="M405.17,980.61s-2.41-1.43-5.98-2.44c-.26-.07-.62-.21-1.08-.4.61.57,1.32,1.07,1.8,1.68.05.07.02.19-.07.18-.85-.06-1.64-.29-2.4-.69.62.77,1.35,1.31,2.28,1.65.5.18,1.02.25,1.53.39.11.03.33.05.4.18.09.19.03.45.03.66,0,.43-.03.92.1,1.34.16.51.57.9,1.06,1.02.12.03.24.06.34.09,1.44.07,2.87.19,4.22.56.08.02.1.16.02.2-2.21,1.05-4.43,1.67-6.85,1.25-1.45-.25-2.83-.7-4.25-1.1-1.4-.4-2.81-.71-4.25-.44-1.36.26-2.68.74-4.05.95-1.3.2-2.63.2-3.94.09-2.78-.24-5.49-.9-8.22-1.48-1.34-.28-2.69-.57-4.05-.67-1.32-.1-2.65-.05-3.96.09-2.78.29-5.51.93-8.26,1.38-2.61.43-5.25.72-7.88.35-2-.28-4.27-.94-5.74-2.54-2.5-2.72-2.06-7.05-1.53-10.5.32-2.09.76-4.16,1.09-6.25.15-.97.28-1.95.33-2.93.05-1.12-.05-2.24-.13-3.36-.43-5.86-1.07-11.79-2.58-17.46h-.59c.7,4.61,1.74,16.81,1.74,19.7,0,10.88-3.62,15.56-1.41,20.2,2.18,4.59,5.63,5.08,9.49,4.87,5.08-.28,11.65-1.81,17.05-.82,5.4,1,15.76,2.75,21.01,1.69l4.35-1.15s6.63,1.65,10.89,1c0,0,3.75-.65,3.86-2.23.11-1.58-.29-3.99-4.36-5.06Z"/>
          <path class="cls-14" d="M407.8,981.78c-.63-.48-1.32-.76-2.04-.95.04-.05-1.91-1.35-3-1.65-1.48-.42-4.51-1.36-4.48-1.34,1.11.88,2.35,1.24,3.66,1.6.84.23,1.6.5,2.39.89.21.1.42.23.65.34-.74-.12-1.49-.16-2.23-.22-.96-.07-1.95-.16-2.89-.37-.92-.21-1.98-.75-2.85-1.14-.04-.02-.11.08-.08.1,1.47,1.11,2.94,1.56,4.71,1.66,2.14.13,4.14.02,6.09,1.18.04.02.11-.08.08-.1Z"/>
          <g>
            <path class="cls-11" d="M405.04,980.68c-.2.4-1.23.1-1.6,0-.35-.1-.7-.22-.85-.51-.1-.21-.09-.43-.04-.64-.02-.04-.04-.09-.05-.13-.19.3-.25.57-.13.91.15.42.83.49,1.28.56.41.07.84.18,1.25.19.18,0,.23-.48.23-.58,0-.03-.09.17-.09.18Z"/>
            <g>
              <path class="cls-14" d="M402.52,980.28s-.2-.74.06-.81c.26-.08,1.73.09,2.57.59,0,0,.03.84-.18.9-.21.06-2.17-.33-2.17-.33,0,0-.24-.15-.28-.34Z"/>
              <path class="cls-11" d="M403.83,980.68c-.35-.06-.88-.09-1.12-.35-.2-.21-.33-.67-.11-.87,0,0-.02,0-.02,0-.26.08-.06.81-.06.81.04.19.28.34.28.34,0,0,1.96.39,2.17.33.04-.01.07-.06.1-.12-.41-.04-.83-.08-1.24-.15Z"/>
              <path class="cls-13" d="M405.15,980.05c-.08-.04-.16-.09-.24-.13.08.34.05.71-.1,1.03.08,0,.13,0,.16,0,.21-.06.18-.9.18-.9Z"/>
            </g>
            <path class="cls-13" d="M402.65,979.49s1.56.05,2.43.59c0,0-.92-.37-2.43-.59Z"/>
          </g>
          <g>
            <path class="cls-11" d="M407.54,983.43c-.32,1.11-2.38.57-3.11.38-.69-.18-1.4-.42-1.72-1.16-.23-.53-.24-1.13-.18-1.7-.04-.11-.08-.22-.12-.34-.32.84-.41,1.59-.12,2.48.35,1.1,1.68,1.12,2.57,1.21.8.08,1.66.29,2.46.22.34-.03.39-1.34.37-1.6,0-.08-.14.49-.15.51Z"/>
            <g>
              <path class="cls-14" d="M402.58,982.95s-.5-1.93,0-2.2c.5-.27,3.37-.16,5.08.97,0,0,.17,2.25-.22,2.46-.4.21-4.26-.38-4.26-.38,0,0-.49-.36-.59-.86Z"/>
              <path class="cls-11" d="M405.18,983.72c-.68-.09-1.73-.04-2.22-.67-.41-.53-.75-1.71-.34-2.31-.02,0-.03.01-.04.02-.5.27,0,2.2,0,2.2.11.5.59.86.59.86,0,0,3.86.59,4.26.38.08-.04.14-.17.18-.34-.81,0-1.62-.02-2.43-.12Z"/>
              <path class="cls-13" d="M407.66,981.72c-.15-.1-.32-.19-.49-.28.21.88.2,1.9-.04,2.79.15,0,.25-.02.31-.05.4-.21.22-2.46.22-2.46Z"/>
            </g>
            <path class="cls-13" d="M402.72,980.81s3.04-.23,4.81,1c0,0-1.83-.77-4.81-1Z"/>
          </g>
        </g>
        <path class="cls-14" d="M345.13,972.73c-.52,2.29-.65,5.24.21,7.55-.17-1.38-.08-2.78.17-4.15.07-.35.14-.69.23-1.04.01-.09.02-.18.03-.27.3-2.17,1.55-3.92,2.18-5.96.11-.36.22-.73.33-1.1.25-1.4.2-2.84.09-4.25-.11-1.45-.24-2.9-.37-4.35-.45-5.18-.93-10.46-2.54-15.42-.06,0-.12,0-.18,0-.84,0-.66,1.03-.45,1.72.31,2.7.81,5.38,1.13,8.07.38,3.2,1,6.34.95,9.58-.05,3.23-1.07,6.48-1.78,9.61Z"/>
        <path class="cls-14" d="M363.65,983.87s7.05-2.02,11.43-.41c4.38,1.61,9.97,2.51,14.42,1.61,0,0-6.85.29-11.03-1.2-4.19-1.49-8.45-2.81-14.82,0Z"/>
      </g>
      <g>
        <rect class="cls-25" x="550.31" y="137.41" width="133.75" height="272.27"/>
        <path d="M683.56,137.91v271.27h-132.75V137.91h132.75M684.56,136.91h-134.75v273.27h134.75V136.91h0Z"/>
      </g>
      <g>
        <rect class="cls-25" x="679.46" y="410.67" width="4.6" height="276.44"/>
        <path d="M683.56,411.17v275.44h-3.6v-275.44h3.6M684.56,410.17h-5.6v277.44h5.6v-277.44h0Z"/>
      </g>
      <g>
        <rect class="cls-16" x="394.9" y="695.1" width="289.16" height="260.79"/>
        <path d="M683.56,695.6v259.79h-288.16v-259.79h288.16M684.56,694.6h-290.16v261.79h290.16v-261.79h0Z"/>
      </g>
      <g>
        <rect class="cls-25" x="410.8" y="956.89" width="273.26" height="34.23"/>
        <path d="M683.56,957.39v33.24h-272.26v-33.24h272.26M684.56,956.39h-274.26v35.24h274.26v-35.24h0Z"/>
      </g>
      <g>
        <rect class="cls-25" x="389.71" y="685.9" width="294.35" height="8.2"/>
        <path d="M683.56,686.4v7.2h-293.35v-7.2h293.35M684.56,685.4h-295.35v9.2h295.35v-9.2h0Z"/>
      </g>
      <g>
        <rect class="cls-23" x="685.06" y="92.4" width="38.02" height="898.73"/>
        <path d="M722.58,92.9v897.73h-37.02V92.9h37.02M723.58,91.9h-39.02v899.73h39.02V91.9h0Z"/>
      </g>
      <line class="cls-2" x1="684.56" y1="91.9" x2="70.51" y2="90.56"/>
      <line class="cls-2" x1="410.3" y1="991.63" x2="68.2" y2="991.45"/>
      <g>
        <line class="cls-2" x1="684.06" y1="52.99" x2="550.31" y2="52.99"/>
        <rect x="683.56" y="49.74" width="1" height="6.5"/>
        <rect x="549.81" y="49.74" width="1" height="6.5"/>
      </g>
      <text class="cls-10" transform="translate(610.26 43.09)"><tspan x="0" y="0">F</tspan></text>
      <g>
        <line class="cls-2" x1="678.46" y1="648.22" x2="389.71" y2="648.22"/>
        <rect x="677.96" y="644.97" width="1" height="6.5"/>
        <rect x="389.21" y="644.97" width="1" height="6.5"/>
      </g>
      <text class="cls-10" transform="translate(529.96 638.32)"><tspan x="0" y="0">E</tspan></text>
      <g>
        <line class="cls-2" x1="365.85" y1="685.9" x2="365.85" y2="696.31"/>
        <rect x="362.6" y="685.4" width="6.5" height="1"/>
        <rect x="362.6" y="695.81" width="6.5" height="1"/>
      </g>
      <text class="cls-10" transform="translate(358.57 680.62)"><tspan x="0" y="0">K</tspan></text>
      <g>
        <line class="cls-2" x1="334.26" y1="956.89" x2="334.26" y2="991.13"/>
        <rect x="331.01" y="956.39" width="6.5" height="1"/>
        <rect x="331.01" y="990.63" width="6.5" height="1"/>
      </g>
      <text class="cls-10" transform="translate(311.79 982.78)"><tspan x="0" y="0">B</tspan></text>
      <g>
        <line class="cls-2" x1="297.61" y1="685.9" x2="297.61" y2="990.91"/>
        <rect x="294.36" y="685.4" width="6.5" height="1"/>
        <rect x="294.36" y="990.41" width="6.5" height="1"/>
      </g>
      <text class="cls-6" transform="translate(261.5 843.46)"><tspan x="0" y="0">A</tspan></text>
      <g>
        <line class="cls-2" x1="233.87" y1="410.67" x2="233.87" y2="990.91"/>
        <rect x="230.62" y="410.17" width="6.5" height="1"/>
        <rect x="230.62" y="990.41" width="6.5" height="1"/>
      </g>
      <text class="cls-10" transform="translate(196.92 695.49)"><tspan x="0" y="0">C</tspan></text>
      <g>
        <line class="cls-2" x1="171.73" y1="92.03" x2="171.73" y2="990.3"/>
        <rect x="168.48" y="91.53" width="6.5" height="1"/>
        <rect x="168.48" y="989.8" width="6.5" height="1"/>
      </g>
      <text class="cls-10" transform="translate(127.58 522.93)"><tspan x="0" y="0">D</tspan></text>
      <text class="cls-19" transform="translate(576.02 278.17)"><tspan x="0" y="0">Tủ trên</tspan></text>
      <text class="cls-19" transform="translate(495.6 833.78)"><tspan x="0" y="0">Tủ dưới</tspan></text>
      <text class="cls-19" transform="translate(503.79 983.4)"><tspan x="0" y="0">Chân tủ</tspan></text>
      <text class="cls-19" transform="translate(570.98 531.86)"><tspan x="0" y="0">Ốp bếp</tspan></text>
      <text class="cls-18" transform="translate(65.5 72.16)"><tspan class="cls-21" x="0" y="0">T</tspan><tspan x="15.35" y="0">rần</tspan></text>
      <text class="cls-18" transform="translate(64.32 1029.71)"><tspan x="0" y="0">Sàn</tspan></text>
      <text class="cls-19" transform="translate(495.72 678.82)"><tspan x="0" y="0">Bàn bếp</tspan></text>
      <line class="cls-1" x1="792.75" y1="990.8" x2="1842.78" y2="990.8"/>
      <line class="cls-1" x1="792.75" y1="152.72" x2="1842.78" y2="152.72"/>
      <line class="cls-1" x1="792.75" y1="152.72" x2="792.75" y2="990.8"/>
      <line class="cls-1" x1="1842.78" y1="152.72" x2="1842.78" y2="990.8"/>
      <line class="cls-1" x1="792.75" y1="228.91" x2="1842.78" y2="228.91"/>
      <line class="cls-1" x1="792.75" y1="305.1" x2="1842.78" y2="305.1"/>
      <line class="cls-1" x1="792.75" y1="381.29" x2="1842.78" y2="381.29"/>
      <line class="cls-1" x1="792.75" y1="457.48" x2="1842.78" y2="457.48"/>
      <line class="cls-1" x1="792.75" y1="533.67" x2="1842.78" y2="533.67"/>
      <line class="cls-1" x1="792.75" y1="686.04" x2="1842.78" y2="686.04"/>
      <line class="cls-1" x1="792.75" y1="762.23" x2="1842.78" y2="762.23"/>
      <line class="cls-1" x1="795.92" y1="609.85" x2="1845.96" y2="609.85"/>
      <line class="cls-1" x1="792.75" y1="838.42" x2="1842.78" y2="838.42"/>
      <line class="cls-1" x1="792.75" y1="914.61" x2="1842.78" y2="914.61"/>
      <line class="cls-1" x1="916.62" y1="152.72" x2="916.62" y2="914.61"/>
      <line class="cls-1" x1="1379.7" y1="152.72" x2="1379.7" y2="914.61"/>
      <text class="cls-19" transform="translate(821.2 200.13)"><tspan x="0" y="0">KÍ</tspan><tspan class="cls-26" x="25.27" y="0"> </tspan><tspan x="32.22" y="0">TỰ</tspan></text>
      <text class="cls-19" transform="translate(1009.34 200.13)"><tspan x="0" y="0">LOẠI KÍCH</tspan><tspan class="cls-26" x="132.29" y="0"> </tspan><tspan x="139.24" y="0">THƯỚC</tspan></text>
      <text class="cls-19" transform="translate(1454.7 200.13)"><tspan x="0" y="0">KÍCH</tspan><tspan class="cls-26" x="63.91" y="0"> </tspan><tspan x="70.85" y="0">THƯỚC CHUẨN (mm)</tspan></text>
      <image width="1230" height="371" transform="translate(202.64 216.44) scale(.23)" xlink:href="../Logo Kurashi/lOGO-01.png"/>
      <rect class="cls-3" x="795.92" y="33.32" width="1047.31" height="90.26"/>
      <text class="cls-15" transform="translate(978.59 92.29)"><tspan x="0" y="0">KÍCH</tspan><tspan class="cls-22" x="86.01" y="0"> </tspan><tspan x="95.36" y="0">THƯỚC</tspan><tspan class="cls-22" x="230.96" y="0"> </tspan><tspan x="240.31" y="0">TỦ BẾ</tspan><tspan class="cls-22" x="346.32" y="0">P </tspan><tspan x="379.04" y="0">THEO CHUẨN NHẬ</tspan><tspan class="cls-22" x="703.05" y="0">T</tspan></text>
      <line class="cls-4" x1="387.85" y1="734.39" x2="387.85" y2="1008.07"/>
      <line class="cls-4" x1="410.3" y1="978.24" x2="410.3" y2="1008.07"/>
      <g>
        <line class="cls-2" x1="409.8" y1="1014.63" x2="388.09" y2="1014.63"/>
        <rect x="409.3" y="1011.38" width="1" height="6.5"/>
        <rect x="387.59" y="1011.38" width="1" height="6.5"/>
      </g>
      <text class="cls-9" transform="translate(394.45 1045.29)"><tspan x="0" y="0">L</tspan></text>
      <text class="cls-5" transform="translate(840.99 280.49)"><tspan x="0" y="0">A</tspan></text>
      <text class="cls-8" transform="translate(838.89 358.53)"><tspan x="0" y="0">B</tspan></text>
      <text class="cls-8" transform="translate(841.07 431.65)"><tspan x="0" y="0">C</tspan></text>
      <text class="cls-8" transform="translate(838.04 504.78)"><tspan x="0" y="0">D</tspan></text>
      <text class="cls-8" transform="translate(838.89 583.97)"><tspan x="0" y="0">E</tspan></text>
      <text class="cls-8" transform="translate(838.04 659.71)"><tspan x="0" y="0">F</tspan></text>
      <text class="cls-8" transform="translate(838.89 735.45)"><tspan x="0" y="0">J</tspan></text>
      <text class="cls-8" transform="translate(838.04 811.19)"><tspan x="0" y="0">K</tspan></text>
      <text class="cls-7" transform="translate(838.89 889.59)"><tspan x="0" y="0">L</tspan></text>
      <text class="cls-20" transform="translate(837.34 962.72) scale(1.1 1)"><tspan x="0" y="0">n là tự nhiên</tspan></text>
      <text class="cls-19" transform="translate(952.37 278.54)"><tspan x="0" y="0">Chiều cao bàn bếp</tspan></text>
      <text class="cls-19" transform="translate(1432.87 278.54)"><tspan x="0" y="0">800, 850, 900, 950</tspan></text>
      <text class="cls-19" transform="translate(1432.87 349.42)"><tspan x="0" y="0">50, 100, 150, 200</tspan></text>
      <text class="cls-19" transform="translate(952.37 351.28)"><tspan x="0" y="0">Chiều cao chân tủ</tspan></text>
      <text class="cls-19" transform="translate(952.37 428.67)"><tspan x="0" y="0">Chiều cao từ sàn đến đáy tủ trên</tspan></text>
      <text class="cls-19" transform="translate(1432.87 428.67)"><tspan x="0" y="0">50 x n, tối thiểu 1300</tspan></text>
      <text class="cls-19" transform="translate(952.37 506.06)"><tspan x="0" y="0">Chiều cao từ sàn đến đỉnh tủ trên</tspan></text>
      <text class="cls-19" transform="translate(1432.87 500.26)"><tspan x="0" y="0">50 x n, tối thiểu 1900</tspan></text>
      <text class="cls-19" transform="translate(946.16 579.84)"><tspan x="0" y="0">Chiều sâu bàn bếp</tspan></text>
      <text class="cls-19" transform="translate(1432.87 579.84)"><tspan x="0" y="0">600, 650</tspan></text>
      <text class="cls-17" transform="translate(1515.42 1041.43) scale(1.1 1)"><tspan x="0" y="0">Áp dụng cho bếp chữ I, chữ L, chữ U</tspan></text>
      <text class="cls-19" transform="translate(952.37 653.93)"><tspan x="0" y="0">Chiều sâu tủ trên</tspan></text>
      <text class="cls-19" transform="translate(1432.87 653.93)"><tspan x="0" y="0">Dưới 400</tspan></text>
      <text class="cls-19" transform="translate(946.16 812.32)"><tspan x="0" y="0">Độ dày bàn bếp</tspan></text>
      <text class="cls-19" transform="translate(1437.94 812.32)"><tspan x="0" y="0">Dưới 40</tspan></text>
      <text class="cls-19" transform="translate(943.36 879.31)"><tspan x="0" y="0">Chiều sâu chân tủ</tspan></text>
      <text class="cls-19" transform="translate(1440.64 887.4)"><tspan class="cls-21" x="0" y="0">T</tspan><tspan x="15.35" y="0">rên 50</tspan></text>
      <text class="cls-8" transform="translate(263.67 548.72)"><tspan x="0" y="0">J</tspan></text>
      <g>
        <line class="cls-2" x1="297.61" y1="410.67" x2="297.61" y2="684.37"/>
        <rect x="294.36" y="410.17" width="6.5" height="1"/>
        <rect x="294.36" y="683.87" width="6.5" height="1"/>
      </g>
      <text class="cls-19" transform="translate(946.18 729.58)"><tspan x="0" y="0">Chiều cao tấm ốp bếp</tspan></text>
      <text class="cls-19" transform="translate(1437.94 732.22)"><tspan x="0" y="0">770, 800, 900</tspan></text>
    </g>
  </g>
</svg>