<?xml version="1.0" encoding="UTF-8"?>
<svg id="Layer_1" data-name="Layer 1" xmlns="http://www.w3.org/2000/svg" xmlns:xlink="http://www.w3.org/1999/xlink" viewBox="0 0 1200 675">
  <defs>
    <style>
      .cls-1, .cls-2, .cls-3, .cls-4 {
        stroke-miterlimit: 10;
      }

      .cls-1, .cls-2, .cls-4 {
        fill: none;
      }

      .cls-1, .cls-3, .cls-4 {
        stroke: #000;
      }

      .cls-5, .cls-6 {
        fill: #4d4d4d;
      }

      .cls-7 {
        letter-spacing: -.02em;
      }

      .cls-2 {
        stroke: #212830;
      }

      .cls-2, .cls-3, .cls-4 {
        stroke-width: .5px;
      }

      .cls-2, .cls-4 {
        stroke-linecap: square;
      }

      .cls-8 {
        fill: #999;
      }

      .cls-9 {
        font-size: 30px;
      }

      .cls-9, .cls-6, .cls-10 {
        font-family: Arial-BoldMT, Arial;
        font-weight: 700;
      }

      .cls-3 {
        fill: #437355;
      }

      .cls-6 {
        font-size: 24px;
      }

      .cls-10 {
        fill: #fff;
        font-size: 38px;
        opacity: .95;
      }
    </style>
  </defs>
  <rect class="cls-3" y="1.26" width="1199" height="89.43"/>
  <text class="cls-10" transform="translate(262.19 60.73)"><tspan x="0" y="0">KÍCH THƯỚC BẾ</tspan><tspan class="cls-7" x="308.82" y="0">P</tspan><tspan x="333.48" y="0" xml:space="preserve"> ĐẢO VÀ BÁN ĐẢO</tspan></text>
  <rect class="cls-8" x="78.39" y="273.63" width="497.37" height="231.45"/>
  <g>
    <line class="cls-1" x1="575.99" y1="224.2" x2="78.16" y2="224.2"/>
    <rect x="575.49" y="220.95" width="1" height="6.5"/>
    <rect x="77.66" y="220.95" width="1" height="6.5"/>
  </g>
  <text class="cls-9" transform="translate(313.35 209.87)"><tspan class="cls-7" x="0" y="0">L</tspan><tspan x="17.78" y="0"> </tspan></text>
  <g>
    <line class="cls-1" x1="633.8" y1="275.13" x2="633.8" y2="504.53"/>
    <rect x="630.55" y="274.63" width="6.5" height="1"/>
    <rect x="630.55" y="504.03" width="6.5" height="1"/>
  </g>
  <g>
    <line class="cls-4" x1="539.82" y1="378.55" x2="375.85" y2="378.55"/>
    <line class="cls-4" x1="375.85" y1="468.89" x2="539.82" y2="468.89"/>
    <line class="cls-4" x1="482.17" y1="392.08" x2="448.72" y2="392.08"/>
    <polyline class="cls-4" points="448.72 392.08 448.01 392.11 447.3 392.2 446.61 392.32 445.9 392.53 445.25 392.76 444.6 393.05 443.97 393.41 443.38 393.82 442.81 394.26 442.31 394.73 441.81 395.26 441.36 395.82 440.97 396.41 440.62 397.03 440.32 397.67 440.08 398.32 439.88 399 439.76 399.7 439.67 400.41 439.64 401.12"/>
    <line class="cls-4" x1="439.61" y1="401.12" x2="439.61" y2="450.83"/>
    <polyline class="cls-4" points="439.64 450.83 439.67 451.54 439.76 452.24 439.88 452.95 440.08 453.63 440.32 454.27 440.62 454.92 440.97 455.54 441.36 456.13 441.81 456.68 442.31 457.21 442.81 457.68 443.38 458.13 443.97 458.54 444.6 458.89 445.25 459.19 445.9 459.42 446.61 459.63 447.3 459.74 448.01 459.83 448.72 459.86"/>
    <line class="cls-4" x1="448.72" y1="459.86" x2="521.62" y2="459.86"/>
    <polyline class="cls-4" points="521.62 459.86 522.33 459.83 523.05 459.74 523.73 459.63 524.44 459.42 525.09 459.19 525.75 458.89 526.37 458.54 526.96 458.13 527.53 457.68 528.03 457.21 528.54 456.68 528.98 456.13 529.37 455.54 529.72 454.92 530.02 454.27 530.26 453.63 530.47 452.95 530.58 452.24 530.67 451.54 530.7 450.83"/>
    <line class="cls-4" x1="530.7" y1="450.83" x2="530.7" y2="401.12"/>
    <polyline class="cls-4" points="530.7 401.12 530.67 400.41 530.58 399.7 530.47 399 530.26 398.32 530.02 397.67 529.72 397.03 529.37 396.41 528.98 395.82 528.54 395.26 528.03 394.73 527.53 394.26 526.96 393.82 526.37 393.41 525.75 393.05 525.09 392.76 524.44 392.53 523.73 392.32 523.05 392.2 522.33 392.11 521.62 392.08"/>
    <line class="cls-4" x1="521.62" y1="392.08" x2="488.17" y2="392.08"/>
    <line class="cls-4" x1="488.82" y1="381.11" x2="487.87" y2="401.32"/>
    <polyline class="cls-4" points="482.47 401.32 482.53 401.7 482.65 402.09 482.83 402.44 483.06 402.76 483.33 403.03 483.66 403.29 484.01 403.47 484.37 403.62 484.79 403.7 485.17 403.73 485.56 403.7 485.97 403.62 486.33 403.47 486.68 403.29 487.01 403.03 487.28 402.76 487.52 402.44 487.69 402.09 487.81 401.7 487.87 401.32"/>
    <line class="cls-4" x1="482.44" y1="401.32" x2="481.52" y2="381.11"/>
    <polyline class="cls-4" points="488.82 381.11 488.61 380.67 488.38 380.26 488.11 379.91 487.78 379.55 487.4 379.26 487.01 379.02 486.57 378.82 486.12 378.67 485.65 378.58 485.17 378.55 484.7 378.58 484.22 378.67 483.78 378.82 483.33 379.02 482.94 379.26 482.56 379.55 482.23 379.91 481.97 380.26 481.73 380.67 481.52 381.11"/>
    <polyline class="cls-4" points="482.44 400.59 482.14 400.97 481.91 401.41 481.73 401.85 481.61 402.32 481.55 402.79 481.58 403.26 481.64 403.76 481.79 404.2 482 404.65 482.23 405.06 482.56 405.44 482.92 405.76 483.33 406.03 483.75 406.23 484.22 406.41 484.7 406.5 485.17 406.53 485.65 406.5 486.12 406.41 486.6 406.23 487.01 406.03 487.43 405.76 487.78 405.44 488.11 405.06 488.35 404.65 488.55 404.2 488.7 403.76 488.76 403.26 488.79 402.79 488.73 402.32 488.61 401.85 488.44 401.41 488.2 400.97 487.9 400.59"/>
    <polyline class="cls-4" points="482.29 398.35 481.79 398.7 481.31 399.09 480.93 399.56 480.57 400.03 480.27 400.59 480.04 401.14 479.86 401.7 479.74 402.32 479.71 402.91 479.74 403.53 479.86 404.12 480.01 404.7 480.24 405.26 480.54 405.82 480.9 406.29 481.31 406.76 481.76 407.18 482.26 407.53 482.8 407.82 483.36 408.06 483.95 408.2 484.55 408.32 485.17 408.35 485.79 408.32 486.39 408.2 486.98 408.06 487.55 407.82 488.08 407.53 488.58 407.18 489.03 406.76 489.45 406.29 489.8 405.82 490.1 405.26 490.34 404.7 490.48 404.12 490.6 403.53 490.63 402.91 490.6 402.32 490.48 401.7 490.31 401.14 490.07 400.59 489.77 400.03 489.42 399.56 489.03 399.09 488.55 398.7 488.05 398.35"/>
    <line class="cls-4" x1="384.96" y1="450.83" x2="430.5" y2="450.83"/>
    <line class="cls-4" x1="384.96" y1="441.77" x2="430.5" y2="441.77"/>
    <line class="cls-4" x1="384.96" y1="432.74" x2="430.5" y2="432.74"/>
    <line class="cls-4" x1="384.96" y1="423.71" x2="430.5" y2="423.71"/>
    <line class="cls-4" x1="384.96" y1="414.68" x2="430.5" y2="414.68"/>
    <line class="cls-4" x1="384.96" y1="405.65" x2="430.5" y2="405.65"/>
    <line class="cls-4" x1="384.96" y1="396.61" x2="430.5" y2="396.61"/>
    <line class="cls-4" x1="375.85" y1="378.55" x2="375.85" y2="468.89"/>
    <polygon class="cls-4" points="475.14 385.76 475.11 385.2 474.99 384.64 474.81 384.11 474.57 383.58 474.28 383.11 473.92 382.67 473.51 382.29 473.03 381.96 472.53 381.7 471.99 381.46 471.46 381.35 470.89 381.26 470.3 381.26 469.74 381.35 469.2 381.46 468.67 381.7 468.16 381.96 467.69 382.29 467.27 382.67 466.92 383.11 466.62 383.58 466.38 384.11 466.2 384.64 466.09 385.2 466.06 385.76 466.09 386.32 466.2 386.88 466.38 387.41 466.62 387.94 466.92 388.41 467.27 388.85 467.69 389.23 468.16 389.55 468.67 389.82 469.2 390.05 469.74 390.17 470.3 390.26 470.89 390.26 471.46 390.17 471.99 390.05 472.53 389.82 473.03 389.55 473.51 389.23 473.92 388.85 474.28 388.41 474.57 387.94 474.81 387.41 474.99 386.88 475.11 386.32 475.14 385.76 475.14 385.76"/>
    <line class="cls-4" x1="470.6" y1="379.43" x2="470.6" y2="392.08"/>
    <line class="cls-4" x1="464.22" y1="385.76" x2="476.98" y2="385.76"/>
    <polygon class="cls-4" points="474.22 385.76 474.19 385.26 474.07 384.79 473.92 384.32 473.68 383.91 473.42 383.49 473.06 383.14 472.67 382.82 472.26 382.58 471.81 382.38 471.34 382.26 470.83 382.17 470.36 382.17 469.86 382.26 469.38 382.38 468.93 382.58 468.52 382.82 468.13 383.14 467.78 383.49 467.51 383.91 467.27 384.32 467.12 384.79 467.01 385.26 466.98 385.76 467.01 386.26 467.12 386.73 467.27 387.2 467.51 387.61 467.78 388.02 468.13 388.38 468.52 388.7 468.93 388.94 469.38 389.14 469.86 389.26 470.36 389.35 470.83 389.35 471.34 389.26 471.81 389.14 472.26 388.94 472.67 388.7 473.06 388.38 473.42 388.02 473.68 387.61 473.92 387.2 474.07 386.73 474.19 386.26 474.22 385.76 474.22 385.76"/>
    <line class="cls-4" x1="539.82" y1="468.89" x2="539.82" y2="378.55"/>
    <polygon class="cls-4" points="504.29 385.76 504.26 385.2 504.14 384.64 503.96 384.11 503.72 383.58 503.43 383.11 503.07 382.67 502.65 382.29 502.18 381.96 501.67 381.7 501.14 381.46 500.61 381.35 500.04 381.26 499.45 381.26 498.88 381.35 498.35 381.46 497.82 381.7 497.31 381.96 496.84 382.29 496.42 382.67 496.06 383.11 495.77 383.58 495.53 384.11 495.35 384.64 495.23 385.2 495.2 385.76 495.23 386.32 495.35 386.88 495.53 387.41 495.77 387.94 496.06 388.41 496.42 388.85 496.84 389.23 497.31 389.55 497.82 389.82 498.35 390.05 498.88 390.17 499.45 390.26 500.04 390.26 500.61 390.17 501.14 390.05 501.67 389.82 502.18 389.55 502.65 389.23 503.07 388.85 503.43 388.41 503.72 387.94 503.96 387.41 504.14 386.88 504.26 386.32 504.29 385.76 504.29 385.76"/>
    <line class="cls-4" x1="499.74" y1="379.43" x2="499.74" y2="392.08"/>
    <line class="cls-4" x1="506.13" y1="385.76" x2="493.36" y2="385.76"/>
    <polygon class="cls-4" points="503.37 385.76 503.34 385.26 503.22 384.79 503.07 384.32 502.83 383.91 502.56 383.49 502.21 383.14 501.82 382.82 501.41 382.58 500.96 382.38 500.49 382.26 499.98 382.17 499.51 382.17 499 382.26 498.53 382.38 498.08 382.58 497.67 382.82 497.28 383.14 496.93 383.49 496.66 383.91 496.42 384.32 496.27 384.79 496.15 385.26 496.12 385.76 496.15 386.26 496.27 386.73 496.42 387.2 496.66 387.61 496.93 388.02 497.28 388.38 497.67 388.7 498.08 388.94 498.53 389.14 499 389.26 499.51 389.35 499.98 389.35 500.49 389.26 500.96 389.14 501.41 388.94 501.82 388.7 502.21 388.38 502.56 388.02 502.83 387.61 503.07 387.2 503.22 386.73 503.34 386.26 503.37 385.76 503.37 385.76"/>
  </g>
  <g>
    <line class="cls-2" x1="164.45" y1="417.05" x2="156.28" y2="417.05"/>
    <line class="cls-2" x1="173.14" y1="433.87" x2="173.14" y2="425.77"/>
    <line class="cls-2" x1="190.18" y1="417.05" x2="182.01" y2="417.05"/>
    <line class="cls-2" x1="173.14" y1="408.95" x2="173.14" y2="400.85"/>
    <line class="cls-2" x1="225.88" y1="399.72" x2="217.67" y2="399.72"/>
    <line class="cls-2" x1="201.58" y1="399.72" x2="193.41" y2="399.72"/>
    <line class="cls-2" x1="209.65" y1="416.25" x2="209.65" y2="408.11"/>
    <line class="cls-2" x1="209.65" y1="391.73" x2="209.65" y2="383.63"/>
    <line class="cls-2" x1="130.73" y1="399.72" x2="122.55" y2="399.72"/>
    <line class="cls-2" x1="154.99" y1="399.72" x2="146.82" y2="399.72"/>
    <line class="cls-2" x1="138.79" y1="416.25" x2="138.79" y2="408.11"/>
    <line class="cls-2" x1="138.79" y1="391.73" x2="138.79" y2="383.63"/>
    <line class="cls-2" x1="204.07" y1="433.36" x2="195.9" y2="433.36"/>
    <line class="cls-2" x1="209.57" y1="427.84" x2="209.57" y2="419.7"/>
    <line class="cls-2" x1="209.65" y1="446.66" x2="209.65" y2="438.52"/>
    <line class="cls-2" x1="222.95" y1="433.36" x2="214.78" y2="433.36"/>
    <line class="cls-2" x1="152.17" y1="435.28" x2="144" y2="435.28"/>
    <line class="cls-2" x1="133.29" y1="435.28" x2="125.12" y2="435.28"/>
    <line class="cls-2" x1="138.86" y1="448.54" x2="138.86" y2="440.44"/>
    <line class="cls-2" x1="138.75" y1="429.73" x2="138.75" y2="421.63"/>
    <polygon class="cls-2" points="187.95 417.63 187.91 416.5 187.76 415.41 187.54 414.32 187.25 413.23 186.88 412.18 186.41 411.16 185.89 410.18 185.27 409.24 184.57 408.37 183.84 407.53 183.03 406.77 182.15 406.04 181.24 405.39 180.28 404.84 179.26 404.33 178.23 403.93 177.13 403.57 176.03 403.32 174.93 403.17 173.8 403.06 172.7 403.06 171.56 403.17 170.46 403.32 169.36 403.57 168.26 403.93 167.24 404.33 166.21 404.84 165.26 405.39 164.34 406.04 163.46 406.77 162.65 407.53 161.92 408.37 161.22 409.24 160.6 410.18 160.09 411.16 159.61 412.18 159.24 413.23 158.95 414.32 158.73 415.41 158.58 416.5 158.55 417.63 158.58 418.76 158.73 419.85 158.95 420.93 159.24 422.02 159.61 423.08 160.09 424.1 160.6 425.08 161.22 426.02 161.92 426.89 162.65 427.73 163.46 428.49 164.34 429.22 165.26 429.87 166.21 430.42 167.24 430.93 168.26 431.32 169.36 431.69 170.46 431.94 171.56 432.09 172.7 432.2 173.8 432.2 174.93 432.09 176.03 431.94 177.13 431.69 178.23 431.32 179.26 430.93 180.28 430.42 181.24 429.87 182.15 429.22 183.03 428.49 183.84 427.73 184.57 426.89 185.27 426.02 185.89 425.08 186.41 424.1 186.88 423.08 187.25 422.02 187.54 420.93 187.76 419.85 187.91 418.76 187.95 417.63 187.95 417.63"/>
    <polygon class="cls-2" points="183.03 417.63 183 416.72 182.85 415.78 182.63 414.9 182.34 414.03 181.93 413.2 181.49 412.4 180.94 411.63 180.32 410.94 179.66 410.29 178.93 409.75 178.16 409.24 177.32 408.8 176.44 408.47 175.56 408.22 174.64 408.04 173.72 407.93 172.77 407.93 171.85 408.04 170.94 408.22 170.06 408.47 169.18 408.8 168.37 409.24 167.57 409.75 166.83 410.29 166.17 410.94 165.55 411.63 165 412.4 164.56 413.2 164.16 414.03 163.86 414.9 163.64 415.78 163.5 416.72 163.46 417.63 163.5 418.54 163.64 419.48 163.86 420.35 164.16 421.23 164.56 422.06 165 422.86 165.55 423.62 166.17 424.31 166.83 424.97 167.57 425.51 168.37 426.02 169.18 426.46 170.06 426.78 170.94 427.04 171.85 427.22 172.77 427.33 173.72 427.33 174.64 427.22 175.56 427.04 176.44 426.78 177.32 426.46 178.16 426.02 178.93 425.51 179.66 424.97 180.32 424.31 180.94 423.62 181.49 422.86 181.93 422.06 182.34 421.23 182.63 420.35 182.85 419.48 183 418.54 183.03 417.63 183.03 417.63"/>
    <polygon class="cls-2" points="179.77 417.63 179.73 416.87 179.59 416.14 179.37 415.41 179.07 414.72 178.71 414.07 178.23 413.49 177.72 412.94 177.13 412.43 176.51 412.03 175.85 411.71 175.12 411.42 174.38 411.27 173.61 411.16 172.88 411.16 172.11 411.27 171.38 411.42 170.64 411.71 169.98 412.03 169.36 412.43 168.77 412.94 168.26 413.49 167.79 414.07 167.42 414.72 167.13 415.41 166.91 416.14 166.76 416.87 166.72 417.63 166.76 418.39 166.91 419.12 167.13 419.85 167.42 420.54 167.79 421.19 168.26 421.77 168.77 422.32 169.36 422.82 169.98 423.22 170.64 423.55 171.38 423.84 172.11 423.99 172.88 424.1 173.61 424.1 174.38 423.99 175.12 423.84 175.85 423.55 176.51 423.22 177.13 422.82 177.72 422.32 178.23 421.77 178.71 421.19 179.07 420.54 179.37 419.85 179.59 419.12 179.73 418.39 179.77 417.63 179.77 417.63"/>
    <polygon class="cls-2" points="214.08 433.18 214.04 432.56 213.9 431.94 213.68 431.32 213.42 430.78 213.05 430.27 212.61 429.8 212.1 429.4 211.55 429.07 211 428.82 210.38 428.67 209.76 428.56 209.1 428.56 208.47 428.67 207.85 428.82 207.3 429.07 206.75 429.4 206.24 429.8 205.8 430.27 205.43 430.78 205.17 431.32 204.95 431.94 204.81 432.56 204.77 433.18 204.81 433.8 204.95 434.41 205.17 435.03 205.43 435.58 205.8 436.08 206.24 436.56 206.75 436.96 207.3 437.28 207.85 437.54 208.47 437.68 209.1 437.79 209.76 437.79 210.38 437.68 211 437.54 211.55 437.28 212.1 436.96 212.61 436.56 213.05 436.08 213.42 435.58 213.68 435.03 213.9 434.41 214.04 433.8 214.08 433.18 214.08 433.18"/>
    <polygon class="cls-2" points="211.62 433.18 211.59 432.74 211.44 432.34 211.26 431.98 210.97 431.65 210.64 431.36 210.27 431.18 209.87 431.03 209.43 431 208.99 431.03 208.58 431.18 208.22 431.36 207.89 431.65 207.59 431.98 207.41 432.34 207.26 432.74 207.23 433.18 207.26 433.61 207.41 434.01 207.59 434.38 207.89 434.7 208.22 434.99 208.58 435.18 208.99 435.32 209.43 435.36 209.87 435.32 210.27 435.18 210.64 434.99 210.97 434.7 211.26 434.38 211.44 434.01 211.59 433.61 211.62 433.18 211.62 433.18"/>
    <polygon class="cls-2" points="219.21 433.18 219.18 432.27 219.03 431.32 218.81 430.45 218.52 429.58 218.11 428.75 217.67 427.95 217.12 427.18 216.5 426.49 215.84 425.84 215.11 425.29 214.34 424.79 213.49 424.35 212.61 424.02 211.73 423.77 210.82 423.59 209.9 423.48 208.95 423.48 208.03 423.59 207.12 423.77 206.24 424.02 205.36 424.35 204.55 424.79 203.74 425.29 203.01 425.84 202.35 426.49 201.73 427.18 201.18 427.95 200.74 428.75 200.34 429.58 200.04 430.45 199.82 431.32 199.68 432.27 199.64 433.18 199.68 434.09 199.82 435.03 200.04 435.9 200.34 436.77 200.74 437.61 201.18 438.41 201.73 439.17 202.35 439.86 203.01 440.52 203.74 441.06 204.55 441.57 205.36 442.01 206.24 442.33 207.12 442.59 208.03 442.77 208.95 442.88 209.9 442.88 210.82 442.77 211.73 442.59 212.61 442.33 213.49 442.01 214.34 441.57 215.11 441.06 215.84 440.52 216.5 439.86 217.12 439.17 217.67 438.41 218.11 437.61 218.52 436.77 218.81 435.9 219.03 435.03 219.18 434.09 219.21 433.18 219.21 433.18"/>
    <polygon class="cls-2" points="217.01 400.05 216.98 399.25 216.83 398.48 216.65 397.72 216.35 396.99 215.95 396.3 215.51 395.65 215 395.03 214.41 394.52 213.79 394.02 213.13 393.62 212.39 393.29 211.66 393.03 210.86 392.89 210.09 392.78 209.28 392.78 208.51 392.89 207.7 393.03 206.97 393.29 206.24 393.62 205.58 394.02 204.95 394.52 204.37 395.03 203.85 395.65 203.41 396.3 203.01 396.99 202.72 397.72 202.53 398.48 202.39 399.25 202.35 400.05 202.39 400.85 202.53 401.61 202.72 402.37 203.01 403.1 203.41 403.79 203.85 404.44 204.37 405.06 204.95 405.57 205.58 406.08 206.24 406.48 206.97 406.8 207.7 407.06 208.51 407.2 209.28 407.31 210.09 407.31 210.86 407.2 211.66 407.06 212.39 406.8 213.13 406.48 213.79 406.08 214.41 405.57 215 405.06 215.51 404.44 215.95 403.79 216.35 403.1 216.65 402.37 216.83 401.61 216.98 400.85 217.01 400.05 217.01 400.05"/>
    <polygon class="cls-2" points="213.75 400.05 213.71 399.46 213.6 398.92 213.38 398.37 213.09 397.87 212.76 397.39 212.36 396.99 211.88 396.67 211.37 396.38 210.82 396.16 210.27 396.05 209.68 396.01 209.1 396.05 208.55 396.16 208 396.38 207.48 396.67 207.01 396.99 206.6 397.39 206.27 397.87 205.98 398.37 205.76 398.92 205.65 399.46 205.61 400.05 205.65 400.63 205.76 401.17 205.98 401.72 206.27 402.23 206.6 402.7 207.01 403.1 207.48 403.42 208 403.72 208.55 403.93 209.1 404.04 209.68 404.08 210.27 404.04 210.82 403.93 211.37 403.72 211.88 403.42 212.36 403.1 212.76 402.7 213.09 402.23 213.38 401.72 213.6 401.17 213.71 400.63 213.75 400.05 213.75 400.05"/>
    <polygon class="cls-2" points="222.73 400.05 222.69 398.99 222.55 397.9 222.33 396.89 222.03 395.83 221.63 394.85 221.16 393.91 220.61 392.96 219.98 392.09 219.29 391.29 218.52 390.53 217.71 389.84 216.83 389.22 215.88 388.68 214.92 388.2 213.93 387.8 212.87 387.51 211.84 387.29 210.75 387.15 209.68 387.11 208.62 387.15 207.52 387.29 206.49 387.51 205.43 387.8 204.44 388.2 203.49 388.68 202.53 389.22 201.65 389.84 200.85 390.53 200.08 391.29 199.38 392.09 198.76 392.96 198.21 393.91 197.73 394.85 197.33 395.83 197.04 396.89 196.82 397.9 196.67 398.99 196.63 400.05 196.67 401.1 196.82 402.19 197.04 403.21 197.33 404.26 197.73 405.24 198.21 406.19 198.76 407.13 199.38 408 200.08 408.8 200.85 409.56 201.65 410.25 202.53 410.87 203.49 411.42 204.44 411.89 205.43 412.29 206.49 412.58 207.52 412.8 208.62 412.94 209.68 412.98 210.75 412.94 211.84 412.8 212.87 412.58 213.93 412.29 214.92 411.89 215.88 411.42 216.83 410.87 217.71 410.25 218.52 409.56 219.29 408.8 219.98 408 220.61 407.13 221.16 406.19 221.63 405.24 222.03 404.26 222.33 403.21 222.55 402.19 222.69 401.1 222.73 400.05 222.73 400.05"/>
    <polygon class="cls-2" points="148.43 435.1 148.39 434.19 148.25 433.25 148.03 432.38 147.73 431.51 147.33 430.67 146.89 429.87 146.34 429.11 145.72 428.42 145.06 427.76 144.33 427.22 143.56 426.71 142.71 426.28 141.83 425.95 140.95 425.69 140.04 425.51 139.12 425.4 138.17 425.4 137.25 425.51 136.33 425.69 135.45 425.95 134.58 426.28 133.77 426.71 132.96 427.22 132.23 427.76 131.57 428.42 130.95 429.11 130.4 429.87 129.96 430.67 129.55 431.51 129.26 432.38 129.04 433.25 128.89 434.19 128.86 435.1 128.89 436.01 129.04 436.96 129.26 437.83 129.55 438.7 129.96 439.54 130.4 440.33 130.95 441.1 131.57 441.79 132.23 442.44 132.96 442.99 133.77 443.49 134.58 443.93 135.45 444.26 136.33 444.51 137.25 444.69 138.17 444.8 139.12 444.8 140.04 444.69 140.95 444.51 141.83 444.26 142.71 443.93 143.56 443.49 144.33 442.99 145.06 442.44 145.72 441.79 146.34 441.1 146.89 440.33 147.33 439.54 147.73 438.7 148.03 437.83 148.25 436.96 148.39 436.01 148.43 435.1 148.43 435.1"/>
    <polygon class="cls-2" points="140.84 435.1 140.81 434.67 140.66 434.27 140.48 433.9 140.18 433.58 139.85 433.29 139.49 433.1 139.08 432.96 138.64 432.92 138.2 432.96 137.8 433.1 137.43 433.29 137.1 433.58 136.81 433.9 136.63 434.27 136.48 434.67 136.44 435.1 136.48 435.54 136.63 435.94 136.81 436.3 137.1 436.63 137.43 436.92 137.8 437.1 138.2 437.25 138.64 437.28 139.08 437.25 139.49 437.1 139.85 436.92 140.18 436.63 140.48 436.3 140.66 435.94 140.81 435.54 140.84 435.1 140.84 435.1"/>
    <polygon class="cls-2" points="143.3 435.1 143.26 434.49 143.12 433.87 142.9 433.25 142.64 432.71 142.27 432.2 141.83 431.72 141.32 431.32 140.77 431 140.22 430.74 139.6 430.6 138.97 430.49 138.31 430.49 137.69 430.6 137.07 430.74 136.52 431 135.97 431.32 135.45 431.72 135.02 432.2 134.65 432.71 134.39 433.25 134.17 433.87 134.03 434.49 133.99 435.1 134.03 435.72 134.17 436.34 134.39 436.96 134.65 437.5 135.02 438.01 135.45 438.48 135.97 438.88 136.52 439.21 137.07 439.46 137.69 439.61 138.31 439.72 138.97 439.72 139.6 439.61 140.22 439.46 140.77 439.21 141.32 438.88 141.83 438.48 142.27 438.01 142.64 437.5 142.9 436.96 143.12 436.34 143.26 435.72 143.3 435.1 143.3 435.1"/>
    <polygon class="cls-2" points="144.55 400.05 144.51 399.36 144.36 398.7 144.18 398.05 143.89 397.43 143.52 396.81 143.12 396.3 142.6 395.8 142.09 395.4 141.47 395.03 140.84 394.74 140.18 394.56 139.52 394.42 138.83 394.38 138.13 394.42 137.47 394.56 136.81 394.74 136.19 395.03 135.56 395.4 135.05 395.8 134.54 396.3 134.14 396.81 133.77 397.43 133.48 398.05 133.29 398.7 133.15 399.36 133.11 400.05 133.15 400.74 133.29 401.39 133.48 402.04 133.77 402.66 134.14 403.28 134.54 403.79 135.05 404.3 135.56 404.7 136.19 405.06 136.81 405.35 137.47 405.53 138.13 405.68 138.83 405.71 139.52 405.68 140.18 405.53 140.84 405.35 141.47 405.06 142.09 404.7 142.6 404.3 143.12 403.79 143.52 403.28 143.89 402.66 144.18 402.04 144.36 401.39 144.51 400.74 144.55 400.05 144.55 400.05"/>
    <polygon class="cls-2" points="147.81 400.05 147.77 399.17 147.62 398.3 147.4 397.47 147.11 396.63 146.74 395.87 146.3 395.11 145.76 394.42 145.17 393.76 144.51 393.18 143.81 392.64 143.04 392.2 142.27 391.84 141.43 391.55 140.59 391.33 139.71 391.18 138.83 391.15 137.95 391.18 137.07 391.33 136.22 391.55 135.38 391.84 134.61 392.2 133.84 392.64 133.15 393.18 132.49 393.76 131.9 394.42 131.35 395.11 130.91 395.87 130.54 396.63 130.25 397.47 130.03 398.3 129.88 399.17 129.85 400.05 129.88 400.92 130.03 401.79 130.25 402.63 130.54 403.46 130.91 404.22 131.35 404.99 131.9 405.68 132.49 406.33 133.15 406.91 133.84 407.46 134.61 407.89 135.38 408.26 136.22 408.55 137.07 408.76 137.95 408.91 138.83 408.95 139.71 408.91 140.59 408.76 141.43 408.55 142.27 408.26 143.04 407.89 143.81 407.46 144.51 406.91 145.17 406.33 145.76 405.68 146.3 404.99 146.74 404.22 147.11 403.46 147.4 402.63 147.62 401.79 147.77 400.92 147.81 400.05 147.81 400.05"/>
    <polygon class="cls-2" points="151.88 400.05 151.84 398.99 151.69 397.9 151.47 396.89 151.18 395.83 150.78 394.85 150.3 393.91 149.75 392.96 149.13 392.09 148.43 391.29 147.66 390.53 146.85 389.84 145.98 389.22 145.02 388.68 144.07 388.2 143.08 387.8 142.02 387.51 140.99 387.29 139.89 387.15 138.83 387.11 137.76 387.15 136.66 387.29 135.64 387.51 134.58 387.8 133.59 388.2 132.63 388.68 131.68 389.22 130.8 389.84 129.99 390.53 129.22 391.29 128.53 392.09 127.9 392.96 127.35 393.91 126.88 394.85 126.47 395.83 126.18 396.89 125.96 397.9 125.81 398.99 125.78 400.05 125.81 401.1 125.96 402.19 126.18 403.21 126.47 404.26 126.88 405.24 127.35 406.19 127.9 407.13 128.53 408 129.22 408.8 129.99 409.56 130.8 410.25 131.68 410.87 132.63 411.42 133.59 411.89 134.58 412.29 135.64 412.58 136.66 412.8 137.76 412.94 138.83 412.98 139.89 412.94 140.99 412.8 142.02 412.58 143.08 412.29 144.07 411.89 145.02 411.42 145.98 410.87 146.85 410.25 147.66 409.56 148.43 408.8 149.13 408 149.75 407.13 150.3 406.19 150.78 405.24 151.18 404.26 151.47 403.21 151.69 402.19 151.84 401.1 151.88 400.05 151.88 400.05"/>
    <line class="cls-2" x1="114.01" y1="379.45" x2="114.01" y2="462.1"/>
    <polygon class="cls-2" points="185.89 455.99 185.86 455.63 185.75 455.27 185.56 454.97 185.31 454.68 185.01 454.47 184.68 454.32 184.32 454.25 183.95 454.25 183.58 454.32 183.25 454.47 182.96 454.68 182.7 454.97 182.52 455.27 182.41 455.63 182.37 455.99 182.41 456.36 182.52 456.72 182.7 457.01 182.96 457.3 183.25 457.52 183.58 457.66 183.95 457.74 184.32 457.74 184.68 457.66 185.01 457.52 185.31 457.3 185.56 457.01 185.75 456.72 185.86 456.36 185.89 455.99 185.89 455.99"/>
    <polygon class="cls-2" points="178.74 455.99 178.71 455.63 178.6 455.27 178.42 454.97 178.16 454.68 177.87 454.47 177.54 454.32 177.17 454.25 176.8 454.25 176.44 454.32 176.11 454.47 175.81 454.68 175.56 454.97 175.37 455.27 175.26 455.63 175.23 455.99 175.26 456.36 175.37 456.72 175.56 457.01 175.81 457.3 176.11 457.52 176.44 457.66 176.8 457.74 177.17 457.74 177.54 457.66 177.87 457.52 178.16 457.3 178.42 457.01 178.6 456.72 178.71 456.36 178.74 455.99 178.74 455.99"/>
    <polygon class="cls-2" points="164.08 455.99 164.05 455.63 163.94 455.27 163.75 454.97 163.5 454.68 163.2 454.47 162.87 454.32 162.51 454.25 162.14 454.25 161.77 454.32 161.44 454.47 161.15 454.68 160.89 454.97 160.71 455.27 160.6 455.63 160.56 455.99 160.6 456.36 160.71 456.72 160.89 457.01 161.15 457.3 161.44 457.52 161.77 457.66 162.14 457.74 162.51 457.74 162.87 457.66 163.2 457.52 163.5 457.3 163.75 457.01 163.94 456.72 164.05 456.36 164.08 455.99 164.08 455.99"/>
    <polygon class="cls-2" points="171.23 455.99 171.19 455.63 171.08 455.27 170.9 454.97 170.64 454.68 170.35 454.47 170.02 454.32 169.65 454.25 169.29 454.25 168.92 454.32 168.59 454.47 168.3 454.68 168.04 454.97 167.86 455.27 167.75 455.63 167.71 455.99 167.75 456.36 167.86 456.72 168.04 457.01 168.3 457.3 168.59 457.52 168.92 457.66 169.29 457.74 169.65 457.74 170.02 457.66 170.35 457.52 170.64 457.3 170.9 457.01 171.08 456.72 171.19 456.36 171.23 455.99 171.23 455.99"/>
    <line class="cls-2" x1="229.26" y1="450.76" x2="229.26" y2="381.88"/>
    <line class="cls-2" x1="116.47" y1="450.76" x2="229.26" y2="450.76"/>
    <line class="cls-2" x1="116.47" y1="381.88" x2="116.47" y2="450.76"/>
    <line class="cls-2" x1="229.26" y1="381.88" x2="116.47" y2="381.88"/>
    <line class="cls-2" x1="231.68" y1="379.45" x2="114.01" y2="379.45"/>
    <line class="cls-2" x1="231.68" y1="462.1" x2="231.68" y2="379.45"/>
    <line class="cls-2" x1="114.01" y1="462.1" x2="231.68" y2="462.1"/>
  </g>
  <text class="cls-9" transform="translate(654.26 404.76)"><tspan x="0" y="0">W </tspan></text>
  <text class="cls-6" transform="translate(794.5 297.49)"><tspan x="0" y="0">KÍCH THƯỚC THƯỜNG GẶ</tspan><tspan class="cls-7" x="312.75" y="0">P</tspan></text>
  <rect class="cls-5" x="756.52" y="281.71" width="16.38" height="16.38"/>
  <g>
    <path class="cls-5" d="M736.3,350.78v-2.88h5.66v2.88h-5.66Z"/>
    <path class="cls-5" d="M764.27,349.26l2.94.93c-.45,1.64-1.2,2.86-2.25,3.66-1.05.8-2.38,1.19-3.99,1.19-2,0-3.64-.68-4.92-2.04-1.29-1.36-1.93-3.23-1.93-5.59,0-2.5.65-4.45,1.94-5.83,1.29-1.38,2.99-2.08,5.1-2.08,1.84,0,3.33.54,4.48,1.63.68.64,1.2,1.57,1.54,2.77l-3,.72c-.18-.78-.55-1.39-1.11-1.85-.56-.45-1.25-.68-2.06-.68-1.11,0-2.02.4-2.71,1.2-.69.8-1.04,2.09-1.04,3.89,0,1.9.34,3.25,1.03,4.06s1.57,1.21,2.67,1.21c.81,0,1.5-.26,2.08-.77.58-.51,1-1.32,1.25-2.42Z"/>
    <path class="cls-5" d="M772.67,339.75v5.53c.93-1.09,2.04-1.63,3.33-1.63.66,0,1.26.12,1.79.37s.93.56,1.2.94c.27.38.46.81.55,1.27.1.46.15,1.19.15,2.16v6.39h-2.88v-5.75c0-1.14-.05-1.87-.16-2.17-.11-.31-.3-.55-.58-.73-.28-.18-.62-.27-1.04-.27-.48,0-.91.12-1.28.35s-.65.58-.83,1.05c-.17.47-.26,1.16-.26,2.08v5.46h-2.88v-15.03h2.88Z"/>
    <path class="cls-5" d="M782.63,342.42v-2.67h2.88v2.67h-2.88ZM782.63,354.79v-10.89h2.88v10.89h-2.88Z"/>
    <path class="cls-5" d="M794.77,351.32l2.87.48c-.37,1.05-.95,1.86-1.75,2.41-.8.55-1.79.83-2.99.83-1.89,0-3.29-.62-4.2-1.86-.72-.99-1.08-2.24-1.08-3.75,0-1.8.47-3.22,1.42-4.24s2.14-1.53,3.58-1.53c1.62,0,2.9.54,3.83,1.6.94,1.07,1.38,2.71,1.34,4.92h-7.22c.02.85.25,1.52.7,1.99.44.48,1,.71,1.66.71.45,0,.83-.12,1.14-.37s.54-.64.7-1.19ZM789.24,342.52l2.15-3.03h2.67l2.12,3.03h-2.32l-1.19-1.53-1.11,1.53h-2.33ZM794.09,338.94h-1.81l-2.83-2.89h3.23l1.42,2.89ZM794.93,348.41c-.02-.83-.24-1.47-.65-1.9-.41-.43-.91-.65-1.5-.65-.63,0-1.15.23-1.56.69s-.61,1.08-.6,1.87h4.31Z"/>
    <path class="cls-5" d="M807.31,354.79v-1.63c-.4.58-.92,1.04-1.56,1.38-.65.33-1.33.5-2.05.5s-1.39-.16-1.97-.48c-.58-.32-1-.77-1.26-1.35-.26-.58-.39-1.38-.39-2.41v-6.89h2.88v5c0,1.53.05,2.47.16,2.81.11.35.3.62.58.82.28.2.64.3,1.07.3.49,0,.93-.13,1.32-.41.39-.27.66-.6.8-1,.14-.4.22-1.38.22-2.94v-4.59h2.88v10.89h-2.68Z"/>
    <path class="cls-5" d="M828.79,354.79h-2.68v-1.6c-.44.62-.97,1.09-1.57,1.39-.6.3-1.21.46-1.83.46-1.25,0-2.32-.5-3.21-1.51-.89-1.01-1.34-2.42-1.34-4.22s.43-3.25,1.3-4.21c.87-.96,1.96-1.44,3.29-1.44,1.22,0,2.27.51,3.16,1.52v-5.41h2.88v15.03ZM821.1,349.11c0,1.16.16,2,.48,2.52.46.75,1.11,1.13,1.95,1.13.66,0,1.23-.28,1.69-.85.46-.56.7-1.41.7-2.53,0-1.25-.22-2.15-.68-2.7s-1.03-.83-1.73-.83-1.26.27-1.72.82c-.46.54-.69,1.36-.69,2.44Z"/>
    <path class="cls-5" d="M833.78,347.22l-2.61-.47c.29-1.05.8-1.83,1.52-2.34s1.78-.76,3.2-.76c1.29,0,2.24.15,2.87.46.63.3,1.07.69,1.33,1.16.26.47.38,1.33.38,2.58l-.03,3.36c0,.96.05,1.66.14,2.12.09.46.26.94.52,1.46h-2.85c-.08-.19-.17-.47-.28-.85-.05-.17-.08-.28-.1-.34-.49.48-1.02.84-1.58,1.08-.56.24-1.16.36-1.79.36-1.12,0-2-.3-2.65-.91-.65-.61-.97-1.38-.97-2.31,0-.62.15-1.16.44-1.65.29-.48.71-.85,1.24-1.11.53-.26,1.29-.48,2.29-.67,1.35-.25,2.28-.49,2.8-.71v-.29c0-.55-.14-.95-.41-1.18-.27-.24-.79-.35-1.55-.35-.51,0-.91.1-1.2.3-.29.2-.52.56-.7,1.06ZM837.43,342.56h-1.81l-2.83-3.07h3.23l1.41,3.07ZM837.64,349.56c-.37.12-.95.27-1.75.44-.8.17-1.32.34-1.57.5-.38.27-.56.6-.56,1.01s.15.75.45,1.05c.3.29.68.44,1.15.44.52,0,1.01-.17,1.49-.51.35-.26.58-.58.69-.95.08-.25.11-.71.11-1.41v-.57Z"/>
    <path class="cls-5" d="M843.31,342.42v-2.67h2.88v2.67h-2.88ZM843.31,354.79v-10.89h2.88v10.89h-2.88Z"/>
    <path class="cls-5" d="M855.08,354.79v-14.91h3.04v12.38h7.55v2.53h-10.58Z"/>
    <path class="cls-5" d="M868.2,346v-2.1h2.1v2.1h-2.1ZM868.2,354.79v-2.1h2.1v2.1h-2.1Z"/>
    <path class="cls-5" d="M883.38,353.14l.27,1.63c-.52.11-.98.16-1.39.16-.67,0-1.19-.11-1.56-.32-.37-.21-.63-.49-.78-.84s-.23-1.07-.23-2.18v-6.26h-1.35v-1.44h1.35v-2.7l1.84-1.11v3.8h1.86v1.44h-1.86v6.37c0,.53.03.86.1,1.01.07.15.17.27.32.36.15.09.36.13.63.13.21,0,.48-.02.81-.07Z"/>
    <path class="cls-5" d="M895.24,346.04v-2.14h1.98v1.69c0,1.07-.12,1.82-.37,2.25-.63,1.09-1.59,1.71-2.88,1.85v5.11h-1.65v-1.6c-.85,1.23-2,1.85-3.46,1.85-.64,0-1.23-.12-1.79-.36-.56-.24-.97-.55-1.25-.93s-.46-.83-.57-1.37c-.08-.37-.11-.94-.11-1.72v-6.75h1.85v6.04c0,.98.04,1.63.11,1.95.24,1.04.95,1.56,2.13,1.56.57,0,1.09-.14,1.57-.43.48-.29.82-.67,1.02-1.16.2-.49.3-1.19.3-2.12v-5.83h1.85v5c.87-.15,1.52-.56,1.95-1.22.19-.29.29-.83.29-1.64h-.96ZM890.85,342.54h-1.49l-2.37-2.87h2.47l1.38,2.87Z"/>
    <path class="cls-5" d="M914.27,353.01v1.77h-9.94c-.01-.44.06-.87.22-1.28.25-.68.66-1.34,1.21-2,.56-.66,1.36-1.42,2.41-2.28,1.63-1.34,2.74-2.4,3.31-3.18s.86-1.52.86-2.22c0-.73-.26-1.35-.78-1.85-.52-.5-1.21-.75-2.05-.75-.89,0-1.6.27-2.13.8s-.8,1.27-.81,2.21l-1.9-.2c.13-1.42.62-2.49,1.47-3.24.85-.74,1.99-1.11,3.41-1.11s2.58.4,3.42,1.2c.84.8,1.26,1.79,1.26,2.97,0,.6-.12,1.19-.37,1.77s-.65,1.19-1.22,1.84c-.57.64-1.52,1.52-2.85,2.64-1.11.93-1.82,1.56-2.13,1.89s-.57.66-.78,1h7.37Z"/>
    <path class="cls-5" d="M922.16,354.79v-3.6h-6.52v-1.69l6.86-9.74h1.51v9.74h2.03v1.69h-2.03v3.6h-1.85ZM922.16,349.5v-6.78l-4.71,6.78h4.71Z"/>
    <path class="cls-5" d="M927.92,347.37c0-1.78.18-3.21.55-4.29.37-1.08.91-1.92,1.63-2.51.72-.59,1.63-.88,2.72-.88.81,0,1.51.16,2.12.49s1.11.79,1.51,1.4c.4.61.71,1.36.93,2.24.23.88.34,2.06.34,3.55,0,1.76-.18,3.19-.54,4.27s-.9,1.92-1.62,2.51c-.72.59-1.63.89-2.73.89-1.45,0-2.59-.52-3.42-1.56-.99-1.25-1.49-3.29-1.49-6.11ZM929.82,347.37c0,2.47.29,4.11.87,4.93.58.82,1.29,1.22,2.14,1.22s1.56-.41,2.14-1.23c.58-.82.87-2.46.87-4.92s-.29-4.12-.87-4.93c-.58-.81-1.3-1.22-2.16-1.22s-1.52.36-2.03,1.08c-.64.92-.95,2.61-.95,5.08Z"/>
    <path class="cls-5" d="M939.6,347.37c0-1.78.18-3.21.55-4.29.37-1.08.91-1.92,1.63-2.51.72-.59,1.63-.88,2.72-.88.81,0,1.51.16,2.12.49s1.11.79,1.51,1.4c.4.61.71,1.36.93,2.24.23.88.34,2.06.34,3.55,0,1.76-.18,3.19-.54,4.27s-.9,1.92-1.62,2.51c-.72.59-1.63.89-2.73.89-1.45,0-2.59-.52-3.42-1.56-.99-1.25-1.49-3.29-1.49-6.11ZM941.5,347.37c0,2.47.29,4.11.87,4.93.58.82,1.29,1.22,2.14,1.22s1.56-.41,2.14-1.23c.58-.82.87-2.46.87-4.92s-.29-4.12-.87-4.93c-.58-.81-1.3-1.22-2.16-1.22s-1.52.36-2.03,1.08c-.64.92-.95,2.61-.95,5.08Z"/>
    <path class="cls-5" d="M951.3,349.08v-2.1c.72-.82,1.67-1.23,2.85-1.23.41,0,.84.06,1.29.18s1.09.36,1.93.71c.47.2.83.33,1.06.39.24.06.47.09.71.09.44,0,.9-.13,1.38-.4.48-.27.9-.6,1.27-1v2.17c-.44.41-.88.71-1.33.89-.45.18-.95.28-1.51.28-.41,0-.8-.05-1.17-.14-.37-.1-.96-.33-1.77-.69-.81-.36-1.49-.54-2.03-.54-.44,0-.85.09-1.24.28-.39.19-.87.56-1.44,1.11Z"/>
    <path class="cls-5" d="M973.25,353.01v1.77h-9.94c-.01-.44.06-.87.22-1.28.25-.68.66-1.34,1.21-2,.56-.66,1.36-1.42,2.41-2.28,1.63-1.34,2.74-2.4,3.31-3.18s.86-1.52.86-2.22c0-.73-.26-1.35-.78-1.85-.52-.5-1.21-.75-2.05-.75-.89,0-1.6.27-2.13.8s-.8,1.27-.81,2.21l-1.9-.2c.13-1.42.62-2.49,1.47-3.24.85-.74,1.99-1.11,3.41-1.11s2.58.4,3.42,1.2c.84.8,1.26,1.79,1.26,2.97,0,.6-.12,1.19-.37,1.77s-.65,1.19-1.22,1.84c-.57.64-1.52,1.52-2.85,2.64-1.11.93-1.82,1.56-2.13,1.89s-.57.66-.78,1h7.37Z"/>
    <path class="cls-5" d="M975.35,341.72v-1.77h9.73v1.44c-.96,1.02-1.91,2.37-2.85,4.06-.94,1.69-1.67,3.43-2.18,5.21-.37,1.26-.61,2.64-.71,4.13h-1.9c.02-1.18.25-2.61.7-4.29s1.08-3.29,1.91-4.84c.83-1.55,1.71-2.87,2.65-3.93h-7.36Z"/>
    <path class="cls-5" d="M986.91,347.37c0-1.78.18-3.21.55-4.29.37-1.08.91-1.92,1.63-2.51.72-.59,1.63-.88,2.72-.88.81,0,1.51.16,2.12.49s1.11.79,1.51,1.4c.4.61.71,1.36.93,2.24.23.88.34,2.06.34,3.55,0,1.76-.18,3.19-.54,4.27s-.9,1.92-1.62,2.51c-.72.59-1.63.89-2.73.89-1.45,0-2.59-.52-3.42-1.56-.99-1.25-1.49-3.29-1.49-6.11ZM988.8,347.37c0,2.47.29,4.11.87,4.93.58.82,1.29,1.22,2.14,1.22s1.56-.41,2.14-1.23c.58-.82.87-2.46.87-4.92s-.29-4.12-.87-4.93c-.58-.81-1.3-1.22-2.16-1.22s-1.52.36-2.03,1.08c-.64.92-.95,2.61-.95,5.08Z"/>
    <path class="cls-5" d="M998.59,347.37c0-1.78.18-3.21.55-4.29.37-1.08.91-1.92,1.63-2.51.72-.59,1.63-.88,2.72-.88.81,0,1.51.16,2.12.49s1.11.79,1.51,1.4c.4.61.71,1.36.93,2.24.23.88.34,2.06.34,3.55,0,1.76-.18,3.19-.54,4.27s-.9,1.92-1.62,2.51c-.72.59-1.63.89-2.73.89-1.45,0-2.59-.52-3.42-1.56-.99-1.25-1.49-3.29-1.49-6.11ZM1000.48,347.37c0,2.47.29,4.11.87,4.93.58.82,1.29,1.22,2.14,1.22s1.56-.41,2.14-1.23c.58-.82.87-2.46.87-4.92s-.29-4.12-.87-4.93c-.58-.81-1.3-1.22-2.16-1.22s-1.52.36-2.03,1.08c-.64.92-.95,2.61-.95,5.08Z"/>
  </g>
  <g>
    <path class="cls-5" d="M736.3,409.22v-2.88h5.66v2.88h-5.66Z"/>
    <path class="cls-5" d="M764.27,407.71l2.94.93c-.45,1.64-1.2,2.86-2.25,3.66-1.05.8-2.38,1.2-3.99,1.2-2,0-3.64-.68-4.92-2.05-1.29-1.36-1.93-3.23-1.93-5.59,0-2.5.65-4.45,1.94-5.83,1.29-1.38,2.99-2.08,5.1-2.08,1.84,0,3.33.54,4.48,1.63.68.64,1.2,1.57,1.54,2.77l-3,.72c-.18-.78-.55-1.39-1.11-1.85-.56-.45-1.25-.68-2.06-.68-1.11,0-2.02.4-2.71,1.2-.69.8-1.04,2.1-1.04,3.89,0,1.9.34,3.25,1.03,4.06s1.57,1.21,2.67,1.21c.81,0,1.5-.26,2.08-.77.58-.51,1-1.32,1.25-2.42Z"/>
    <path class="cls-5" d="M772.67,398.2v5.53c.93-1.09,2.04-1.63,3.33-1.63.66,0,1.26.12,1.79.37s.93.56,1.2.94c.27.38.46.81.55,1.27.1.46.15,1.19.15,2.16v6.39h-2.88v-5.75c0-1.14-.05-1.87-.16-2.17-.11-.31-.3-.55-.58-.73-.28-.18-.62-.27-1.04-.27-.48,0-.91.12-1.28.35s-.65.58-.83,1.05c-.17.47-.26,1.16-.26,2.08v5.46h-2.88v-15.03h2.88Z"/>
    <path class="cls-5" d="M782.63,400.87v-2.67h2.88v2.67h-2.88ZM782.63,413.23v-10.89h2.88v10.89h-2.88Z"/>
    <path class="cls-5" d="M794.77,409.77l2.87.48c-.37,1.05-.95,1.85-1.75,2.4-.8.55-1.79.83-2.99.83-1.89,0-3.29-.62-4.2-1.86-.72-.99-1.08-2.24-1.08-3.75,0-1.8.47-3.22,1.42-4.24s2.14-1.53,3.58-1.53c1.62,0,2.9.54,3.83,1.6.94,1.07,1.38,2.71,1.34,4.92h-7.22c.02.85.25,1.52.7,1.99.44.48,1,.71,1.66.71.45,0,.83-.12,1.14-.37s.54-.64.7-1.19ZM789.24,400.97l2.15-3.02h2.67l2.12,3.02h-2.32l-1.19-1.53-1.11,1.53h-2.33ZM794.09,397.39h-1.81l-2.83-2.89h3.23l1.42,2.89ZM794.93,406.85c-.02-.83-.24-1.47-.65-1.9-.41-.43-.91-.65-1.5-.65-.63,0-1.15.23-1.56.69s-.61,1.08-.6,1.87h4.31Z"/>
    <path class="cls-5" d="M807.31,413.23v-1.63c-.4.58-.92,1.04-1.56,1.37-.65.34-1.33.5-2.05.5s-1.39-.16-1.97-.48c-.58-.32-1-.77-1.26-1.35-.26-.58-.39-1.38-.39-2.41v-6.89h2.88v5c0,1.53.05,2.47.16,2.81.11.35.3.62.58.82.28.2.64.3,1.07.3.49,0,.93-.13,1.32-.41.39-.27.66-.6.8-1,.14-.4.22-1.38.22-2.94v-4.59h2.88v10.89h-2.68Z"/>
    <path class="cls-5" d="M817.79,410.13l2.89-.44c.12.56.37.99.75,1.28.38.29.9.44,1.58.44.75,0,1.31-.14,1.68-.41.25-.19.38-.45.38-.77,0-.22-.07-.4-.21-.54-.14-.14-.46-.26-.96-.38-2.32-.51-3.8-.98-4.42-1.41-.86-.59-1.29-1.4-1.29-2.45,0-.94.37-1.74,1.12-2.38s1.9-.96,3.47-.96,2.6.24,3.32.73c.72.48,1.22,1.2,1.5,2.15l-2.72.5c-.12-.42-.34-.75-.66-.97-.32-.23-.79-.34-1.39-.34-.76,0-1.3.11-1.63.32-.22.15-.33.35-.33.58,0,.21.1.38.29.52.26.19,1.16.46,2.69.81,1.54.35,2.61.78,3.21,1.28.6.51.9,1.23.9,2.14,0,1-.42,1.86-1.25,2.57-.83.72-2.07,1.08-3.7,1.08-1.48,0-2.66-.3-3.52-.9-.87-.6-1.43-1.42-1.7-2.45Z"/>
    <path class="cls-5" d="M832.63,405.67l-2.61-.47c.29-1.05.8-1.83,1.52-2.34s1.78-.76,3.2-.76c1.29,0,2.24.15,2.87.46.63.3,1.07.69,1.33,1.16.26.47.38,1.33.38,2.58l-.03,3.36c0,.96.05,1.66.14,2.12.09.45.26.94.52,1.46h-2.85c-.08-.19-.17-.48-.28-.85-.05-.17-.08-.28-.1-.34-.49.48-1.02.84-1.58,1.08-.56.24-1.16.36-1.79.36-1.12,0-2-.3-2.65-.91-.65-.61-.97-1.38-.97-2.31,0-.62.15-1.16.44-1.65.29-.48.71-.85,1.24-1.11.53-.26,1.29-.48,2.29-.67,1.35-.25,2.28-.49,2.8-.71v-.29c0-.55-.14-.95-.41-1.18-.27-.24-.79-.35-1.55-.35-.51,0-.91.1-1.2.3-.29.2-.52.56-.7,1.06ZM831.36,400.97l2.15-3.02h2.67l2.12,3.02h-2.32l-1.19-1.53-1.11,1.53h-2.33ZM836.49,408c-.37.12-.95.27-1.75.44-.8.17-1.32.34-1.57.5-.38.27-.56.61-.56,1.02s.15.75.45,1.04c.3.29.68.44,1.15.44.52,0,1.01-.17,1.49-.51.35-.26.58-.58.69-.95.08-.25.11-.71.11-1.4v-.57Z"/>
    <path class="cls-5" d="M849.33,413.23v-1.63c-.4.58-.92,1.04-1.56,1.37-.65.34-1.33.5-2.05.5s-1.39-.16-1.97-.48c-.58-.32-1-.77-1.26-1.35-.26-.58-.39-1.38-.39-2.41v-6.89h2.88v5c0,1.53.05,2.47.16,2.81.11.35.3.62.58.82.28.2.64.3,1.07.3.49,0,.93-.13,1.32-.41.39-.27.66-.6.8-1,.14-.4.22-1.38.22-2.94v-4.59h2.88v10.89h-2.68Z"/>
    <path class="cls-5" d="M862.98,413.23l-3.59-15.03h3.11l2.27,10.33,2.75-10.33h3.61l2.63,10.5,2.31-10.5h3.06l-3.65,15.03h-3.22l-2.99-11.24-2.98,11.24h-3.29Z"/>
    <path class="cls-5" d="M881.03,404.44v-2.1h2.1v2.1h-2.1ZM881.03,413.23v-2.1h2.1v2.1h-2.1Z"/>
    <path class="cls-5" d="M896.22,411.58l.27,1.63c-.52.11-.98.16-1.39.16-.67,0-1.19-.11-1.56-.32-.37-.21-.63-.49-.78-.83s-.23-1.07-.23-2.18v-6.27h-1.35v-1.44h1.35v-2.7l1.84-1.11v3.8h1.86v1.44h-1.86v6.37c0,.53.03.87.1,1.02.07.15.17.27.32.36.15.09.36.13.63.13.21,0,.48-.02.81-.07Z"/>
    <path class="cls-5" d="M898.02,413.23v-15.03h1.85v5.39c.86-1,1.95-1.5,3.26-1.5.81,0,1.51.16,2.1.48.59.32,1.02.76,1.28,1.32.26.56.38,1.37.38,2.44v6.9h-1.85v-6.9c0-.92-.2-1.59-.6-2.01-.4-.42-.97-.63-1.7-.63-.55,0-1.06.14-1.54.42-.48.28-.83.67-1.03,1.15-.21.49-.31,1.16-.31,2.01v5.96h-1.85Z"/>
    <path class="cls-5" d="M919.76,404.49v-2.14h1.98v1.69c0,1.07-.12,1.82-.37,2.25-.63,1.09-1.59,1.71-2.88,1.85v5.11h-1.65v-1.6c-.85,1.23-2,1.85-3.46,1.85-.64,0-1.23-.12-1.79-.36-.56-.24-.97-.55-1.25-.93s-.46-.83-.57-1.37c-.08-.37-.11-.94-.11-1.72v-6.75h1.85v6.04c0,.98.04,1.63.11,1.95.24,1.04.95,1.56,2.13,1.56.57,0,1.09-.14,1.57-.43.48-.29.82-.67,1.02-1.16.2-.49.3-1.19.3-2.12v-5.83h1.85v5c.87-.15,1.52-.56,1.95-1.22.19-.29.29-.83.29-1.64h-.96Z"/>
    <path class="cls-5" d="M933.52,404.22v-2.14h1.98v1.69c0,.85-.13,1.5-.39,1.95-.33.59-.95,1.13-1.83,1.62v.3c0,2.54-.82,4.27-2.46,5.18-.81.45-1.69.67-2.64.67-1.56,0-2.79-.49-3.7-1.47-.94-1.01-1.4-2.42-1.4-4.22,0-2.02.56-3.51,1.68-4.48.94-.81,2.08-1.21,3.42-1.21,1.5,0,2.72.49,3.67,1.47.72.74,1.17,1.71,1.34,2.88.46-.29.8-.58,1-.89.2-.31.3-.75.29-1.33h-.96ZM924.97,407.79c0,1.35.3,2.39.91,3.13.57.7,1.34,1.05,2.3,1.05s1.72-.35,2.29-1.05c.61-.75.91-1.81.91-3.19,0-1.3-.31-2.32-.92-3.05-.57-.7-1.33-1.05-2.28-1.05s-1.73.35-2.3,1.04c-.61.74-.91,1.78-.91,3.13ZM929.42,400.99h-1.49l-2.37-2.87h2.47l1.38,2.87Z"/>
    <path class="cls-5" d="M937.53,413.23v-10.89h1.66v1.55c.8-1.2,1.96-1.79,3.47-1.79.66,0,1.26.12,1.81.35.55.24.96.54,1.24.93s.46.84.57,1.36c.07.34.1.94.1,1.79v6.7h-1.85v-6.62c0-.75-.07-1.31-.22-1.69-.14-.37-.4-.67-.76-.89-.37-.22-.79-.33-1.29-.33-.79,0-1.46.25-2.04.75-.57.5-.86,1.45-.86,2.84v5.95h-1.85Z"/>
    <path class="cls-5" d="M948.87,414.13l1.79.27c.08.55.28.96.63,1.21.46.34,1.08.51,1.88.51.85,0,1.51-.17,1.98-.51s.78-.82.94-1.44c.1-.38.14-1.17.13-2.37-.81.95-1.81,1.42-3.02,1.42-1.5,0-2.66-.54-3.48-1.62s-1.23-2.38-1.23-3.89c0-1.04.19-2,.56-2.88.38-.88.92-1.56,1.64-2.04.71-.48,1.55-.72,2.52-.72,1.29,0,2.34.52,3.18,1.56v-1.31h1.7v9.41c0,1.7-.17,2.9-.52,3.6-.35.71-.89,1.27-1.64,1.68-.75.41-1.67.62-2.76.62-1.3,0-2.35-.29-3.15-.88-.8-.58-1.19-1.46-1.16-2.64ZM950.4,407.59c0,1.43.28,2.47.85,3.13s1.28.98,2.13.98,1.56-.33,2.13-.98.86-1.68.86-3.07-.3-2.34-.89-3.01c-.59-.68-1.3-1.02-2.14-1.02s-1.52.33-2.09,1c-.57.67-.86,1.66-.86,2.97Z"/>
    <path class="cls-5" d="M970.76,411.58l.27,1.63c-.52.11-.98.16-1.39.16-.67,0-1.19-.11-1.56-.32-.37-.21-.63-.49-.78-.83s-.23-1.07-.23-2.18v-6.27h-1.35v-1.44h1.35v-2.7l1.84-1.11v3.8h1.86v1.44h-1.86v6.37c0,.53.03.87.1,1.02.07.15.17.27.32.36.15.09.36.13.63.13.21,0,.48-.02.81-.07Z"/>
    <path class="cls-5" d="M982.62,404.49v-2.14h1.98v1.69c0,1.07-.12,1.82-.37,2.25-.63,1.09-1.59,1.71-2.88,1.85v5.11h-1.65v-1.6c-.85,1.23-2,1.85-3.46,1.85-.64,0-1.23-.12-1.79-.36-.56-.24-.97-.55-1.25-.93s-.46-.83-.57-1.37c-.08-.37-.11-.94-.11-1.72v-6.75h1.85v6.04c0,.98.04,1.63.11,1.95.24,1.04.95,1.56,2.13,1.56.57,0,1.09-.14,1.57-.43.48-.29.82-.67,1.02-1.16.2-.49.3-1.19.3-2.12v-5.83h1.85v5c.87-.15,1.52-.56,1.95-1.22.19-.29.29-.83.29-1.64h-.96ZM978.22,400.99h-1.49l-2.37-2.87h2.47l1.38,2.87Z"/>
    <path class="cls-5" d="M992.06,400.17v-1.77h9.73v1.44c-.96,1.02-1.91,2.37-2.85,4.06-.94,1.69-1.67,3.42-2.18,5.21-.37,1.26-.61,2.63-.71,4.13h-1.9c.02-1.18.25-2.61.7-4.29s1.08-3.29,1.91-4.84c.83-1.56,1.71-2.87,2.65-3.93h-7.36Z"/>
    <path class="cls-5" d="M1003.62,409.3l1.94-.16c.14.94.48,1.65,1,2.13.52.47,1.15.71,1.89.71.89,0,1.64-.34,2.26-1.01s.92-1.56.92-2.67-.3-1.88-.89-2.49c-.59-.61-1.37-.91-2.32-.91-.59,0-1.13.14-1.61.41-.48.27-.85.62-1.13,1.05l-1.73-.23,1.46-7.72h7.47v1.76h-6l-.81,4.04c.9-.63,1.85-.94,2.84-.94,1.31,0,2.42.45,3.32,1.36.9.91,1.35,2.08,1.35,3.51s-.4,2.54-1.19,3.53c-.96,1.22-2.28,1.83-3.95,1.83-1.37,0-2.48-.38-3.35-1.15-.87-.77-1.36-1.78-1.48-3.05Z"/>
    <path class="cls-5" d="M1015.3,405.82c0-1.78.18-3.21.55-4.29.37-1.08.91-1.92,1.63-2.51.72-.59,1.63-.88,2.72-.88.81,0,1.51.16,2.12.49s1.11.79,1.51,1.4c.4.61.71,1.36.93,2.24.23.88.34,2.06.34,3.55,0,1.76-.18,3.19-.54,4.27s-.9,1.92-1.62,2.51c-.72.59-1.63.89-2.73.89-1.45,0-2.59-.52-3.42-1.56-.99-1.25-1.49-3.29-1.49-6.11ZM1017.2,405.82c0,2.47.29,4.11.87,4.93.58.82,1.29,1.23,2.14,1.23s1.56-.41,2.14-1.23c.58-.82.87-2.46.87-4.92s-.29-4.12-.87-4.93c-.58-.81-1.3-1.22-2.16-1.22s-1.52.36-2.03,1.08c-.64.92-.95,2.61-.95,5.08Z"/>
    <path class="cls-5" d="M1027,407.52v-2.1c.72-.82,1.67-1.23,2.85-1.23.41,0,.84.06,1.29.18s1.09.36,1.93.71c.47.2.83.33,1.06.39.24.06.47.09.71.09.44,0,.9-.13,1.38-.4.48-.27.9-.6,1.27-1.01v2.17c-.44.41-.88.71-1.33.89-.45.18-.95.28-1.51.28-.41,0-.8-.05-1.17-.14-.37-.1-.96-.32-1.77-.69-.81-.36-1.49-.54-2.03-.54-.44,0-.85.09-1.24.28-.39.19-.87.56-1.44,1.11Z"/>
    <path class="cls-5" d="M1046.2,413.23h-1.85v-11.76c-.45.42-1.03.85-1.75,1.27-.72.42-1.37.74-1.94.95v-1.78c1.03-.49,1.93-1.07,2.71-1.76.77-.69,1.32-1.36,1.64-2.01h1.19v15.09Z"/>
    <path class="cls-5" d="M1050.92,405.82c0-1.78.18-3.21.55-4.29.37-1.08.91-1.92,1.63-2.51.72-.59,1.63-.88,2.72-.88.81,0,1.51.16,2.12.49s1.11.79,1.51,1.4c.4.61.71,1.36.93,2.24.23.88.34,2.06.34,3.55,0,1.76-.18,3.19-.54,4.27s-.9,1.92-1.62,2.51c-.72.59-1.63.89-2.73.89-1.45,0-2.59-.52-3.42-1.56-.99-1.25-1.49-3.29-1.49-6.11ZM1052.82,405.82c0,2.47.29,4.11.87,4.93.58.82,1.29,1.23,2.14,1.23s1.56-.41,2.14-1.23c.58-.82.87-2.46.87-4.92s-.29-4.12-.87-4.93c-.58-.81-1.3-1.22-2.16-1.22s-1.52.36-2.03,1.08c-.64.92-.95,2.61-.95,5.08Z"/>
    <path class="cls-5" d="M1062.6,405.82c0-1.78.18-3.21.55-4.29.37-1.08.91-1.92,1.63-2.51.72-.59,1.63-.88,2.72-.88.81,0,1.51.16,2.12.49s1.11.79,1.51,1.4c.4.61.71,1.36.93,2.24.23.88.34,2.06.34,3.55,0,1.76-.18,3.19-.54,4.27s-.9,1.92-1.62,2.51c-.72.59-1.63.89-2.73.89-1.45,0-2.59-.52-3.42-1.56-.99-1.25-1.49-3.29-1.49-6.11ZM1064.5,405.82c0,2.47.29,4.11.87,4.93.58.82,1.29,1.23,2.14,1.23s1.56-.41,2.14-1.23c.58-.82.87-2.46.87-4.92s-.29-4.12-.87-4.93c-.58-.81-1.3-1.22-2.16-1.22s-1.52.36-2.03,1.08c-.64.92-.95,2.61-.95,5.08Z"/>
    <path class="cls-5" d="M1074.28,405.82c0-1.78.18-3.21.55-4.29.37-1.08.91-1.92,1.63-2.51.72-.59,1.63-.88,2.72-.88.81,0,1.51.16,2.12.49s1.11.79,1.51,1.4c.4.61.71,1.36.93,2.24.23.88.34,2.06.34,3.55,0,1.76-.18,3.19-.54,4.27s-.9,1.92-1.62,2.51c-.72.59-1.63.89-2.73.89-1.45,0-2.59-.52-3.42-1.56-.99-1.25-1.49-3.29-1.49-6.11ZM1076.18,405.82c0,2.47.29,4.11.87,4.93.58.82,1.29,1.23,2.14,1.23s1.56-.41,2.14-1.23c.58-.82.87-2.46.87-4.92s-.29-4.12-.87-4.93c-.58-.81-1.3-1.22-2.16-1.22s-1.52.36-2.03,1.08c-.64.92-.95,2.61-.95,5.08Z"/>
    <path class="cls-5" d="M754.51,443.23v-10.89h1.66v1.55c.8-1.2,1.96-1.79,3.47-1.79.66,0,1.26.12,1.81.35.55.24.96.54,1.24.93s.46.84.57,1.36c.07.34.1.94.1,1.79v6.7h-1.85v-6.62c0-.75-.07-1.31-.22-1.69-.14-.37-.4-.67-.76-.89-.37-.22-.79-.33-1.29-.33-.79,0-1.46.25-2.04.75-.57.5-.86,1.45-.86,2.84v5.95h-1.85Z"/>
    <path class="cls-5" d="M766.19,443.23v-15.03h1.85v5.39c.86-1,1.95-1.5,3.26-1.5.81,0,1.51.16,2.1.48.59.32,1.02.76,1.28,1.32.26.56.38,1.37.38,2.44v6.9h-1.85v-6.9c0-.92-.2-1.59-.6-2.01-.4-.42-.97-.63-1.7-.63-.55,0-1.06.14-1.54.42-.48.28-.83.67-1.03,1.15-.21.49-.31,1.16-.31,2.01v5.96h-1.85Z"/>
    <path class="cls-5" d="M787.93,434.49v-2.14h1.98v1.69c0,1.07-.12,1.82-.37,2.25-.63,1.09-1.59,1.71-2.88,1.85v5.11h-1.65v-1.6c-.85,1.23-2,1.85-3.46,1.85-.64,0-1.23-.12-1.79-.36-.56-.24-.97-.55-1.25-.93s-.46-.83-.57-1.37c-.08-.37-.11-.94-.11-1.72v-6.75h1.85v6.04c0,.98.04,1.63.11,1.95.24,1.04.95,1.56,2.13,1.56.57,0,1.09-.14,1.57-.43.48-.29.82-.67,1.02-1.16.2-.49.3-1.19.3-2.12v-5.83h1.85v5c.87-.15,1.52-.56,1.95-1.22.19-.29.29-.83.29-1.64h-.96Z"/>
    <path class="cls-5" d="M791.93,443.23v-10.89h1.66v1.55c.8-1.2,1.96-1.79,3.47-1.79.66,0,1.26.12,1.81.35.55.24.96.54,1.24.93s.46.84.57,1.36c.07.34.1.94.1,1.79v6.7h-1.85v-6.62c0-.75-.07-1.31-.22-1.69-.14-.37-.4-.67-.76-.89-.37-.22-.79-.33-1.29-.33-.79,0-1.46.25-2.04.75-.57.5-.86,1.45-.86,2.84v5.95h-1.85Z"/>
    <path class="cls-5" d="M803.27,444.13l1.79.27c.08.55.28.96.63,1.21.46.34,1.08.51,1.88.51.85,0,1.51-.17,1.98-.51s.78-.82.94-1.44c.1-.38.14-1.17.13-2.37-.81.95-1.81,1.42-3.02,1.42-1.5,0-2.66-.54-3.48-1.62s-1.23-2.38-1.23-3.89c0-1.04.19-2,.56-2.88.38-.88.92-1.56,1.64-2.04.71-.48,1.55-.72,2.52-.72,1.29,0,2.34.52,3.18,1.56v-1.31h1.7v9.41c0,1.7-.17,2.9-.52,3.6-.35.71-.89,1.27-1.64,1.68-.75.41-1.67.62-2.76.62-1.3,0-2.35-.29-3.15-.88-.8-.58-1.19-1.46-1.16-2.64ZM804.8,437.59c0,1.43.28,2.47.85,3.13s1.28.98,2.13.98,1.56-.33,2.13-.98.86-1.68.86-3.07-.3-2.34-.89-3.01c-.59-.68-1.3-1.02-2.14-1.02s-1.52.33-2.09,1c-.57.67-.86,1.66-.86,2.97Z"/>
    <path class="cls-5" d="M821.12,447.41v-15.06h1.68v1.42c.4-.55.84-.97,1.34-1.25.5-.28,1.1-.42,1.82-.42.93,0,1.75.24,2.46.72.71.48,1.25,1.15,1.61,2.03.36.87.54,1.83.54,2.87,0,1.11-.2,2.12-.6,3.01-.4.89-.98,1.58-1.74,2.05-.76.48-1.56.71-2.4.71-.62,0-1.17-.13-1.66-.39-.49-.26-.89-.59-1.2-.98v5.3h-1.85ZM822.79,437.85c0,1.4.28,2.44.85,3.11s1.25,1,2.06,1,1.52-.35,2.11-1.04c.58-.69.88-1.77.88-3.22s-.29-2.43-.86-3.12c-.57-.69-1.25-1.04-2.05-1.04s-1.48.37-2.09,1.1c-.6.74-.91,1.8-.91,3.2Z"/>
    <path class="cls-5" d="M832.8,443.23v-15.03h1.85v5.39c.86-1,1.95-1.5,3.26-1.5.81,0,1.51.16,2.1.48.59.32,1.02.76,1.28,1.32.26.56.38,1.37.38,2.44v6.9h-1.85v-6.9c0-.92-.2-1.59-.6-2.01-.4-.42-.97-.63-1.7-.63-.55,0-1.06.14-1.54.42-.48.28-.83.67-1.03,1.15-.21.49-.31,1.16-.31,2.01v5.96h-1.85Z"/>
    <path class="cls-5" d="M843.79,437.79c0-2.02.56-3.51,1.68-4.48.94-.81,2.08-1.21,3.42-1.21,1.5,0,2.72.49,3.67,1.47s1.43,2.34,1.43,4.07c0,1.4-.21,2.5-.63,3.31-.42.8-1.03,1.43-1.84,1.87-.8.45-1.68.67-2.63.67-1.52,0-2.76-.49-3.7-1.47-.94-.98-1.41-2.39-1.41-4.22ZM848.92,429.25l-1.16,1.74h-2.11l2.21-2.87h1.97l2.31,2.87h-2.09l-1.13-1.74ZM845.69,437.79c0,1.39.3,2.44.91,3.13.61.69,1.37,1.04,2.3,1.04s1.68-.35,2.29-1.05.91-1.76.91-3.19c0-1.35-.31-2.37-.92-3.06-.61-.69-1.37-1.04-2.28-1.04s-1.69.35-2.3,1.04-.91,1.73-.91,3.13ZM849.05,426.47c.36-.09.55-.23.55-.42,0-.16-.09-.29-.29-.4-.29-.16-.74-.24-1.36-.24-.21,0-.53.01-.96.04l-.11-.96c.27-.05.76-.08,1.48-.07.84,0,1.53.14,2.06.41.59.29.89.66.9,1.12.03.69-.59,1.11-1.87,1.27v.51h-1.15v-1.15c.39-.04.64-.08.75-.11Z"/>
    <path class="cls-5" d="M863.7,443.23h-1.71v-15.03h1.85v5.36c.78-.98,1.77-1.47,2.98-1.47.67,0,1.3.13,1.9.41.6.27,1.09.65,1.48,1.14.39.49.69,1.08.91,1.77.22.69.33,1.43.33,2.21,0,1.87-.46,3.31-1.38,4.33-.92,1.02-2.03,1.53-3.32,1.53s-2.29-.54-3.03-1.61v1.36ZM863.68,437.71c0,1.3.18,2.25.53,2.83.58.95,1.37,1.42,2.36,1.42.81,0,1.5-.35,2.09-1.05s.88-1.75.88-3.13-.28-2.47-.85-3.15c-.56-.68-1.25-1.02-2.05-1.02s-1.5.35-2.09,1.05c-.59.7-.88,1.71-.88,3.04Z"/>
    <path class="cls-5" d="M873.68,430.32v-2.12h1.85v2.12h-1.85ZM873.68,443.23v-10.89h1.85v10.89h-1.85Z"/>
    <path class="cls-5" d="M885.79,439.73l1.91.24c-.3,1.11-.86,1.98-1.67,2.59s-1.85.92-3.12.92c-1.59,0-2.86-.49-3.79-1.47-.93-.98-1.4-2.36-1.4-4.13s.47-3.25,1.41-4.27,2.17-1.52,3.67-1.52,2.64.5,3.57,1.49c.92.99,1.38,2.39,1.38,4.18,0,.11,0,.27-.01.49h-8.12c.07,1.2.41,2.11,1.02,2.75.61.64,1.37.95,2.28.95.68,0,1.25-.18,1.73-.53.48-.36.86-.92,1.14-1.7ZM882.77,429.25l-1.16,1.74h-2.11l2.21-2.87h1.97l2.31,2.87h-2.09l-1.13-1.74ZM879.73,436.74h6.08c-.08-.92-.31-1.6-.7-2.06-.59-.71-1.35-1.07-2.29-1.07-.85,0-1.56.28-2.14.85-.58.57-.9,1.33-.96,2.28ZM883.1,424.5h2.47l-2.37,2.87h-1.49l1.38-2.87Z"/>
    <path class="cls-5" d="M890.02,443.23v-10.89h1.66v1.55c.8-1.2,1.96-1.79,3.47-1.79.66,0,1.26.12,1.81.35.55.24.96.54,1.24.93s.46.84.57,1.36c.07.34.1.94.1,1.79v6.7h-1.85v-6.62c0-.75-.07-1.31-.22-1.69-.14-.37-.4-.67-.76-.89-.37-.22-.79-.33-1.29-.33-.79,0-1.46.25-2.04.75-.57.5-.86,1.45-.86,2.84v5.95h-1.85Z"/>
    <path class="cls-5" d="M907.49,443.23v-15.03h1.85v15.03h-1.85Z"/>
    <path class="cls-5" d="M919.3,441.89c-.68.58-1.34.99-1.97,1.23-.63.24-1.31.36-2.04.36-1.2,0-2.12-.29-2.76-.88-.64-.58-.96-1.33-.96-2.24,0-.53.12-1.02.36-1.46.24-.44.56-.79.95-1.06.39-.27.84-.47,1.33-.61.36-.1.91-.19,1.64-.28,1.49-.18,2.59-.39,3.29-.64,0-.25.01-.41.01-.48,0-.75-.17-1.28-.52-1.59-.47-.42-1.17-.63-2.1-.63-.87,0-1.51.15-1.92.46-.41.3-.72.84-.92,1.62l-1.8-.25c.16-.77.43-1.4.81-1.87.38-.47.92-.84,1.63-1.1.71-.26,1.53-.38,2.47-.38s1.68.11,2.27.33,1.01.49,1.28.83c.27.33.46.75.57,1.26.06.31.09.88.09,1.7v2.46c0,1.72.04,2.8.12,3.26.08.46.23.89.47,1.31h-1.93c-.19-.38-.31-.83-.37-1.34ZM919.15,437.77c-.67.27-1.67.51-3.01.7-.76.11-1.3.23-1.61.37s-.56.34-.73.6c-.17.26-.26.56-.26.88,0,.49.19.9.56,1.23.37.33.92.49,1.64.49s1.34-.15,1.9-.47c.55-.31.96-.74,1.22-1.28.2-.42.3-1.03.3-1.85v-.68ZM918.15,430.99h-1.49l-2.37-2.87h2.47l1.38,2.87Z"/>
    <path class="cls-5" d="M929.32,430.17v-1.77h9.73v1.44c-.96,1.02-1.91,2.37-2.85,4.06-.94,1.69-1.67,3.42-2.18,5.21-.37,1.26-.61,2.63-.71,4.13h-1.9c.02-1.18.25-2.61.7-4.29s1.08-3.29,1.91-4.84c.83-1.56,1.71-2.87,2.65-3.93h-7.36Z"/>
    <path class="cls-5" d="M940.88,439.3l1.94-.16c.14.94.48,1.65,1,2.13.52.47,1.15.71,1.89.71.89,0,1.64-.34,2.26-1.01s.92-1.56.92-2.67-.3-1.88-.89-2.49c-.59-.61-1.37-.91-2.32-.91-.59,0-1.13.14-1.61.41-.48.27-.85.62-1.13,1.05l-1.73-.23,1.46-7.72h7.47v1.76h-6l-.81,4.04c.9-.63,1.85-.94,2.84-.94,1.31,0,2.42.45,3.32,1.36.9.91,1.35,2.08,1.35,3.51s-.4,2.54-1.19,3.53c-.96,1.22-2.28,1.83-3.95,1.83-1.37,0-2.48-.38-3.35-1.15-.87-.77-1.36-1.78-1.48-3.05Z"/>
    <path class="cls-5" d="M952.56,435.82c0-1.78.18-3.21.55-4.29.37-1.08.91-1.92,1.63-2.51.72-.59,1.63-.88,2.72-.88.81,0,1.51.16,2.12.49s1.11.79,1.51,1.4c.4.61.71,1.36.93,2.24.23.88.34,2.06.34,3.55,0,1.76-.18,3.19-.54,4.27s-.9,1.92-1.62,2.51c-.72.59-1.63.89-2.73.89-1.45,0-2.59-.52-3.42-1.56-.99-1.25-1.49-3.29-1.49-6.11ZM954.46,435.82c0,2.47.29,4.11.87,4.93.58.82,1.29,1.23,2.14,1.23s1.56-.41,2.14-1.23c.58-.82.87-2.46.87-4.92s-.29-4.12-.87-4.93c-.58-.81-1.3-1.22-2.16-1.22s-1.52.36-2.03,1.08c-.64.92-.95,2.61-.95,5.08Z"/>
    <path class="cls-5" d="M970.59,443.23v-15.03h1.85v5.39c.86-1,1.95-1.5,3.26-1.5.81,0,1.51.16,2.1.48.59.32,1.02.76,1.28,1.32.26.56.38,1.37.38,2.44v6.9h-1.85v-6.9c0-.92-.2-1.59-.6-2.01-.4-.42-.97-.63-1.7-.63-.55,0-1.06.14-1.54.42-.48.28-.83.67-1.03,1.15-.21.49-.31,1.16-.31,2.01v5.96h-1.85Z"/>
    <path class="cls-5" d="M981.58,437.79c0-2.02.56-3.51,1.68-4.48.94-.81,2.08-1.21,3.42-1.21,1.5,0,2.72.49,3.67,1.47s1.43,2.34,1.43,4.07c0,1.4-.21,2.5-.63,3.31-.42.8-1.03,1.43-1.84,1.87-.8.45-1.68.67-2.63.67-1.52,0-2.76-.49-3.7-1.47-.94-.98-1.41-2.39-1.41-4.22ZM983.47,437.79c0,1.39.3,2.44.91,3.13.61.69,1.37,1.04,2.3,1.04s1.68-.35,2.29-1.05.91-1.76.91-3.19c0-1.35-.31-2.37-.92-3.06-.61-.69-1.37-1.04-2.28-1.04s-1.69.35-2.3,1.04-.91,1.73-.91,3.13Z"/>
    <path class="cls-5" d="M1001.05,441.89c-.68.58-1.34.99-1.97,1.23-.63.24-1.31.36-2.04.36-1.2,0-2.12-.29-2.76-.88-.64-.58-.96-1.33-.96-2.24,0-.53.12-1.02.36-1.46.24-.44.56-.79.95-1.06.39-.27.84-.47,1.33-.61.36-.1.91-.19,1.64-.28,1.49-.18,2.59-.39,3.29-.64,0-.25.01-.41.01-.48,0-.75-.17-1.28-.52-1.59-.47-.42-1.17-.63-2.1-.63-.87,0-1.51.15-1.92.46-.41.3-.72.84-.92,1.62l-1.8-.25c.16-.77.43-1.4.81-1.87.38-.47.92-.84,1.63-1.1.71-.26,1.53-.38,2.47-.38s1.68.11,2.27.33,1.01.49,1.28.83c.27.33.46.75.57,1.26.06.31.09.88.09,1.7v2.46c0,1.72.04,2.8.12,3.26.08.46.23.89.47,1.31h-1.93c-.19-.38-.31-.83-.37-1.34ZM1000.9,437.77c-.67.27-1.67.51-3.01.7-.76.11-1.3.23-1.61.37s-.56.34-.73.6c-.17.26-.26.56-.26.88,0,.49.19.9.56,1.23.37.33.92.49,1.64.49s1.34-.15,1.9-.47c.55-.31.96-.74,1.22-1.28.2-.42.3-1.03.3-1.85v-.68ZM1000.34,428.22h1.26c-.1.85-.42,1.51-.94,1.97-.52.46-1.22.69-2.09.69s-1.57-.23-2.1-.68c-.52-.45-.84-1.11-.94-1.97h1.26c.1.46.29.81.57,1.04.28.23.66.34,1.14.34.55,0,.97-.11,1.26-.33.28-.22.47-.57.57-1.05ZM997.26,446.57v-2.1h2.1v2.1h-2.1Z"/>
    <path class="cls-5" d="M1012.73,439.24l1.81.24c-.2,1.25-.71,2.23-1.52,2.94-.82.71-1.82,1.06-3.01,1.06-1.49,0-2.69-.49-3.59-1.46-.91-.97-1.36-2.37-1.36-4.19,0-1.18.2-2.21.58-3.09.39-.88.98-1.54,1.78-1.98.8-.44,1.66-.66,2.6-.66,1.18,0,2.15.3,2.9.9.75.6,1.23,1.45,1.45,2.55l-1.79.28c-.17-.73-.47-1.28-.91-1.65-.43-.37-.96-.55-1.57-.55-.93,0-1.69.33-2.27,1-.58.67-.87,1.72-.87,3.16s.28,2.53.84,3.19c.56.66,1.29,1,2.19,1,.72,0,1.33-.22,1.82-.67.49-.44.79-1.13.92-2.05Z"/>
    <path class="cls-5" d="M1021.72,439.76l1.77-.16c.15.83.44,1.44.86,1.81s.97.56,1.63.56c.57,0,1.06-.13,1.49-.39.43-.26.78-.61,1.05-1.04s.5-1.02.69-1.76c.18-.74.28-1.49.28-2.26,0-.08,0-.21-.01-.37-.37.59-.87,1.06-1.51,1.43-.64.37-1.33.55-2.08.55-1.25,0-2.3-.45-3.16-1.35s-1.29-2.09-1.29-3.57.45-2.75,1.35-3.68c.9-.93,2.03-1.39,3.38-1.39.98,0,1.87.26,2.68.79.81.53,1.42,1.28,1.85,2.25.42.97.63,2.38.63,4.23s-.21,3.45-.62,4.59c-.42,1.14-1.04,2-1.86,2.6-.82.59-1.79.89-2.9.89-1.18,0-2.14-.33-2.88-.98-.75-.65-1.19-1.57-1.34-2.75ZM1029.28,433.12c0-1.06-.28-1.9-.85-2.52-.56-.62-1.24-.93-2.04-.93s-1.54.33-2.14,1c-.61.67-.91,1.54-.91,2.61,0,.96.29,1.73.87,2.33.58.6,1.29.9,2.14.9s1.56-.3,2.11-.9c.55-.6.83-1.43.83-2.49Z"/>
    <path class="cls-5" d="M1033.25,430.17v-1.77h9.73v1.44c-.96,1.02-1.91,2.37-2.85,4.06-.94,1.69-1.67,3.42-2.18,5.21-.37,1.26-.61,2.63-.71,4.13h-1.9c.02-1.18.25-2.61.7-4.29s1.08-3.29,1.91-4.84c.83-1.56,1.71-2.87,2.65-3.93h-7.36Z"/>
    <path class="cls-5" d="M1044.8,435.82c0-1.78.18-3.21.55-4.29.37-1.08.91-1.92,1.63-2.51.72-.59,1.63-.88,2.72-.88.81,0,1.51.16,2.12.49s1.11.79,1.51,1.4c.4.61.71,1.36.93,2.24.23.88.34,2.06.34,3.55,0,1.76-.18,3.19-.54,4.27s-.9,1.92-1.62,2.51c-.72.59-1.63.89-2.73.89-1.45,0-2.59-.52-3.42-1.56-.99-1.25-1.49-3.29-1.49-6.11ZM1046.7,435.82c0,2.47.29,4.11.87,4.93.58.82,1.29,1.23,2.14,1.23s1.56-.41,2.14-1.23c.58-.82.87-2.46.87-4.92s-.29-4.12-.87-4.93c-.58-.81-1.3-1.22-2.16-1.22s-1.52.36-2.03,1.08c-.64.92-.95,2.61-.95,5.08Z"/>
  </g>
  <rect class="cls-5" x="97.61" y="356.89" width="151.27" height="5.37"/>
  <image width="1230" height="371" transform="translate(991.6 596.92) scale(.15)" xlink:href="../ドキュメント/K/Logo Kurashi/lOGO-01.png"/>
</svg>