<?xml version="1.0" encoding="UTF-8"?>
<svg id="Layer_1" data-name="Layer 1" xmlns="http://www.w3.org/2000/svg" viewBox="0 0 1200 675">
  <defs>
    <style>
      .cls-1, .cls-2, .cls-3, .cls-4, .cls-5, .cls-6, .cls-7, .cls-8, .cls-9, .cls-10, .cls-11, .cls-12, .cls-13, .cls-14, .cls-15 {
        fill: none;
      }

      .cls-1, .cls-2, .cls-3, .cls-4, .cls-5, .cls-6, .cls-7, .cls-8, .cls-9, .cls-10, .cls-11, .cls-12, .cls-13, .cls-14, .cls-15, .cls-16 {
        stroke-miterlimit: 10;
      }

      .cls-1, .cls-2, .cls-7 {
        stroke: #000;
      }

      .cls-1, .cls-3, .cls-4, .cls-5, .cls-6, .cls-9, .cls-10, .cls-11, .cls-13, .cls-14, .cls-16 {
        stroke-width: .5px;
      }

      .cls-3 {
        stroke-dasharray: 2.98 2.98;
      }

      .cls-3, .cls-4, .cls-6, .cls-11, .cls-13, .cls-14 {
        stroke: #666;
      }

      .cls-17, .cls-18, .cls-19, .cls-20, .cls-21 {
        font-family: ArialMT, Arial;
      }

      .cls-17, .cls-19 {
        font-size: 32px;
      }

      .cls-22 {
        fill: #fff;
      }

      .cls-4 {
        stroke-dasharray: 3.08 3.08;
      }

      .cls-23, .cls-24 {
        font-family: Arial-BoldMT, Arial;
        font-size: 27.73px;
        font-weight: 700;
      }

      .cls-18 {
        font-size: 21px;
      }

      .cls-19, .cls-16 {
        fill: #4d4d4d;
      }

      .cls-5, .cls-9, .cls-10 {
        stroke: gray;
      }

      .cls-7 {
        stroke-dasharray: 5.87 5.87;
      }

      .cls-8 {
        stroke: #999;
      }

      .cls-9 {
        stroke-dasharray: 3 3;
      }

      .cls-20, .cls-21 {
        font-size: 24px;
      }

      .cls-25 {
        fill: #006837;
      }

      .cls-10 {
        stroke-dasharray: 2.95 2.95;
      }

      .cls-11 {
        stroke-dasharray: 3 3;
      }

      .cls-24 {
        letter-spacing: -.02em;
      }

      .cls-26 {
        fill: #ccc;
      }

      .cls-27 {
        fill: #b3b3b3;
      }

      .cls-12 {
        stroke: #b3b3b3;
      }

      .cls-13 {
        stroke-dasharray: 2.9 2.9;
      }

      .cls-28, .cls-21 {
        letter-spacing: -.04em;
      }

      .cls-14 {
        stroke-dasharray: 2.97 2.97;
      }

      .cls-15 {
        stroke: #333;
      }

      .cls-16 {
        stroke: #4d4d4d;
      }
    </style>
  </defs>
  <g>
    <rect class="cls-22" x="144.49" y="254.59" width="309.49" height="279.14"/>
    <path d="M453.48,255.09v278.14H144.99V255.09h308.49M454.48,254.09H143.99v280.14h310.49V254.09h0Z"/>
  </g>
  <g>
    <rect class="cls-26" x="161.5" y="534.72" width="292.47" height="36.7"/>
    <path d="M453.48,535.22v35.7H162v-35.7h291.48M454.48,534.22H161v37.7h293.48v-37.7h0Z"/>
  </g>
  <g>
    <rect class="cls-26" x="138.93" y="241.79" width="315.04" height="11.79"/>
    <path d="M453.48,242.29v10.79H139.43v-10.79h314.04M454.48,241.29H138.43v12.79h316.04v-12.79h0Z"/>
  </g>
  <g>
    <rect class="cls-25" x="396.56" y="477.85" width="57.42" height="93.58"/>
    <path d="M453.48,478.35v92.58h-56.42v-92.58h56.42M454.48,477.35h-58.42v94.58h58.42v-94.58h0Z"/>
  </g>
  <line class="cls-16" x1="453.55" y1="582.74" x2="453.55" y2="618.36"/>
  <g>
    <line class="cls-2" x1="453.05" y1="628.73" x2="396.56" y2="628.73"/>
    <rect x="452.55" y="625.48" width="1" height="6.5"/>
    <rect x="396.06" y="625.48" width="1" height="6.5"/>
  </g>
  <text class="cls-24" transform="translate(417.98 612.77)"><tspan x="0" y="0">L</tspan></text>
  <line class="cls-16" x1="396.25" y1="583.93" x2="396.25" y2="619.55"/>
  <g>
    <line class="cls-2" x1="501.08" y1="478.88" x2="501.08" y2="571.99"/>
    <rect x="497.83" y="478.38" width="6.5" height="1"/>
    <rect x="497.83" y="571.49" width="6.5" height="1"/>
  </g>
  <text class="cls-23" transform="translate(512.78 535.63)"><tspan x="0" y="0">G</tspan></text>
  <g>
    <line class="cls-2" x1="396.06" y1="477.35" x2="396.06" y2="474.35"/>
    <line class="cls-7" x1="396.06" y1="468.48" x2="396.06" y2="260.02"/>
    <line class="cls-2" x1="396.06" y1="257.09" x2="396.06" y2="254.09"/>
  </g>
  <line class="cls-1" x1="417.98" y1="509.45" x2="330.69" y2="416.27"/>
  <text class="cls-17" transform="translate(206.62 385.8)"><tspan x="0" y="0">Khu che</tspan><tspan x="15.12" y="38.4" xml:space="preserve"> bộ xả</tspan></text>
  <line class="cls-15" x1="56.73" y1="57.85" x2="570.12" y2="57.85"/>
  <line class="cls-15" x1="56.73" y1="200.9" x2="570.12" y2="200.9"/>
  <line class="cls-15" x1="56.73" y1="105.53" x2="570.12" y2="105.53"/>
  <line class="cls-15" x1="56.73" y1="153.22" x2="570.12" y2="153.22"/>
  <line class="cls-15" x1="56.73" y1="57.85" x2="56.73" y2="200.9"/>
  <line class="cls-15" x1="570.12" y1="57.85" x2="570.12" y2="200.9"/>
  <line class="cls-15" x1="149.3" y1="57.85" x2="148.4" y2="200.9"/>
  <line class="cls-15" x1="360.38" y1="57.85" x2="360.38" y2="200.9"/>
  <text class="cls-20" transform="translate(78.31 89.17)"><tspan x="0" y="0">Kí tự</tspan></text>
  <text class="cls-20" transform="translate(167.83 89.17)"><tspan x="0" y="0">Loại kích thước</tspan></text>
  <text class="cls-20" transform="translate(374.66 89.17)"><tspan x="0" y="0">Kích thước chuẩn</tspan></text>
  <text class="cls-20" transform="translate(91.76 135.89)"><tspan x="0" y="0">G</tspan></text>
  <text class="cls-21" transform="translate(94.42 185.18)"><tspan x="0" y="0">L</tspan></text>
  <text class="cls-20" transform="translate(204.29 135.89)"><tspan x="0" y="0">Chiều cao</tspan></text>
  <text class="cls-20" transform="translate(201.47 187.86)"><tspan x="0" y="0">Chiều sâu</tspan></text>
  <text class="cls-20" transform="translate(412.09 138.49)"><tspan class="cls-28" x="0" y="0">T</tspan><tspan x="13.77" y="0">rên 100</tspan></text>
  <text class="cls-20" transform="translate(422.63 184.23)"><tspan x="0" y="0">70~100</tspan></text>
  <rect class="cls-2" x="758.99" y="241.29" width="296.5" height="331.2"/>
  <rect class="cls-25" x="776.19" y="258.59" width="85" height="20"/>
  <circle class="cls-25" cx="864.19" cy="454.4" r="56.91"/>
  <circle class="cls-25" cx="1027.31" cy="545.89" r="16.77"/>
  <circle class="cls-25" cx="1033.68" cy="288.99" r="10.4"/>
  <circle class="cls-25" cx="1033.68" cy="317.23" r="10.4"/>
  <g>
    <line class="cls-6" x1="1033.68" y1="264.23" x2="1033.68" y2="265.73"/>
    <line class="cls-14" x1="1033.68" y1="268.7" x2="1033.68" y2="344.43"/>
    <line class="cls-6" x1="1033.68" y1="345.91" x2="1033.68" y2="347.41"/>
  </g>
  <g>
    <line class="cls-6" x1="1012.33" y1="288.99" x2="1013.83" y2="288.99"/>
    <line class="cls-13" x1="1016.73" y1="288.99" x2="1050.07" y2="288.99"/>
    <line class="cls-6" x1="1051.52" y1="288.99" x2="1053.02" y2="288.99"/>
  </g>
  <g>
    <line class="cls-6" x1="1015.01" y1="317.23" x2="1016.51" y2="317.23"/>
    <line class="cls-11" x1="1019.51" y1="317.23" x2="1048.01" y2="317.23"/>
    <line class="cls-6" x1="1049.51" y1="317.23" x2="1051.01" y2="317.23"/>
  </g>
  <g>
    <line class="cls-6" x1="1026.01" y1="516.68" x2="1026.01" y2="518.18"/>
    <line class="cls-3" x1="1026.01" y1="521.15" x2="1026.01" y2="585.12"/>
    <line class="cls-6" x1="1026.01" y1="586.61" x2="1026.01" y2="588.11"/>
  </g>
  <g>
    <line class="cls-6" x1="989.78" y1="545.89" x2="991.28" y2="545.89"/>
    <line class="cls-4" x1="994.36" y1="545.89" x2="1060.53" y2="545.89"/>
    <line class="cls-6" x1="1062.07" y1="545.89" x2="1063.57" y2="545.89"/>
  </g>
  <g>
    <line class="cls-5" x1="864.19" y1="371.95" x2="864.19" y2="373.45"/>
    <line class="cls-9" x1="864.19" y1="376.45" x2="864.19" y2="542.89"/>
    <line class="cls-5" x1="864.19" y1="544.39" x2="864.19" y2="545.89"/>
  </g>
  <g>
    <line class="cls-5" x1="776.19" y1="454.4" x2="777.69" y2="454.4"/>
    <line class="cls-10" x1="780.64" y1="454.4" x2="944.55" y2="454.4"/>
    <line class="cls-5" x1="946.02" y1="454.4" x2="947.52" y2="454.4"/>
  </g>
  <text class="cls-18" transform="translate(1106.78 264.1)"><tspan x="0" y="0">ống</tspan><tspan x="-30.25" y="25.2" xml:space="preserve"> cấp nước</tspan></text>
  <line class="cls-12" x1="1182.32" y1="301.39" x2="1040.39" y2="301.39"/>
  <line class="cls-12" x1="1175.88" y1="545.89" x2="1071.56" y2="545.89"/>
  <text class="cls-18" transform="translate(1087.14 528.6)"><tspan x="0" y="0">ống gas</tspan></text>
  <text class="cls-18" transform="translate(758.23 206.11)"><tspan x="0" y="0">đường dây điện</tspan></text>
  <line class="cls-8" x1="813.83" y1="247.69" x2="832.28" y2="211.88"/>
  <text class="cls-18" transform="translate(734.03 624.4)"><tspan x="0" y="0">đường ống </tspan><tspan x=".59" y="25.2">thoát nước</tspan></text>
  <line class="cls-12" x1="836.19" y1="516.68" x2="791.47" y2="607.97"/>
  <rect class="cls-27" x="758.92" y="57.85" width="296.56" height="102.8"/>
  <text class="cls-19" transform="translate(778.38 100.6)"><tspan x="0" y="0">Khu đi đường ống </tspan><tspan x="47.02" y="38.4">và dây điện</tspan></text>
</svg>