<?xml version="1.0" encoding="UTF-8"?>
<svg xmlns="http://www.w3.org/2000/svg" xmlns:xlink="http://www.w3.org/1999/xlink" viewBox="0 0 1920 1080">
  <defs>
    <style>
      .cls-1, .cls-2 {
        fill: none;
      }

      .cls-1, .cls-2, .cls-3 {
        stroke: #000;
      }

      .cls-1, .cls-2, .cls-3, .cls-4 {
        stroke-miterlimit: 10;
      }

      .cls-1, .cls-3, .cls-4 {
        stroke-width: .5px;
      }

      .cls-5 {
        letter-spacing: -.04em;
      }

      .cls-5, .cls-6, .cls-7, .cls-8, .cls-9, .cls-10 {
        font-family: Arial-BoldMT, Arial;
        font-weight: 700;
      }

      .cls-5, .cls-7, .cls-8 {
        font-size: 30px;
      }

      .cls-11, .cls-12 {
        mix-blend-mode: multiply;
      }

      .cls-11, .cls-12, .cls-13, .cls-14 {
        fill: #e6e6e6;
      }

      .cls-15 {
        font-size: 27.27px;
      }

      .cls-15, .cls-16, .cls-17, .cls-18 {
        font-family: ArialMT, Arial;
      }

      .cls-16 {
        font-size: 36px;
      }

      .cls-16, .cls-19 {
        fill: #fff;
      }

      .cls-16, .cls-18 {
        opacity: .95;
      }

      .cls-6, .cls-20 {
        letter-spacing: -.04em;
      }

      .cls-6, .cls-17, .cls-18, .cls-9, .cls-10 {
        font-size: 26.75px;
      }

      .cls-7, .cls-21 {
        letter-spacing: -.02em;
      }

      .cls-22 {
        isolation: isolate;
      }

      .cls-12 {
        opacity: .5;
      }

      .cls-23 {
        fill: #ccc;
      }

      .cls-24 {
        fill: gray;
      }

      .cls-3 {
        fill: #437355;
      }

      .cls-25, .cls-9 {
        letter-spacing: -.02em;
      }

      .cls-13 {
        mix-blend-mode: screen;
      }

      .cls-4 {
        fill: #4d4d4d;
        stroke: #4d4d4d;
      }
    </style>
  </defs>
  <g class="cls-22">
    <g id="Layer_1" data-name="Layer 1">
      <g>
        <g>
          <path class="cls-14" d="M405.17,980.61s-2.41-1.43-5.98-2.44c-3.82-1.08-31.95-15.83-35.82-16.96-1.33-.39-.42-12.72-.42-18.8h-20.41c.7,4.61,1.74,16.81,1.74,19.7,0,10.88-3.62,15.56-1.41,20.2,2.18,4.59,5.63,5.08,9.49,4.87,5.08-.28,11.65-1.81,17.05-.82,5.4,1,15.76,2.75,21.01,1.69l4.35-1.15s6.63,1.65,10.89,1c0,0,3.75-.65,3.86-2.23.11-1.58-.29-3.99-4.36-5.06Z"/>
          <path class="cls-12" d="M361.08,942.41c.06.85.08,1.71.08,2.55.01,2.85-.25,5.68-.33,8.52-.08,2.87-.02,5.74.07,8.61,0,.25.02.51.02.76,0,.17.33.16.43.18.33.06.66.13.99.21.66.16,1.31.35,1.96.58,1.31.46,2.59,1.02,3.84,1.64,2.57,1.28,5.02,2.8,7.59,4.08,2.86,1.43,5.77,2.77,8.75,3.92,2.65,1.02,5.37,1.85,8.07,2.74,1.58.52,3.23,1.05,4.9,1.3-7.28-3.13-30.59-15.27-34.08-16.29-1.33-.39-.42-12.72-.42-18.8h-1.87Z"/>
          <path class="cls-12" d="M405.17,980.61s-2.41-1.43-5.98-2.44c-.26-.07-.62-.21-1.08-.4.61.57,1.32,1.07,1.8,1.68.05.07.02.19-.07.18-.85-.06-1.64-.29-2.4-.69.62.77,1.35,1.31,2.28,1.65.5.18,1.02.25,1.53.39.11.03.33.05.4.18.09.19.03.45.03.66,0,.43-.03.92.1,1.34.16.51.57.9,1.06,1.02.12.03.24.06.34.09,1.44.07,2.87.19,4.22.56.08.02.1.16.02.2-2.21,1.05-4.43,1.67-6.85,1.25-1.45-.25-2.83-.7-4.25-1.1-1.4-.4-2.81-.71-4.25-.44-1.36.26-2.68.74-4.05.95-1.3.2-2.63.2-3.94.09-2.78-.24-5.49-.9-8.22-1.48-1.34-.28-2.69-.57-4.05-.67-1.32-.1-2.65-.05-3.96.09-2.78.29-5.51.93-8.26,1.38-2.61.43-5.25.72-7.88.35-2-.28-4.27-.94-5.74-2.54-2.5-2.72-2.06-7.05-1.53-10.5.32-2.09.76-4.16,1.09-6.25.15-.97.28-1.95.33-2.93.05-1.12-.05-2.24-.13-3.36-.43-5.86-1.07-11.79-2.58-17.46h-.59c.7,4.61,1.74,16.81,1.74,19.7,0,10.88-3.62,15.56-1.41,20.2,2.18,4.59,5.63,5.08,9.49,4.87,5.08-.28,11.65-1.81,17.05-.82,5.4,1,15.76,2.75,21.01,1.69l4.35-1.15s6.63,1.65,10.89,1c0,0,3.75-.65,3.86-2.23.11-1.58-.29-3.99-4.36-5.06Z"/>
          <path class="cls-14" d="M407.8,981.78c-.63-.48-1.32-.76-2.04-.95.04-.05-1.91-1.35-3-1.65-1.48-.42-4.51-1.36-4.48-1.34,1.11.88,2.35,1.24,3.66,1.6.84.23,1.6.5,2.39.89.21.1.42.23.65.34-.74-.12-1.49-.16-2.23-.22-.96-.07-1.95-.16-2.89-.37-.92-.21-1.98-.75-2.85-1.14-.04-.02-.11.08-.08.1,1.47,1.11,2.94,1.56,4.71,1.66,2.14.13,4.14.02,6.09,1.18.04.02.11-.08.08-.1Z"/>
          <g>
            <path class="cls-11" d="M405.04,980.68c-.2.4-1.23.1-1.6,0-.35-.1-.7-.22-.85-.51-.1-.21-.09-.43-.04-.64-.02-.04-.04-.09-.05-.13-.19.3-.25.57-.13.91.15.42.83.49,1.28.56.41.07.84.18,1.25.19.18,0,.23-.48.23-.58,0-.03-.09.17-.09.18Z"/>
            <g>
              <path class="cls-14" d="M402.52,980.28s-.2-.74.06-.81c.26-.08,1.73.09,2.57.59,0,0,.03.84-.18.9-.21.06-2.17-.33-2.17-.33,0,0-.24-.15-.28-.34Z"/>
              <path class="cls-11" d="M403.83,980.68c-.35-.06-.88-.09-1.12-.35-.2-.21-.33-.67-.11-.87,0,0-.02,0-.02,0-.26.08-.06.81-.06.81.04.19.28.34.28.34,0,0,1.96.39,2.17.33.04-.01.07-.06.1-.12-.41-.04-.83-.08-1.24-.15Z"/>
              <path class="cls-13" d="M405.15,980.05c-.08-.04-.16-.09-.24-.13.08.34.05.71-.1,1.03.08,0,.13,0,.16,0,.21-.06.18-.9.18-.9Z"/>
            </g>
            <path class="cls-13" d="M402.65,979.49s1.56.05,2.43.59c0,0-.92-.37-2.43-.59Z"/>
          </g>
          <g>
            <path class="cls-11" d="M407.54,983.43c-.32,1.11-2.38.57-3.11.38-.69-.18-1.4-.42-1.72-1.16-.23-.53-.24-1.13-.18-1.7-.04-.11-.08-.22-.12-.34-.32.84-.41,1.59-.12,2.48.35,1.1,1.68,1.12,2.57,1.21.8.08,1.66.29,2.46.22.34-.03.39-1.34.37-1.6,0-.08-.14.49-.15.51Z"/>
            <g>
              <path class="cls-14" d="M402.58,982.95s-.5-1.93,0-2.2c.5-.27,3.37-.16,5.08.97,0,0,.17,2.25-.22,2.46-.4.21-4.26-.38-4.26-.38,0,0-.49-.36-.59-.86Z"/>
              <path class="cls-11" d="M405.18,983.72c-.68-.09-1.73-.04-2.22-.67-.41-.53-.75-1.71-.34-2.31-.02,0-.03.01-.04.02-.5.27,0,2.2,0,2.2.11.5.59.86.59.86,0,0,3.86.59,4.26.38.08-.04.14-.17.18-.34-.81,0-1.62-.02-2.43-.12Z"/>
              <path class="cls-13" d="M407.66,981.72c-.15-.1-.32-.19-.49-.28.21.88.2,1.9-.04,2.79.15,0,.25-.02.31-.05.4-.21.22-2.46.22-2.46Z"/>
            </g>
            <path class="cls-13" d="M402.72,980.81s3.04-.23,4.81,1c0,0-1.83-.77-4.81-1Z"/>
          </g>
        </g>
        <path class="cls-14" d="M345.13,972.73c-.52,2.29-.65,5.24.21,7.55-.17-1.38-.08-2.78.17-4.15.07-.35.14-.69.23-1.04.01-.09.02-.18.03-.27.3-2.17,1.55-3.92,2.18-5.96.11-.36.22-.73.33-1.1.25-1.4.2-2.84.09-4.25-.11-1.45-.24-2.9-.37-4.35-.45-5.18-.93-10.46-2.54-15.42-.06,0-.12,0-.18,0-.84,0-.66,1.03-.45,1.72.31,2.7.81,5.38,1.13,8.07.38,3.2,1,6.34.95,9.58-.05,3.23-1.07,6.48-1.78,9.61Z"/>
        <path class="cls-14" d="M363.65,983.87s7.05-2.02,11.43-.41c4.38,1.61,9.97,2.51,14.42,1.61,0,0-6.85.29-11.03-1.2-4.19-1.49-8.45-2.81-14.82,0Z"/>
      </g>
      <g>
        <rect class="cls-23" x="550.31" y="137.41" width="133.75" height="272.27"/>
        <path d="M683.56,137.91v271.27h-132.75V137.91h132.75M684.56,136.91h-134.75v273.27h134.75V136.91h0Z"/>
      </g>
      <g>
        <rect class="cls-23" x="679.46" y="410.67" width="4.6" height="276.44"/>
        <path d="M683.56,411.17v275.44h-3.6v-275.44h3.6M684.56,410.17h-5.6v277.44h5.6v-277.44h0Z"/>
      </g>
      <g>
        <rect class="cls-19" x="394.9" y="695.1" width="289.16" height="260.79"/>
        <path d="M683.56,695.6v259.79h-288.16v-259.79h288.16M684.56,694.6h-290.16v261.79h290.16v-261.79h0Z"/>
      </g>
      <g>
        <rect class="cls-23" x="410.8" y="956.89" width="273.26" height="34.23"/>
        <path d="M683.56,957.39v33.24h-272.26v-33.24h272.26M684.56,956.39h-274.26v35.24h274.26v-35.24h0Z"/>
      </g>
      <g>
        <rect class="cls-23" x="389.71" y="685.9" width="294.35" height="8.2"/>
        <path d="M683.56,686.4v7.2h-293.35v-7.2h293.35M684.56,685.4h-295.35v9.2h295.35v-9.2h0Z"/>
      </g>
      <g>
        <rect class="cls-24" x="685.06" y="92.4" width="38.02" height="898.73"/>
        <path d="M722.58,92.9v897.73h-37.02V92.9h37.02M723.58,91.9h-39.02v899.73h39.02V91.9h0Z"/>
      </g>
      <line class="cls-2" x1="684.56" y1="91.9" x2="70.51" y2="90.56"/>
      <line class="cls-2" x1="410.3" y1="991.63" x2="68.2" y2="991.45"/>
      <g>
        <line class="cls-2" x1="684.06" y1="52.99" x2="550.31" y2="52.99"/>
        <rect x="683.56" y="49.74" width="1" height="6.5"/>
        <rect x="549.81" y="49.74" width="1" height="6.5"/>
      </g>
      <text class="cls-10" transform="translate(610.26 43.09)"><tspan x="0" y="0">F</tspan></text>
      <g>
        <line class="cls-2" x1="678.46" y1="648.22" x2="389.71" y2="648.22"/>
        <rect x="677.96" y="644.97" width="1" height="6.5"/>
        <rect x="389.21" y="644.97" width="1" height="6.5"/>
      </g>
      <text class="cls-10" transform="translate(529.96 638.32)"><tspan x="0" y="0">E</tspan></text>
      <g>
        <line class="cls-2" x1="365.85" y1="685.9" x2="365.85" y2="696.31"/>
        <rect x="362.6" y="685.4" width="6.5" height="1"/>
        <rect x="362.6" y="695.81" width="6.5" height="1"/>
      </g>
      <text class="cls-10" transform="translate(358.57 680.62)"><tspan x="0" y="0">K</tspan></text>
      <g>
        <line class="cls-2" x1="334.26" y1="956.89" x2="334.26" y2="991.13"/>
        <rect x="331.01" y="956.39" width="6.5" height="1"/>
        <rect x="331.01" y="990.63" width="6.5" height="1"/>
      </g>
      <text class="cls-10" transform="translate(311.79 982.78)"><tspan x="0" y="0">B</tspan></text>
      <g>
        <line class="cls-2" x1="297.61" y1="685.9" x2="297.61" y2="990.91"/>
        <rect x="294.36" y="685.4" width="6.5" height="1"/>
        <rect x="294.36" y="990.41" width="6.5" height="1"/>
      </g>
      <text class="cls-6" transform="translate(259.5 843.46)"><tspan x="0" y="0">A</tspan></text>
      <g>
        <line class="cls-2" x1="233.87" y1="410.67" x2="233.87" y2="990.91"/>
        <rect x="230.62" y="410.17" width="6.5" height="1"/>
        <rect x="230.62" y="990.41" width="6.5" height="1"/>
      </g>
      <text class="cls-10" transform="translate(196.92 695.49)"><tspan x="0" y="0">C</tspan></text>
      <g>
        <line class="cls-2" x1="171.73" y1="92.03" x2="171.73" y2="990.3"/>
        <rect x="168.48" y="91.53" width="6.5" height="1"/>
        <rect x="168.48" y="989.8" width="6.5" height="1"/>
      </g>
      <text class="cls-10" transform="translate(127.58 522.93)"><tspan x="0" y="0">D</tspan></text>
      <text class="cls-18" transform="translate(576.02 278.17)"><tspan x="0" y="0">Tủ trên</tspan></text>
      <text class="cls-18" transform="translate(495.6 833.78)"><tspan x="0" y="0">Tủ dưới</tspan></text>
      <text class="cls-18" transform="translate(503.79 983.4)"><tspan x="0" y="0">Chân tủ</tspan></text>
      <text class="cls-18" transform="translate(570.98 531.86)"><tspan x="0" y="0">Ốp bếp</tspan></text>
      <text class="cls-17" transform="translate(65.5 72.16)"><tspan class="cls-20" x="0" y="0">T</tspan><tspan x="15.35" y="0">rần</tspan></text>
      <text class="cls-17" transform="translate(64.32 1029.71)"><tspan x="0" y="0">Sàn</tspan></text>
      <text class="cls-18" transform="translate(495.72 678.82)"><tspan x="0" y="0">Bàn bếp</tspan></text>
      <line class="cls-1" x1="801.57" y1="989.58" x2="1851.61" y2="989.58"/>
      <line class="cls-1" x1="801.57" y1="227.61" x2="1851.61" y2="227.61"/>
      <line class="cls-1" x1="801.57" y1="227.61" x2="801.57" y2="989.58"/>
      <line class="cls-1" x1="1851.61" y1="227.61" x2="1851.61" y2="989.58"/>
      <line class="cls-1" x1="801.57" y1="303.8" x2="1851.61" y2="303.8"/>
      <line class="cls-1" x1="801.57" y1="379.99" x2="1851.61" y2="379.99"/>
      <line class="cls-1" x1="801.57" y1="456.18" x2="1851.61" y2="456.18"/>
      <line class="cls-1" x1="801.57" y1="532.36" x2="1851.61" y2="532.36"/>
      <line class="cls-1" x1="801.57" y1="608.55" x2="1851.61" y2="608.55"/>
      <line class="cls-1" x1="801.57" y1="760.93" x2="1851.61" y2="760.93"/>
      <line class="cls-1" x1="801.57" y1="837.12" x2="1851.61" y2="837.12"/>
      <line class="cls-1" x1="804.75" y1="684.74" x2="1854.79" y2="684.74"/>
      <line class="cls-1" x1="801.57" y1="913.31" x2="1851.61" y2="913.31"/>
      <line class="cls-1" x1="925.45" y1="227.61" x2="925.45" y2="913.47"/>
      <line class="cls-1" x1="1388.53" y1="227.61" x2="1388.53" y2="913.47"/>
      <text class="cls-18" transform="translate(830.03 275.02)"><tspan x="0" y="0">KÍ</tspan><tspan class="cls-25" x="25.27" y="0"> </tspan><tspan x="32.22" y="0">TỰ</tspan></text>
      <text class="cls-18" transform="translate(1018.17 275.02)"><tspan x="0" y="0">LOẠI KÍCH</tspan><tspan class="cls-25" x="132.29" y="0"> </tspan><tspan x="139.24" y="0">THƯỚC</tspan></text>
      <text class="cls-18" transform="translate(1463.53 275.02)"><tspan x="0" y="0">KÍCH</tspan><tspan class="cls-25" x="63.91" y="0"> </tspan><tspan x="70.85" y="0">THƯỚC CHUẨN (mm)</tspan></text>
      <image width="1230" height="371" transform="translate(1596.58 10.42) scale(.23)" xlink:href="../ドキュメント/K/Logo Kurashi/lOGO-01.png"/>
      <rect class="cls-3" x="804.75" y="108.21" width="1047.31" height="90.26"/>
      <text class="cls-16" transform="translate(987.42 167.18)"><tspan x="0" y="0">KÍCH</tspan><tspan class="cls-21" x="86.01" y="0"> </tspan><tspan x="95.36" y="0">THƯỚC</tspan><tspan class="cls-21" x="230.96" y="0"> </tspan><tspan x="240.31" y="0">TỦ BẾ</tspan><tspan class="cls-21" x="346.32" y="0">P </tspan><tspan x="379.04" y="0">THEO CHUẨN NHẬ</tspan><tspan class="cls-21" x="703.05" y="0">T</tspan></text>
      <line class="cls-4" x1="387.85" y1="734.39" x2="387.85" y2="1008.07"/>
      <line class="cls-4" x1="410.3" y1="978.24" x2="410.3" y2="1008.07"/>
      <g>
        <line class="cls-2" x1="409.8" y1="1014.63" x2="388.09" y2="1014.63"/>
        <rect x="409.3" y="1011.38" width="1" height="6.5"/>
        <rect x="387.59" y="1011.38" width="1" height="6.5"/>
      </g>
      <text class="cls-9" transform="translate(394.45 1045.29)"><tspan x="0" y="0">L</tspan></text>
      <text class="cls-5" transform="translate(849.82 355.38)"><tspan x="0" y="0">A</tspan></text>
      <text class="cls-8" transform="translate(847.71 433.42)"><tspan x="0" y="0">B</tspan></text>
      <text class="cls-8" transform="translate(849.9 506.54)"><tspan x="0" y="0">C</tspan></text>
      <text class="cls-8" transform="translate(846.86 579.67)"><tspan x="0" y="0">D</tspan></text>
      <text class="cls-8" transform="translate(847.71 658.86)"><tspan x="0" y="0">E</tspan></text>
      <text class="cls-8" transform="translate(846.86 734.6)"><tspan x="0" y="0">F</tspan></text>
      <text class="cls-8" transform="translate(846.86 809.08)"><tspan x="0" y="0">K</tspan></text>
      <text class="cls-7" transform="translate(847.71 887.48)"><tspan x="0" y="0">L</tspan></text>
      <text class="cls-15" transform="translate(846.16 971.67) scale(1.1 1)"><tspan x="0" y="0">n là tự nhiên</tspan></text>
      <text class="cls-18" transform="translate(961.2 353.43)"><tspan x="0" y="0">Chiều cao bàn bếp</tspan></text>
      <text class="cls-18" transform="translate(1441.7 353.43)"><tspan x="0" y="0">800, 850, 900, 950</tspan></text>
      <text class="cls-18" transform="translate(1441.7 424.3)"><tspan x="0" y="0">50, 100, 150, 200</tspan></text>
      <text class="cls-18" transform="translate(961.2 426.16)"><tspan x="0" y="0">Chiều cao chân tủ</tspan></text>
      <text class="cls-18" transform="translate(961.2 503.56)"><tspan x="0" y="0">Chiều cao từ sàn đến đáy tủ trên</tspan></text>
      <text class="cls-18" transform="translate(1441.7 503.56)"><tspan x="0" y="0">50 x n, tối thiểu 1300</tspan></text>
      <text class="cls-18" transform="translate(961.2 580.95)"><tspan x="0" y="0">Chiều cao từ sàn đến đỉnh tủ trên</tspan></text>
      <text class="cls-18" transform="translate(1441.7 575.15)"><tspan x="0" y="0">50 x n, tối thiểu 1900</tspan></text>
      <text class="cls-18" transform="translate(954.98 654.73)"><tspan x="0" y="0">Chiều sâu bàn bếp</tspan></text>
      <text class="cls-18" transform="translate(1441.7 654.73)"><tspan x="0" y="0">600, 650</tspan></text>
      <g>
        <path class="cls-24" d="M1498.03,1028.66l.44-1.25c1.02.33,1.77.61,2.23.85-.12-1.06-.19-1.79-.19-2.19h1.4c-.02.58-.09,1.31-.22,2.18.66-.3,1.42-.59,2.28-.84l.45,1.25c-.82.25-1.62.41-2.41.49.39.31.95.86,1.66,1.66l-1.16.75c-.37-.46-.82-1.09-1.32-1.89-.48.83-.9,1.46-1.26,1.89l-1.14-.75c.75-.84,1.28-1.39,1.6-1.66-.83-.15-1.62-.31-2.37-.49Z"/>
        <path class="cls-24" d="M1515.39,1039.18l5.44-12.88h2.02l5.8,12.88h-2.14l-1.65-3.9h-5.93l-1.56,3.9h-1.99ZM1519.48,1033.89h4.8l-1.48-3.57c-.45-1.08-.79-1.97-1.01-2.67-.18.83-.43,1.65-.76,2.46l-1.56,3.78ZM1520.65,1025.51l1.29-2.46h2.28l-2.13,2.46h-1.44Z"/>
        <path class="cls-24" d="M1529.93,1042.76v-12.91h1.58v1.21c.37-.47.8-.83,1.27-1.07.47-.24,1.04-.36,1.71-.36.88,0,1.65.21,2.32.62.67.41,1.18.99,1.52,1.74.34.75.51,1.57.51,2.46,0,.96-.19,1.82-.57,2.58-.38.77-.92,1.35-1.64,1.76-.72.41-1.47.61-2.27.61-.58,0-1.1-.11-1.56-.33s-.84-.5-1.14-.84v4.54h-1.74ZM1531.5,1034.57c0,1.2.27,2.09.8,2.66s1.18.86,1.94.86,1.44-.3,1.99-.89c.55-.59.83-1.52.83-2.76s-.27-2.08-.81-2.67-1.18-.89-1.93-.89-1.4.32-1.97.94c-.57.63-.86,1.55-.86,2.75Z"/>
        <path class="cls-24" d="M1553.1,1039.18v-1.18c-.65.93-1.61,1.39-2.87,1.39-.82,0-1.57-.21-2.26-.62s-1.22-.98-1.6-1.72c-.38-.73-.57-1.58-.57-2.54s.17-1.78.51-2.54c.34-.76.85-1.34,1.54-1.75.68-.4,1.45-.61,2.29-.61.62,0,1.17.12,1.65.36.48.24.88.55,1.18.93v-4.62h1.73v12.88h-1.61ZM1547.6,1034.53c0,1.2.28,2.09.83,2.68.55.59,1.21.89,1.96.89s1.41-.28,1.94-.85c.53-.57.8-1.43.8-2.59,0-1.28-.27-2.21-.81-2.81-.54-.6-1.21-.9-2-.9s-1.42.29-1.94.86c-.52.57-.78,1.48-.78,2.72Z"/>
        <path class="cls-24" d="M1564.18,1039.18v-1.37c-.8,1.05-1.89,1.58-3.26,1.58-.61,0-1.17-.11-1.7-.32s-.92-.48-1.17-.79-.43-.71-.54-1.17c-.07-.31-.11-.8-.11-1.48v-5.78h1.74v5.18c0,.83.04,1.38.11,1.67.11.42.34.74.7.98.35.24.79.36,1.31.36s1.01-.12,1.47-.36c.46-.24.78-.57.97-.99.19-.42.29-1.03.29-1.82v-5h1.74v9.33h-1.56ZM1560.26,1042.04v-1.8h1.98v1.8h-1.98Z"/>
        <path class="cls-24" d="M1568.46,1039.18v-9.33h1.57v1.33c.75-1.03,1.84-1.54,3.27-1.54.62,0,1.19.1,1.71.3.52.2.91.47,1.17.8s.44.72.54,1.17c.06.29.1.81.1,1.54v5.74h-1.74v-5.68c0-.64-.07-1.13-.2-1.45-.13-.32-.38-.57-.72-.77-.34-.19-.75-.29-1.21-.29-.74,0-1.38.21-1.92.64s-.81,1.24-.81,2.43v5.1h-1.74Z"/>
        <path class="cls-24" d="M1579.16,1039.96l1.69.23c.07.47.27.82.59,1.04.43.29,1.02.44,1.77.44.81,0,1.43-.15,1.87-.44.44-.29.73-.7.89-1.23.09-.32.13-1,.13-2.03-.76.81-1.71,1.22-2.84,1.22-1.41,0-2.5-.46-3.28-1.39s-1.16-2.04-1.16-3.33c0-.89.18-1.71.53-2.47.35-.75.87-1.33,1.54-1.74s1.46-.62,2.37-.62c1.21,0,2.21.45,3,1.34v-1.12h1.61v8.07c0,1.45-.16,2.48-.49,3.09-.33.61-.84,1.08-1.55,1.44s-1.57.53-2.61.53c-1.22,0-2.21-.25-2.97-.75-.75-.5-1.12-1.26-1.09-2.26ZM1580.6,1034.35c0,1.22.27,2.12.8,2.68.53.56,1.21.84,2.01.84s1.47-.28,2.01-.84.81-1.44.81-2.63-.28-2-.84-2.58-1.23-.87-2.02-.87-1.43.29-1.97.86c-.54.57-.81,1.42-.81,2.54Z"/>
        <path class="cls-24" d="M1602.69,1035.77l1.71.2c-.19,1.07-.67,1.91-1.44,2.52-.77.61-1.72.91-2.84.91-1.41,0-2.54-.42-3.39-1.25-.85-.84-1.28-2.03-1.28-3.59,0-1.01.18-1.89.55-2.65.37-.76.93-1.32,1.68-1.7.75-.38,1.57-.57,2.45-.57,1.11,0,2.03.26,2.74.77s1.16,1.24,1.36,2.18l-1.69.24c-.16-.63-.45-1.1-.86-1.42-.41-.32-.9-.47-1.48-.47-.88,0-1.59.29-2.14.86-.55.57-.82,1.47-.82,2.71s.26,2.17.79,2.73,1.22.85,2.07.85c.68,0,1.25-.19,1.71-.57s.75-.97.87-1.76Z"/>
        <path class="cls-24" d="M1605.89,1039.18v-12.88h1.74v4.62c.81-.86,1.84-1.28,3.07-1.28.76,0,1.42.14,1.98.41.56.27.96.65,1.2,1.13.24.48.36,1.18.36,2.09v5.92h-1.74v-5.92c0-.79-.19-1.37-.57-1.73-.38-.36-.91-.54-1.6-.54-.52,0-1,.12-1.46.36-.45.24-.78.57-.97.99s-.29.99-.29,1.72v5.11h-1.74Z"/>
        <path class="cls-24" d="M1616.25,1034.52c0-1.73.53-3.01,1.59-3.84.88-.69,1.96-1.04,3.23-1.04,1.41,0,2.57.42,3.46,1.26.9.84,1.34,2,1.34,3.48,0,1.2-.2,2.15-.59,2.83-.4.69-.97,1.22-1.73,1.6-.76.38-1.58.57-2.48.57-1.44,0-2.6-.42-3.49-1.26-.89-.84-1.33-2.04-1.33-3.62ZM1618.04,1034.52c0,1.2.29,2.09.86,2.68.57.6,1.29.89,2.17.89s1.58-.3,2.16-.9.86-1.51.86-2.73c0-1.15-.29-2.03-.87-2.62-.58-.59-1.29-.89-2.15-.89s-1.59.3-2.17.89c-.57.59-.86,1.49-.86,2.68Z"/>
        <path class="cls-24" d="M1635.02,1039.18h-1.61v-12.88h1.74v4.6c.73-.84,1.67-1.26,2.81-1.26.63,0,1.23.12,1.79.35.56.23,1.03.56,1.39.97.36.42.65.92.86,1.52.21.59.31,1.22.31,1.9,0,1.6-.44,2.84-1.31,3.71s-1.91,1.31-3.13,1.31-2.16-.46-2.85-1.38v1.17ZM1635,1034.45c0,1.12.17,1.93.5,2.43.55.81,1.29,1.22,2.22,1.22.76,0,1.42-.3,1.97-.9.55-.6.83-1.5.83-2.69s-.27-2.12-.8-2.7c-.53-.58-1.17-.87-1.93-.87s-1.42.3-1.97.9c-.55.6-.83,1.47-.83,2.61Z"/>
        <path class="cls-24" d="M1651.45,1036.18l1.8.2c-.28.96-.81,1.7-1.58,2.22-.77.53-1.75.79-2.94.79-1.5,0-2.69-.42-3.57-1.26-.88-.84-1.32-2.02-1.32-3.54s.44-2.79,1.33-3.66,2.04-1.3,3.46-1.3,2.49.42,3.36,1.27,1.31,2.04,1.31,3.59c0,.09,0,.23,0,.42h-7.66c.06,1.03.38,1.81.96,2.36.57.54,1.29.82,2.15.82.64,0,1.18-.15,1.63-.46s.81-.79,1.07-1.46ZM1648.6,1027.2l-1.09,1.49h-1.99l2.09-2.46h1.86l2.18,2.46h-1.97l-1.06-1.49ZM1645.74,1033.62h5.73c-.08-.79-.3-1.37-.66-1.77-.55-.61-1.27-.91-2.16-.91-.8,0-1.47.24-2.02.73-.54.49-.85,1.14-.9,1.95ZM1648.91,1023.13h2.33l-2.23,2.46h-1.4l1.3-2.46Z"/>
        <path class="cls-24" d="M1655.44,1042.76v-12.91h1.58v1.21c.37-.47.8-.83,1.27-1.07.47-.24,1.04-.36,1.71-.36.88,0,1.65.21,2.32.62.67.41,1.18.99,1.52,1.74.34.75.51,1.57.51,2.46,0,.96-.19,1.82-.57,2.58-.38.77-.92,1.35-1.64,1.76-.72.41-1.47.61-2.27.61-.58,0-1.1-.11-1.56-.33s-.84-.5-1.14-.84v4.54h-1.74ZM1657.01,1034.57c0,1.2.27,2.09.8,2.66s1.18.86,1.94.86,1.44-.3,1.99-.89c.55-.59.83-1.52.83-2.76s-.27-2.08-.81-2.67-1.18-.89-1.93-.89-1.4.32-1.97.94c-.57.63-.86,1.55-.86,2.75Z"/>
        <path class="cls-24" d="M1678.65,1035.77l1.71.2c-.19,1.07-.67,1.91-1.44,2.52-.77.61-1.72.91-2.84.91-1.41,0-2.54-.42-3.39-1.25-.85-.84-1.28-2.03-1.28-3.59,0-1.01.18-1.89.55-2.65.37-.76.93-1.32,1.68-1.7.75-.38,1.57-.57,2.45-.57,1.11,0,2.03.26,2.74.77s1.16,1.24,1.36,2.18l-1.69.24c-.16-.63-.45-1.1-.86-1.42-.41-.32-.9-.47-1.48-.47-.88,0-1.59.29-2.14.86-.55.57-.82,1.47-.82,2.71s.26,2.17.79,2.73,1.22.85,2.07.85c.68,0,1.25-.19,1.71-.57s.75-.97.87-1.76Z"/>
        <path class="cls-24" d="M1681.85,1039.18v-12.88h1.74v4.62c.81-.86,1.84-1.28,3.07-1.28.76,0,1.42.14,1.98.41.56.27.96.65,1.2,1.13.24.48.36,1.18.36,2.09v5.92h-1.74v-5.92c0-.79-.19-1.37-.57-1.73-.38-.36-.91-.54-1.6-.54-.52,0-1,.12-1.46.36-.45.24-.78.57-.97.99s-.29.99-.29,1.72v5.11h-1.74Z"/>
        <path class="cls-24" d="M1702.34,1031.69v-1.84h1.87v1.45c0,.92-.12,1.56-.35,1.92-.59.94-1.5,1.46-2.72,1.58v4.38h-1.56v-1.37c-.8,1.05-1.89,1.58-3.26,1.58-.6,0-1.16-.1-1.69-.31-.53-.21-.92-.47-1.17-.79s-.44-.71-.54-1.18c-.07-.32-.11-.81-.11-1.48v-5.78h1.74v5.18c0,.84.04,1.39.11,1.67.23.89.9,1.34,2.01,1.34.54,0,1.03-.12,1.48-.37.45-.25.77-.58.96-.99.19-.42.28-1.02.28-1.82v-5h1.74v4.29c.82-.13,1.43-.48,1.84-1.05.18-.25.27-.71.27-1.41h-.91ZM1693.85,1028.47c0-.61.18-1.1.55-1.46.37-.36.84-.54,1.41-.54.4,0,.94.16,1.63.47.38.18.68.26.91.26.21,0,.36-.05.47-.15.11-.1.19-.31.23-.61h1.26c-.02.67-.2,1.17-.56,1.5s-.8.5-1.34.5c-.41,0-.94-.16-1.6-.49-.43-.21-.75-.32-.95-.32-.22,0-.4.07-.53.21-.14.14-.21.35-.2.62h-1.29Z"/>
        <path class="cls-24" d="M1712.16,1039.18v-12.88h1.88v12.88h-1.88Z"/>
        <path class="cls-24" d="M1717.57,1039.18v-1.8h1.98v1.8c0,.66-.13,1.2-.39,1.6s-.67.72-1.23.95l-.48-.68c.37-.15.64-.36.81-.65.17-.29.27-.69.29-1.23h-.99Z"/>
        <path class="cls-24" d="M1734.82,1035.77l1.71.2c-.19,1.07-.67,1.91-1.44,2.52-.77.61-1.72.91-2.84.91-1.41,0-2.54-.42-3.39-1.25-.85-.84-1.28-2.03-1.28-3.59,0-1.01.18-1.89.55-2.65.37-.76.93-1.32,1.68-1.7.75-.38,1.57-.57,2.45-.57,1.11,0,2.03.26,2.74.77s1.16,1.24,1.36,2.18l-1.69.24c-.16-.63-.45-1.1-.86-1.42-.41-.32-.9-.47-1.48-.47-.88,0-1.59.29-2.14.86-.55.57-.82,1.47-.82,2.71s.26,2.17.79,2.73,1.22.85,2.07.85c.68,0,1.25-.19,1.71-.57s.75-.97.87-1.76Z"/>
        <path class="cls-24" d="M1738.02,1039.18v-12.88h1.74v4.62c.81-.86,1.84-1.28,3.07-1.28.76,0,1.42.14,1.98.41.56.27.96.65,1.2,1.13.24.48.36,1.18.36,2.09v5.92h-1.74v-5.92c0-.79-.19-1.37-.57-1.73-.38-.36-.91-.54-1.6-.54-.52,0-1,.12-1.46.36-.45.24-.78.57-.97.99s-.29.99-.29,1.72v5.11h-1.74Z"/>
        <path class="cls-24" d="M1758.52,1031.69v-1.84h1.87v1.45c0,.92-.12,1.56-.35,1.92-.59.94-1.5,1.46-2.72,1.58v4.38h-1.56v-1.37c-.8,1.05-1.89,1.58-3.26,1.58-.6,0-1.16-.1-1.69-.31-.53-.21-.92-.47-1.17-.79s-.44-.71-.54-1.18c-.07-.32-.11-.81-.11-1.48v-5.78h1.74v5.18c0,.84.04,1.39.11,1.67.23.89.9,1.34,2.01,1.34.54,0,1.03-.12,1.48-.37.45-.25.77-.58.96-.99.19-.42.28-1.02.28-1.82v-5h1.74v4.29c.82-.13,1.43-.48,1.84-1.05.18-.25.27-.71.27-1.41h-.91ZM1750.02,1028.47c0-.61.18-1.1.55-1.46.37-.36.84-.54,1.41-.54.4,0,.94.16,1.63.47.38.18.68.26.91.26.21,0,.36-.05.47-.15.11-.1.19-.31.23-.61h1.26c-.02.67-.2,1.17-.56,1.5s-.8.5-1.34.5c-.41,0-.94-.16-1.6-.49-.43-.21-.75-.32-.95-.32-.22,0-.4.07-.53.21-.14.14-.21.35-.2.62h-1.29Z"/>
        <path class="cls-24" d="M1767.93,1039.18v-12.88h1.88v11.36h6.98v1.52h-8.86Z"/>
        <path class="cls-24" d="M1779.25,1039.18v-1.8h1.98v1.8c0,.66-.13,1.2-.39,1.6s-.67.72-1.23.95l-.48-.68c.37-.15.64-.36.81-.65.17-.29.27-.69.29-1.23h-.99Z"/>
        <path class="cls-24" d="M1796.5,1035.77l1.71.2c-.19,1.07-.67,1.91-1.44,2.52-.77.61-1.72.91-2.84.91-1.41,0-2.54-.42-3.39-1.25-.85-.84-1.28-2.03-1.28-3.59,0-1.01.18-1.89.55-2.65.37-.76.93-1.32,1.68-1.7.75-.38,1.57-.57,2.45-.57,1.11,0,2.03.26,2.74.77s1.16,1.24,1.36,2.18l-1.69.24c-.16-.63-.45-1.1-.86-1.42-.41-.32-.9-.47-1.48-.47-.88,0-1.59.29-2.14.86-.55.57-.82,1.47-.82,2.71s.26,2.17.79,2.73,1.22.85,2.07.85c.68,0,1.25-.19,1.71-.57s.75-.97.87-1.76Z"/>
        <path class="cls-24" d="M1799.7,1039.18v-12.88h1.74v4.62c.81-.86,1.84-1.28,3.07-1.28.76,0,1.42.14,1.98.41.56.27.96.65,1.2,1.13.24.48.36,1.18.36,2.09v5.92h-1.74v-5.92c0-.79-.19-1.37-.57-1.73-.38-.36-.91-.54-1.6-.54-.52,0-1,.12-1.46.36-.45.24-.78.57-.97.99s-.29.99-.29,1.72v5.11h-1.74Z"/>
        <path class="cls-24" d="M1820.2,1031.69v-1.84h1.87v1.45c0,.92-.12,1.56-.35,1.92-.59.94-1.5,1.46-2.72,1.58v4.38h-1.56v-1.37c-.8,1.05-1.89,1.58-3.26,1.58-.6,0-1.16-.1-1.69-.31-.53-.21-.92-.47-1.17-.79s-.44-.71-.54-1.18c-.07-.32-.11-.81-.11-1.48v-5.78h1.74v5.18c0,.84.04,1.39.11,1.67.23.89.9,1.34,2.01,1.34.54,0,1.03-.12,1.48-.37.45-.25.77-.58.96-.99.19-.42.28-1.02.28-1.82v-5h1.74v4.29c.82-.13,1.43-.48,1.84-1.05.18-.25.27-.71.27-1.41h-.91ZM1811.7,1028.47c0-.61.18-1.1.55-1.46.37-.36.84-.54,1.41-.54.4,0,.94.16,1.63.47.38.18.68.26.91.26.21,0,.36-.05.47-.15.11-.1.19-.31.23-.61h1.26c-.02.67-.2,1.17-.56,1.5s-.8.5-1.34.5c-.41,0-.94-.16-1.6-.49-.43-.21-.75-.32-.95-.32-.22,0-.4.07-.53.21-.14.14-.21.35-.2.62h-1.29Z"/>
        <path class="cls-24" d="M1838.99,1026.3h1.88v7.44c0,1.29-.16,2.32-.48,3.08-.32.76-.9,1.38-1.75,1.86-.84.48-1.95.72-3.31.72s-2.41-.21-3.26-.62c-.84-.42-1.45-1.02-1.81-1.81-.36-.79-.54-1.86-.54-3.23v-7.44h1.88v7.44c0,1.12.11,1.94.34,2.47s.62.94,1.18,1.23,1.24.43,2.04.43c1.38,0,2.36-.28,2.95-.85s.88-1.66.88-3.28v-7.44Z"/>
      </g>
      <text class="cls-18" transform="translate(961.2 728.82)"><tspan x="0" y="0">Chiều sâu tủ trên</tspan></text>
      <text class="cls-18" transform="translate(1441.7 728.82)"><tspan x="0" y="0">Dưới 400</tspan></text>
      <text class="cls-18" transform="translate(954.98 810.21)"><tspan x="0" y="0">Độ dày bàn bếp</tspan></text>
      <text class="cls-18" transform="translate(1446.77 810.21)"><tspan x="0" y="0">Dưới 40</tspan></text>
      <text class="cls-18" transform="translate(952.19 877.2)"><tspan x="0" y="0">Chiều sâu chân tủ</tspan></text>
      <text class="cls-18" transform="translate(1446.77 882.49)"><tspan class="cls-20" x="0" y="0">T</tspan><tspan x="15.35" y="0">rên 50</tspan></text>
    </g>
  </g>
</svg>