<?xml version="1.0" encoding="UTF-8"?>
<svg xmlns="http://www.w3.org/2000/svg" xmlns:xlink="http://www.w3.org/1999/xlink" viewBox="0 0 1920 1080">
  <defs>
    <style>
      .cls-1, .cls-2 {
        fill: none;
      }

      .cls-1, .cls-2, .cls-3 {
        stroke: #000;
      }

      .cls-1, .cls-2, .cls-3, .cls-4 {
        stroke-miterlimit: 10;
      }

      .cls-1, .cls-3, .cls-4 {
        stroke-width: .5px;
      }

      .cls-5, .cls-6 {
        mix-blend-mode: multiply;
      }

      .cls-5, .cls-6, .cls-7, .cls-8 {
        fill: #e6e6e6;
      }

      .cls-9, .cls-10 {
        letter-spacing: -.04em;
      }

      .cls-9, .cls-11, .cls-12, .cls-13, .cls-14 {
        font-size: 26.75px;
      }

      .cls-9, .cls-13, .cls-15, .cls-14 {
        font-family: Arial-BoldMT, Arial;
        font-weight: 700;
      }

      .cls-16, .cls-15 {
        fill: #fff;
      }

      .cls-17 {
        isolation: isolate;
      }

      .cls-6 {
        opacity: .5;
      }

      .cls-11, .cls-12 {
        font-family: ArialMT, Arial;
      }

      .cls-18 {
        letter-spacing: -.02em;
      }

      .cls-12, .cls-15 {
        opacity: .95;
      }

      .cls-19 {
        fill: #ccc;
      }

      .cls-20 {
        fill: gray;
      }

      .cls-3 {
        fill: #437355;
      }

      .cls-7 {
        mix-blend-mode: screen;
      }

      .cls-13 {
        letter-spacing: -.02em;
      }

      .cls-15 {
        font-size: 38px;
      }

      .cls-4 {
        fill: #4d4d4d;
        stroke: #4d4d4d;
      }
    </style>
  </defs>
  <g class="cls-17">
    <g id="Layer_1" data-name="Layer 1">
      <g>
        <rect class="cls-19" x="610.5" y="136.48" width="133.75" height="272.27"/>
        <path d="M743.75,136.98v271.27h-132.75V136.98h132.75M744.75,135.98h-134.75v273.27h134.75V135.98h0Z"/>
      </g>
      <g>
        <rect class="cls-19" x="739.65" y="409.75" width="4.6" height="276.44"/>
        <path d="M743.75,410.25v275.44h-3.6v-275.44h3.6M744.75,409.25h-5.6v277.44h5.6v-277.44h0Z"/>
      </g>
      <g>
        <rect class="cls-16" x="455.09" y="694.17" width="289.16" height="260.79"/>
        <path d="M743.75,694.67v259.79h-288.16v-259.79h288.16M744.75,693.67h-290.16v261.79h290.16v-261.79h0Z"/>
      </g>
      <g>
        <rect class="cls-19" x="470.99" y="955.97" width="273.26" height="34.23"/>
        <path d="M743.75,956.47v33.24h-272.26v-33.24h272.26M744.75,955.47h-274.26v35.24h274.26v-35.24h0Z"/>
      </g>
      <g>
        <rect class="cls-19" x="449.9" y="684.97" width="294.35" height="8.2"/>
        <path d="M743.75,685.47v7.2h-293.35v-7.2h293.35M744.75,684.47h-295.35v9.2h295.35v-9.2h0Z"/>
      </g>
      <g>
        <rect class="cls-20" x="745.25" y="91.47" width="38.02" height="898.73"/>
        <path d="M782.77,91.97v897.73h-37.02V91.97h37.02M783.77,90.97h-39.02v899.73h39.02V90.97h0Z"/>
      </g>
      <g>
        <rect class="cls-16" x="1324.62" y="525.01" width="398.9" height="359.8"/>
        <path d="M1723.01,525.51v358.8h-397.9v-358.8h397.9M1724.01,524.51h-399.9v360.8h399.9v-360.8h0Z"/>
      </g>
      <g>
        <rect class="cls-19" x="1346.53" y="885.81" width="376.98" height="47.56"/>
        <path d="M1723.01,886.31v46.56h-375.98v-46.56h375.98M1724.01,885.31h-377.98v48.56h377.98v-48.56h0Z"/>
      </g>
      <g>
        <rect class="cls-19" x="1317.46" y="508.53" width="406.05" height="15.48"/>
        <path d="M1723.01,509.03v14.48h-405.05v-14.48h405.05M1724.01,508.03h-407.05v16.48h407.05v-16.48h0Z"/>
      </g>
      <line class="cls-2" x1="744.75" y1="90.97" x2="123.03" y2="90.75"/>
      <line class="cls-2" x1="470.49" y1="990.7" x2="128.39" y2="990.52"/>
      <g>
        <line class="cls-2" x1="744.25" y1="52.06" x2="610.51" y2="52.06"/>
        <rect x="743.75" y="48.81" width="1" height="6.5"/>
        <rect x="610.01" y="48.81" width="1" height="6.5"/>
      </g>
      <text class="cls-14" transform="translate(670.45 42.16)"><tspan x="0" y="0">F</tspan></text>
      <g>
        <line class="cls-2" x1="738.65" y1="647.3" x2="449.9" y2="647.3"/>
        <rect x="738.15" y="644.05" width="1" height="6.5"/>
        <rect x="449.4" y="644.05" width="1" height="6.5"/>
      </g>
      <text class="cls-14" transform="translate(590.15 637.4)"><tspan x="0" y="0">E</tspan></text>
      <g>
        <line class="cls-2" x1="426.05" y1="684.97" x2="426.05" y2="695.38"/>
        <rect x="422.8" y="684.47" width="6.5" height="1"/>
        <rect x="422.8" y="694.88" width="6.5" height="1"/>
      </g>
      <text class="cls-14" transform="translate(418.76 679.69)"><tspan x="0" y="0">K</tspan></text>
      <g>
        <line class="cls-2" x1="432.46" y1="955.97" x2="432.46" y2="990.2"/>
        <rect x="429.21" y="955.47" width="6.5" height="1"/>
        <rect x="429.21" y="989.7" width="6.5" height="1"/>
      </g>
      <text class="cls-14" transform="translate(403.98 980.85)"><tspan x="0" y="0">B</tspan></text>
      <g>
        <line class="cls-2" x1="366.81" y1="684.97" x2="366.81" y2="989.98"/>
        <rect x="363.56" y="684.47" width="6.5" height="1"/>
        <rect x="363.56" y="989.48" width="6.5" height="1"/>
      </g>
      <text class="cls-9" transform="translate(328.69 842.54)"><tspan x="0" y="0">A</tspan></text>
      <g>
        <line class="cls-2" x1="284.07" y1="409.75" x2="284.07" y2="989.98"/>
        <rect x="280.82" y="409.25" width="6.5" height="1"/>
        <rect x="280.82" y="989.48" width="6.5" height="1"/>
      </g>
      <text class="cls-14" transform="translate(247.11 694.57)"><tspan x="0" y="0">C</tspan></text>
      <g>
        <line class="cls-2" x1="198.93" y1="91.47" x2="198.93" y2="989.37"/>
        <rect x="195.68" y="90.97" width="6.5" height="1"/>
        <rect x="195.68" y="988.87" width="6.5" height="1"/>
      </g>
      <text class="cls-14" transform="translate(154.77 522.01)"><tspan x="0" y="0">D</tspan></text>
      <line class="cls-1" x1="713.34" y1="272.61" x2="830.06" y2="272.61"/>
      <text class="cls-12" transform="translate(839.52 280.24)"><tspan x="0" y="0">Tủ trên</tspan></text>
      <line class="cls-1" x1="716.12" y1="834.48" x2="830.06" y2="834.48"/>
      <text class="cls-12" transform="translate(839.52 842.11)"><tspan x="0" y="0">Tủ dưới</tspan></text>
      <line class="cls-1" x1="716.12" y1="973.22" x2="830.06" y2="973.22"/>
      <text class="cls-12" transform="translate(839.52 980.84)"><tspan x="0" y="0">Chân tủ</tspan></text>
      <line class="cls-1" x1="744.75" y1="522.01" x2="830.06" y2="522.01"/>
      <text class="cls-12" transform="translate(839.52 530.94)"><tspan x="0" y="0">Ốp bếp</tspan></text>
      <text class="cls-11" transform="translate(120.53 61.32)"><tspan class="cls-10" x="0" y="0">T</tspan><tspan x="15.35" y="0">rần</tspan></text>
      <text class="cls-11" transform="translate(102.51 1028.78)"><tspan x="0" y="0">Sàn</tspan></text>
      <line class="cls-4" x1="1316.96" y1="537.24" x2="1316.96" y2="978.19"/>
      <line class="cls-4" x1="1346.03" y1="943.83" x2="1346.03" y2="978.19"/>
      <g>
        <line class="cls-2" x1="1345.53" y1="988.19" x2="1317.46" y2="988.19"/>
        <rect x="1345.03" y="984.94" width="1" height="6.5"/>
        <rect x="1316.96" y="984.94" width="1" height="6.5"/>
      </g>
      <text class="cls-13" transform="translate(1323.72 972.79)"><tspan x="0" y="0">L</tspan></text>
      <line class="cls-1" x1="1328.5" y1="905.59" x2="1431.69" y2="759.84"/>
      <text class="cls-11" transform="translate(1443.22 751.21)"><tspan x="0" y="0">Chân tủ</tspan></text>
      <line class="cls-1" x1="736.52" y1="689.9" x2="830.06" y2="689.9"/>
      <text class="cls-12" transform="translate(839.52 701.37)"><tspan x="0" y="0">Bàn bếp</tspan></text>
      <rect class="cls-3" x="1100.32" y="147.86" width="622.51" height="199.28"/>
      <text class="cls-15" transform="translate(1167.44 233.19)"><tspan x="0" y="0">CÁC KÍCH THƯỚC TỦ BẾ</tspan><tspan class="cls-18" x="462.92" y="0">P</tspan><tspan x="487.58" y="0"> </tspan><tspan x="-35.58" y="60">THEO TIÊU CHUẨN NHẬT BẢN</tspan></text>
      <g>
        <g>
          <path class="cls-8" d="M1325.56,903.63s-6.24-3.72-15.5-6.33c-9.9-2.8-82.86-41.06-92.88-43.97-3.45-1-1.09-32.99-1.09-48.76h-52.94c1.81,11.95,4.51,43.58,4.51,51.09,0,28.21-9.38,40.35-3.66,52.39,5.66,11.9,14.59,13.17,24.61,12.62,13.16-.73,30.21-4.7,44.22-2.12,14.01,2.58,40.88,7.14,54.49,4.39l11.29-2.98s17.19,4.27,28.23,2.58c0,0,9.73-1.68,10.01-5.79.28-4.11-.76-10.35-11.29-13.12Z"/>
          <path class="cls-6" d="M1211.25,804.57c.16,2.21.2,4.43.21,6.62.03,7.39-.66,14.72-.86,22.1-.21,7.45-.06,14.88.17,22.33.02.66.04,1.31.06,1.97.01.44.86.41,1.12.46.86.16,1.72.33,2.57.54,1.71.42,3.41.91,5.07,1.5,3.41,1.19,6.72,2.64,9.95,4.24,6.68,3.32,13.02,7.26,19.69,10.59,7.41,3.7,14.95,7.19,22.69,10.16,6.87,2.64,13.94,4.8,20.93,7.11,4.09,1.35,8.37,2.72,12.71,3.38-18.87-8.11-79.31-39.61-88.37-42.23-3.45-1-1.09-32.99-1.09-48.76h-4.84Z"/>
          <path class="cls-6" d="M1325.56,903.63s-6.24-3.72-15.5-6.33c-.66-.19-1.62-.54-2.81-1.02,1.58,1.48,3.43,2.77,4.66,4.35.13.17.06.49-.18.47-2.19-.15-4.26-.76-6.22-1.78,1.61,1.99,3.51,3.41,5.9,4.29,1.29.47,2.64.66,3.96,1,.29.08.86.14,1.03.48.24.49.08,1.18.08,1.7,0,1.13-.08,2.38.26,3.47.41,1.31,1.48,2.33,2.74,2.64.32.08.61.15.89.24,3.74.18,7.44.5,10.95,1.44.2.05.27.41.06.51-5.74,2.71-11.49,4.33-17.77,3.25-3.75-.64-7.34-1.81-11.01-2.86-3.62-1.04-7.28-1.85-11.02-1.13-3.53.68-6.95,1.92-10.51,2.47-3.37.52-6.82.51-10.21.22-7.2-.61-14.25-2.35-21.32-3.83-3.47-.73-6.97-1.48-10.5-1.74-3.42-.25-6.86-.14-10.28.22-7.2.76-14.28,2.4-21.42,3.58-6.76,1.12-13.62,1.87-20.44.9-5.2-.74-11.08-2.44-14.89-6.59-6.48-7.06-5.34-18.27-3.96-27.22.84-5.42,1.98-10.79,2.82-16.21.39-2.51.73-5.05.84-7.6.13-2.91-.12-5.81-.33-8.72-1.1-15.2-2.79-30.58-6.7-45.28h-1.52c1.81,11.95,4.51,43.58,4.51,51.09,0,28.21-9.38,40.35-3.66,52.39,5.66,11.9,14.59,13.17,24.61,12.62,13.16-.73,30.21-4.7,44.22-2.12,14.01,2.58,40.88,7.14,54.49,4.39l11.29-2.98s17.19,4.27,28.23,2.58c0,0,9.73-1.68,10.01-5.79.28-4.11-.76-10.35-11.29-13.12Z"/>
          <path class="cls-8" d="M1332.38,906.66c-1.63-1.23-3.42-1.98-5.28-2.46.11-.14-4.95-3.5-7.78-4.29-3.84-1.08-11.7-3.52-11.62-3.46,2.88,2.29,6.08,3.2,9.48,4.16,2.17.61,4.14,1.3,6.2,2.3.53.26,1.1.59,1.67.88-1.91-.31-3.87-.42-5.78-.56-2.5-.17-5.05-.41-7.5-.97-2.4-.55-5.12-1.94-7.38-2.96-.09-.04-.29.21-.2.27,3.8,2.88,7.61,4.04,12.22,4.31,5.56.33,10.73.04,15.79,3.05.09.06.29-.21.2-.27Z"/>
          <g>
            <path class="cls-5" d="M1325.24,903.82c-.51,1.03-3.2.27-4.16,0-.9-.25-1.83-.56-2.2-1.31-.26-.53-.24-1.11-.11-1.66-.04-.11-.09-.23-.14-.34-.48.77-.65,1.48-.34,2.36.39,1.1,2.15,1.27,3.32,1.46,1.06.17,2.19.47,3.25.5.46.01.61-1.24.6-1.5,0-.08-.22.45-.24.48Z"/>
            <g>
              <path class="cls-8" d="M1318.69,902.78s-.52-1.91.16-2.11c.68-.21,4.48.24,6.67,1.52,0,0,.07,2.18-.47,2.34-.54.16-5.62-.86-5.62-.86,0,0-.62-.4-.73-.89Z"/>
              <path class="cls-5" d="M1322.09,903.82c-.9-.16-2.29-.24-2.9-.91-.51-.56-.87-1.73-.28-2.26-.02,0-.04,0-.06.01-.68.2-.16,2.11-.16,2.11.11.5.73.89.73.89,0,0,5.08,1.01,5.62.86.11-.03.19-.15.26-.31-1.07-.09-2.14-.21-3.21-.4Z"/>
              <path class="cls-7" d="M1325.52,902.18c-.2-.12-.41-.22-.63-.33.22.87.13,1.85-.25,2.67.2.01.34.01.41,0,.54-.16.47-2.34.47-2.34Z"/>
            </g>
            <path class="cls-7" d="M1319.03,900.73s4.05.13,6.3,1.52c0,0-2.38-.95-6.3-1.52Z"/>
          </g>
          <g>
            <path class="cls-5" d="M1331.73,910.96c-.83,2.88-6.17,1.47-8.07.99-1.78-.46-3.63-1.08-4.46-3-.59-1.37-.62-2.92-.46-4.41-.1-.29-.21-.58-.32-.87-.82,2.18-1.05,4.12-.31,6.42.92,2.84,4.36,2.91,6.65,3.14,2.07.21,4.32.74,6.39.57.88-.07,1-3.47.96-4.15-.01-.2-.37,1.26-.39,1.33Z"/>
            <g>
              <path class="cls-8" d="M1318.85,909.71s-1.29-4.99,0-5.7c1.29-.71,8.73-.4,13.17,2.51,0,0,.44,5.83-.58,6.39-1.03.56-11.05-.97-11.05-.97,0,0-1.26-.92-1.54-2.22Z"/>
              <path class="cls-5" d="M1325.6,911.7c-1.77-.22-4.49-.11-5.76-1.75-1.07-1.37-1.93-4.45-.88-6-.04.02-.08.03-.11.05-1.29.71,0,5.7,0,5.7.28,1.3,1.54,2.22,1.54,2.22,0,0,10.02,1.53,11.05.97.21-.11.35-.44.46-.89-2.1,0-4.19-.05-6.3-.31Z"/>
              <path class="cls-7" d="M1332.03,906.51c-.4-.26-.83-.5-1.27-.72.55,2.29.51,4.93-.1,7.23.38,0,.66-.05.79-.12,1.03-.56.58-6.39.58-6.39Z"/>
            </g>
            <path class="cls-7" d="M1319.22,904.15s7.88-.6,12.46,2.59c0,0-4.75-1.99-12.46-2.59Z"/>
          </g>
        </g>
        <path class="cls-8" d="M1169.88,883.2c-1.34,5.95-1.69,13.59.54,19.58-.44-3.58-.22-7.21.45-10.75.17-.9.37-1.8.59-2.69.03-.23.05-.46.08-.69.79-5.62,4.01-10.17,5.66-15.46.29-.94.58-1.89.86-2.84.66-3.64.51-7.35.22-11.03-.3-3.77-.63-7.53-.96-11.29-1.16-13.42-2.41-27.11-6.58-39.98-.15,0-.3,0-.45-.01-2.18,0-1.71,2.66-1.18,4.47.79,6.99,2.1,13.95,2.92,20.93.98,8.31,2.59,16.44,2.46,24.85-.13,8.37-2.78,16.81-4.61,24.91Z"/>
        <path class="cls-8" d="M1217.91,912.1s18.28-5.24,29.64-1.07c11.36,4.17,25.85,6.51,37.4,4.18,0,0-17.75.75-28.61-3.12-10.86-3.87-21.9-7.29-38.43,0Z"/>
      </g>
      <text class="cls-11" transform="translate(1164.37 963.42)"><tspan x="0" y="0">Bàn chân</tspan></text>
      <image width="1230" height="371" transform="translate(1384.09 35.04) scale(.3)" xlink:href="../Logo Kurashi/lOGO-01.png"/>
    </g>
  </g>
</svg>