<?xml version="1.0" encoding="UTF-8"?>
<svg id="Layer_1" data-name="Layer 1" xmlns="http://www.w3.org/2000/svg" xmlns:xlink="http://www.w3.org/1999/xlink" viewBox="0 0 1200 675">
  <defs>
    <style>
      .cls-1 {
        letter-spacing: -.02em;
      }

      .cls-2 {
        fill: #4d4d4d;
      }

      .cls-3, .cls-4 {
        fill: #fff;
      }

      .cls-5 {
        font-family: ArialMT, Arial;
        font-size: 30px;
      }

      .cls-6 {
        letter-spacing: -.06em;
      }

      .cls-7 {
        letter-spacing: -.02em;
      }

      .cls-8 {
        letter-spacing: 0em;
      }

      .cls-9 {
        fill: none;
        stroke: #4d4d4d;
      }

      .cls-9, .cls-10 {
        stroke-miterlimit: 10;
      }

      .cls-11 {
        letter-spacing: 0em;
      }

      .cls-10 {
        fill: #437355;
        stroke: #000;
        stroke-width: .5px;
      }

      .cls-12 {
        letter-spacing: -.04em;
      }

      .cls-4 {
        font-family: Arial-BoldMT, Arial;
        font-size: 38px;
        font-weight: 700;
        opacity: .95;
      }

      .cls-13 {
        letter-spacing: -.06em;
      }
    </style>
  </defs>
  <rect class="cls-10" x=".23" y=".08" width="1199" height="89.43"/>
  <text class="cls-4" transform="translate(117.42 59.56)"><tspan x="0" y="0">NGUYÊN LÝ HOẠT ĐỘNG CỦ</tspan><tspan class="cls-12" x="529.9" y="0">A</tspan><tspan x="555.94" y="0" xml:space="preserve"> PHỤ KIỆN NAM CHÂM</tspan></text>
  <g>
    <text class="cls-5" transform="translate(777.22 199.89)"><tspan class="cls-11" x="0" y="0">NỀN LÀ</tspan><tspan class="cls-1" x="108.19" y="0"> </tspan><tspan class="cls-11" x="115.95" y="0">TẤM Ố</tspan><tspan class="cls-7" x="210.8" y="0">P </tspan><tspan class="cls-11" x="238" y="0">THÉ</tspan><tspan class="cls-1" x="297.91" y="0">P</tspan><tspan class="cls-11" x="317.35" y="0"> </tspan><tspan class="cls-11"><tspan x="0" y="36">TRÁNG MEN</tspan></tspan></text>
    <image width="1230" height="371" transform="translate(891.34 587.02) scale(.21)" xlink:href="../ドキュメント/K/Logo Kurashi/lOGO-01.png"/>
    <image width="3064" height="3064" transform="translate(91.62 105.29) scale(.18)" xlink:href="P1260456.png"/>
    <g>
      <line class="cls-9" x1="526.44" y1="208.44" x2="746.4" y2="208.44"/>
      <g>
        <circle class="cls-3" cx="526.65" cy="208.44" r="3.76"/>
        <path class="cls-2" d="M526.65,212.7c2.35,0,4.26-1.91,4.26-4.26s-1.91-4.26-4.26-4.26-4.26,1.91-4.26,4.26,1.91,4.26,4.26,4.26-2.35,0,0,0ZM526.65,205.18c1.8,0,3.26,1.46,3.26,3.26s-1.46,3.26-3.26,3.26-3.26-1.46-3.26-3.26,1.46-3.26,3.26-3.26-1.8,0,0,0Z"/>
      </g>
    </g>
    <g>
      <line class="cls-9" x1="400.31" y1="346.25" x2="746.4" y2="346.25"/>
      <g>
        <circle class="cls-3" cx="400.52" cy="346.25" r="3.76"/>
        <path class="cls-2" d="M400.52,350.51c2.35,0,4.26-1.91,4.26-4.26s-1.91-4.26-4.26-4.26-4.26,1.91-4.26,4.26,1.91,4.26,4.26,4.26-2.35,0,0,0ZM400.52,342.99c1.8,0,3.26,1.46,3.26,3.26s-1.46,3.26-3.26,3.26-3.26-1.46-3.26-3.26,1.46-3.26,3.26-3.26-1.8,0,0,0Z"/>
      </g>
    </g>
    <text class="cls-5" transform="translate(777.22 331.06)"><tspan class="cls-11" x="0" y="0">LỚ</tspan><tspan class="cls-1" x="42.35" y="0">P</tspan><tspan class="cls-11" x="61.79" y="0" xml:space="preserve"> NAM CHÂM PHÍ</tspan><tspan class="cls-13" x="291.4" y="0">A</tspan><tspan class="cls-11" x="309.73" y="0"> </tspan><tspan class="cls-11"><tspan x="0" y="36">SAU PHỤ KIỆN</tspan></tspan></text>
    <g>
      <line class="cls-9" x1="282.24" y1="457.98" x2="746.4" y2="457.98"/>
      <g>
        <path class="cls-3" d="M282.45,461.74c-2.08,0-3.76-1.68-3.76-3.76s1.68-3.76,3.76-3.76,3.76,1.68,3.76,3.76-1.68,3.76-3.76,3.76Z"/>
        <path class="cls-2" d="M282.45,462.24c2.35,0,4.26-1.91,4.26-4.26s-1.91-4.26-4.26-4.26-4.26,1.91-4.26,4.26,1.91,4.26,4.26,4.26-2.35,0,0,0ZM282.45,454.72c1.8,0,3.26,1.46,3.26,3.26s-1.46,3.26-3.26,3.26-3.26-1.46-3.26-3.26,1.46-3.26,3.26-3.26-1.8,0,0,0Z"/>
      </g>
    </g>
    <text class="cls-5" transform="translate(777.22 453.35)"><tspan class="cls-11" x="0" y="0">PHẦN</tspan><tspan class="cls-1" x="83.23" y="0"> </tspan><tspan class="cls-8" x="90.99" y="0">THÂN CHÍNH CỦ</tspan><tspan class="cls-6" x="327.26" y="0">A</tspan><tspan class="cls-8" x="345.59" y="0"> </tspan><tspan class="cls-11"><tspan x="0" y="36">PHỤ KIỆN</tspan></tspan></text>
  </g>
</svg>