<?xml version="1.0" encoding="UTF-8"?>
<svg id="Layer_1" xmlns="http://www.w3.org/2000/svg" baseProfile="tiny" version="1.2" xmlns:ev="http://www.w3.org/2001/xml-events" viewBox="0 0 1590 920">
  <!-- Generator: Adobe Illustrator 29.4.0, SVG Export Plug-In . SVG Version: 2.1.0 Build 152)  -->
  <rect y="0" width="1590" height="100" fill="#356854"/>
  <text transform="translate(50 60)" fill="#fff" font-family="Arial-BoldMT, Arial" font-size="36" font-weight="700" isolation="isolate"><tspan x="0" y="0">So Sánh Vật Liệu Ốp Tường Bếp</tspan></text>
  <rect y="100" width="1590" height="60" fill="#dce9e3"/>
  <text transform="translate(55 130)" fill="#356854" font-family="Arial-BoldMT, Arial" font-size="15" font-weight="700" isolation="isolate"><tspan x="0" y="0">Vật liệu</tspan></text>
  <text transform="translate(195 130)" fill="#356854" font-family="Arial-BoldMT, Arial" font-size="15" font-weight="700" isolation="isolate"><tspan x="0" y="0">Độ bền</tspan></text>
  <text transform="translate(335 130)" fill="#356854" font-family="Arial-BoldMT, Arial" font-size="15" font-weight="700" isolation="isolate"><tspan x="0" y="0">Chống ố</tspan></text>
  <text transform="translate(475 130)" fill="#356854" font-family="Arial-BoldMT, Arial" font-size="15" font-weight="700" isolation="isolate"><tspan x="0" y="0">Chịu nhiệt</tspan></text>
  <text transform="translate(615 130)" fill="#356854" font-family="Arial-BoldMT, Arial" font-size="15" font-weight="700" isolation="isolate"><tspan x="0" y="0">Chống cháy</tspan></text>
  <text transform="translate(755 130)" fill="#356854" font-family="Arial-BoldMT, Arial" font-size="15" font-weight="700" isolation="isolate"><tspan x="0" y="0">Bảo trì</tspan></text>
  <text transform="translate(895 130)" fill="#356854" font-family="Arial-BoldMT, Arial" font-size="15" font-weight="700" isolation="isolate"><tspan x="0" y="0">Hút nam châm</tspan></text>
  <text transform="translate(1035 130)" fill="#356854" font-family="Arial-BoldMT, Arial" font-size="15" font-weight="700" isolation="isolate"><tspan x="0" y="0">Vận chuyển</tspan></text>
  <text transform="translate(1175 130)" fill="#356854" font-family="Arial-BoldMT, Arial" font-size="15" font-weight="700" isolation="isolate"><tspan x="0" y="0">Gia công</tspan></text>
  <text transform="translate(1315 130)" fill="#356854" font-family="Arial-BoldMT, Arial" font-size="15" font-weight="700" isolation="isolate"><tspan x="0" y="0">Màu sắc</tspan></text>
  <text transform="translate(1455 130)" fill="#356854" font-family="Arial-BoldMT, Arial" font-size="15" font-weight="700" isolation="isolate"><tspan x="0" y="0">Giá</tspan></text>
  <rect y="160" width="1590" height="60" fill="#fff"/>
  <rect x="50" y="160" width="140" height="60" fill="none" stroke="#c7d6d1"/>
  <text transform="translate(55 195)" font-family="Arial-BoldMT, Arial" font-size="14" font-weight="700" isolation="isolate"><tspan x="0" y="0">Đá solid surface</tspan></text>
  <rect x="190" y="160" width="140" height="60" fill="none" stroke="#c7d6d1"/>
  <text transform="translate(195 195)" font-family="ArialMT, Arial" font-size="14" isolation="isolate"><tspan x="0" y="0">Trung bình</tspan></text>
  <rect x="330" y="160" width="140" height="60" fill="none" stroke="#c7d6d1"/>
  <text transform="translate(335 195)" font-family="ArialMT, Arial" font-size="14" isolation="isolate"><tspan x="0" y="0">TB</tspan></text>
  <rect x="470" y="160" width="140" height="60" fill="none" stroke="#c7d6d1"/>
  <text transform="translate(475 195)" font-family="ArialMT, Arial" font-size="14" isolation="isolate"><tspan x="0" y="0">TB</tspan></text>
  <rect x="610" y="160" width="140" height="60" fill="none" stroke="#c7d6d1"/>
  <text transform="translate(615 195)" fill="#c0392b" font-family="ArialMT, Arial" font-size="14" isolation="isolate"><tspan x="0" y="0">Thấp</tspan></text>
  <rect x="750" y="160" width="140" height="60" fill="none" stroke="#c7d6d1"/>
  <text transform="translate(755 195)" font-family="ArialMT, Arial" font-size="14" isolation="isolate"><tspan x="0" y="0">TB</tspan></text>
  <rect x="890" y="160" width="140" height="60" fill="none" stroke="#c7d6d1"/>
  <text transform="translate(895 195)" font-family="ArialMT, Arial" font-size="14" isolation="isolate"><tspan x="0" y="0">Không</tspan></text>
  <rect x="1030" y="160" width="140" height="60" fill="none" stroke="#c7d6d1"/>
  <text transform="translate(1035 195)" font-family="ArialMT, Arial" font-size="14" isolation="isolate"><tspan x="0" y="0">Khó</tspan></text>
  <rect x="1170" y="160" width="140" height="60" fill="none" stroke="#c7d6d1"/>
  <text transform="translate(1175 195)" font-family="ArialMT, Arial" font-size="14" isolation="isolate"><tspan x="0" y="0">TB</tspan></text>
  <rect x="1310" y="160" width="140" height="60" fill="none" stroke="#c7d6d1"/>
  <text transform="translate(1315 195)" fill="#1e8449" font-family="ArialMT, Arial" font-size="14" isolation="isolate"><tspan x="0" y="0">Nhiều</tspan></text>
  <rect x="1450" y="160" width="140" height="60" fill="none" stroke="#c7d6d1"/>
  <text transform="translate(1455 195)" font-family="ArialMT, Arial" font-size="14" isolation="isolate"><tspan x="0" y="0">$$$</tspan></text>
  <rect y="220" width="1590" height="60" fill="#f4f8f7"/>
  <rect x="50" y="220" width="140" height="60" fill="none" stroke="#c7d6d1"/>
  <text transform="translate(55 244.81)" font-family="Arial-BoldMT, Arial" font-size="14" font-weight="700" isolation="isolate"><tspan x="0" y="0">Đá thạch anh </tspan><tspan x="0" y="16.8">nhân tạo</tspan></text>
  <rect x="190" y="220" width="140" height="60" fill="none" stroke="#c7d6d1"/>
  <text transform="translate(195 255)" fill="#1e8449" font-family="ArialMT, Arial" font-size="14" isolation="isolate"><tspan x="0" y="0">Cao</tspan></text>
  <rect x="330" y="220" width="140" height="60" fill="none" stroke="#c7d6d1"/>
  <text transform="translate(335 255)" fill="#1e8449" font-family="ArialMT, Arial" font-size="14" isolation="isolate"><tspan x="0" y="0">Cao</tspan></text>
  <rect x="470" y="220" width="140" height="60" fill="none" stroke="#c7d6d1"/>
  <text transform="translate(475 255)" font-family="ArialMT, Arial" font-size="14" isolation="isolate"><tspan x="0" y="0">TB</tspan></text>
  <rect x="610" y="220" width="140" height="60" fill="none" stroke="#c7d6d1"/>
  <text transform="translate(615 255)" font-family="ArialMT, Arial" font-size="14" isolation="isolate"><tspan x="0" y="0">TB</tspan></text>
  <rect x="750" y="220" width="140" height="60" fill="none" stroke="#c7d6d1"/>
  <text transform="translate(755 255)" fill="#c0392b" font-family="ArialMT, Arial" font-size="14" isolation="isolate"><tspan x="0" y="0">Thấp</tspan></text>
  <rect x="890" y="220" width="140" height="60" fill="none" stroke="#c7d6d1"/>
  <text transform="translate(895 255)" font-family="ArialMT, Arial" font-size="14" isolation="isolate"><tspan x="0" y="0">Không</tspan></text>
  <rect x="1030" y="220" width="140" height="60" fill="none" stroke="#c7d6d1"/>
  <text transform="translate(1035 255)" font-family="ArialMT, Arial" font-size="14" isolation="isolate"><tspan x="0" y="0">Khó</tspan></text>
  <rect x="1170" y="220" width="140" height="60" fill="none" stroke="#c7d6d1"/>
  <text transform="translate(1175 255)" font-family="ArialMT, Arial" font-size="14" isolation="isolate"><tspan x="0" y="0">TB</tspan></text>
  <rect x="1310" y="220" width="140" height="60" fill="none" stroke="#c7d6d1"/>
  <text transform="translate(1315 255)" fill="#1e8449" font-family="ArialMT, Arial" font-size="14" isolation="isolate"><tspan x="0" y="0">Nhiều</tspan></text>
  <rect x="1450" y="220" width="140" height="60" fill="none" stroke="#c7d6d1"/>
  <text transform="translate(1455 255)" font-family="ArialMT, Arial" font-size="14" isolation="isolate"><tspan x="0" y="0">$$$$</tspan></text>
  <rect y="280" width="1590" height="60" fill="#fff"/>
  <rect x="50" y="280" width="140" height="60" fill="none" stroke="#c7d6d1"/>
  <text transform="translate(55 315)" font-family="Arial-BoldMT, Arial" font-size="14" font-weight="700" isolation="isolate"><tspan x="0" y="0">Kính cường lực</tspan></text>
  <rect x="190" y="280" width="140" height="60" fill="none" stroke="#c7d6d1"/>
  <text transform="translate(195 315)" font-family="ArialMT, Arial" font-size="14" isolation="isolate"><tspan x="0" y="0">TB</tspan></text>
  <rect x="330" y="280" width="140" height="60" fill="none" stroke="#c7d6d1"/>
  <text transform="translate(335 315)" fill="#1e8449" font-family="ArialMT, Arial" font-size="14" isolation="isolate"><tspan x="0" y="0">Cao</tspan></text>
  <rect x="470" y="280" width="140" height="60" fill="none" stroke="#c7d6d1"/>
  <text transform="translate(475 315)" fill="#1e8449" font-family="ArialMT, Arial" font-size="14" isolation="isolate"><tspan x="0" y="0">Cao</tspan></text>
  <rect x="610" y="280" width="140" height="60" fill="none" stroke="#c7d6d1"/>
  <text transform="translate(615 315)" font-family="ArialMT, Arial" font-size="14" isolation="isolate"><tspan x="0" y="0">TB</tspan></text>
  <rect x="750" y="280" width="140" height="60" fill="none" stroke="#c7d6d1"/>
  <text transform="translate(755 315)" font-family="ArialMT, Arial" font-size="14" isolation="isolate"><tspan x="0" y="0">TB</tspan></text>
  <rect x="890" y="280" width="140" height="60" fill="none" stroke="#c7d6d1"/>
  <text transform="translate(895 315)" font-family="ArialMT, Arial" font-size="14" isolation="isolate"><tspan x="0" y="0">Không</tspan></text>
  <rect x="1030" y="280" width="140" height="60" fill="none" stroke="#c7d6d1"/>
  <text transform="translate(1035 315)" font-family="ArialMT, Arial" font-size="14" isolation="isolate"><tspan x="0" y="0">Khó</tspan></text>
  <rect x="1170" y="280" width="140" height="60" fill="none" stroke="#c7d6d1"/>
  <text transform="translate(1175 315)" font-family="ArialMT, Arial" font-size="14" isolation="isolate"><tspan x="0" y="0">Khó</tspan></text>
  <rect x="1310" y="280" width="140" height="60" fill="none" stroke="#c7d6d1"/>
  <text transform="translate(1315 315)" font-family="ArialMT, Arial" font-size="14" isolation="isolate"><tspan x="0" y="0">TB</tspan></text>
  <rect x="1450" y="280" width="140" height="60" fill="none" stroke="#c7d6d1"/>
  <text transform="translate(1455 315)" font-family="ArialMT, Arial" font-size="14" isolation="isolate"><tspan x="0" y="0">$$$</tspan></text>
  <rect y="340" width="1590" height="60" fill="#f4f8f7"/>
  <rect x="50" y="340" width="140" height="60" fill="none" stroke="#c7d6d1"/>
  <text transform="translate(55 375)" font-family="Arial-BoldMT, Arial" font-size="14" font-weight="700" isolation="isolate"><tspan x="0" y="0">Tấm acrylic</tspan></text>
  <rect x="190" y="340" width="140" height="60" fill="none" stroke="#c7d6d1"/>
  <text transform="translate(195 375)" fill="#c0392b" font-family="ArialMT, Arial" font-size="14" isolation="isolate"><tspan x="0" y="0">Thấp</tspan></text>
  <rect x="330" y="340" width="140" height="60" fill="none" stroke="#c7d6d1"/>
  <text transform="translate(335 375)" font-family="ArialMT, Arial" font-size="14" isolation="isolate"><tspan x="0" y="0">TB</tspan></text>
  <rect x="470" y="340" width="140" height="60" fill="none" stroke="#c7d6d1"/>
  <text transform="translate(475 375)" fill="#c0392b" font-family="ArialMT, Arial" font-size="14" isolation="isolate"><tspan x="0" y="0">Thấp</tspan></text>
  <rect x="610" y="340" width="140" height="60" fill="none" stroke="#c7d6d1"/>
  <text transform="translate(615 375)" fill="#c0392b" font-family="ArialMT, Arial" font-size="14" isolation="isolate"><tspan x="0" y="0">Thấp</tspan></text>
  <rect x="750" y="340" width="140" height="60" fill="none" stroke="#c7d6d1"/>
  <text transform="translate(755 375)" font-family="ArialMT, Arial" font-size="14" isolation="isolate"><tspan x="0" y="0">TB</tspan></text>
  <rect x="890" y="340" width="140" height="60" fill="none" stroke="#c7d6d1"/>
  <text transform="translate(895 375)" font-family="ArialMT, Arial" font-size="14" isolation="isolate"><tspan x="0" y="0">Không</tspan></text>
  <rect x="1030" y="340" width="140" height="60" fill="none" stroke="#c7d6d1"/>
  <text transform="translate(1035 375)" font-family="ArialMT, Arial" font-size="14" isolation="isolate"><tspan x="0" y="0">TB</tspan></text>
  <rect x="1170" y="340" width="140" height="60" fill="none" stroke="#c7d6d1"/>
  <text transform="translate(1175 375)" fill="#1e8449" font-family="ArialMT, Arial" font-size="14" isolation="isolate"><tspan x="0" y="0">Dễ</tspan></text>
  <rect x="1310" y="340" width="140" height="60" fill="none" stroke="#c7d6d1"/>
  <text transform="translate(1315 375)" fill="#1e8449" font-family="ArialMT, Arial" font-size="14" isolation="isolate"><tspan x="0" y="0">Nhiều</tspan></text>
  <rect x="1450" y="340" width="140" height="60" fill="none" stroke="#c7d6d1"/>
  <text transform="translate(1455 375)" font-family="ArialMT, Arial" font-size="14" isolation="isolate"><tspan x="0" y="0">$$</tspan></text>
  <rect y="400" width="1590" height="60" fill="#fff"/>
  <rect x="50" y="400" width="140" height="60" fill="none" stroke="#c7d6d1"/>
  <text transform="translate(55 435)" font-family="Arial-BoldMT, Arial" font-size="14" font-weight="700" isolation="isolate"><tspan x="0" y="0">Thép tráng men</tspan></text>
  <rect x="190" y="400" width="140" height="60" fill="none" stroke="#c7d6d1"/>
  <text transform="translate(195 435)" fill="#1e8449" font-family="ArialMT, Arial" font-size="14" isolation="isolate"><tspan x="0" y="0">Cao</tspan></text>
  <rect x="330" y="400" width="140" height="60" fill="none" stroke="#c7d6d1"/>
  <text transform="translate(335 435)" fill="#1e8449" font-family="ArialMT, Arial" font-size="14" isolation="isolate"><tspan x="0" y="0">Cao</tspan></text>
  <rect x="470" y="400" width="140" height="60" fill="none" stroke="#c7d6d1"/>
  <text transform="translate(475 435)" fill="#1e8449" font-family="ArialMT, Arial" font-size="14" isolation="isolate"><tspan x="0" y="0">Cao</tspan></text>
  <rect x="610" y="400" width="140" height="60" fill="none" stroke="#c7d6d1"/>
  <text transform="translate(615 435)" fill="#1e8449" font-family="ArialMT, Arial" font-size="14" isolation="isolate"><tspan x="0" y="0">Cao</tspan></text>
  <rect x="750" y="400" width="140" height="60" fill="none" stroke="#c7d6d1"/>
  <text transform="translate(755 435)" fill="#c0392b" font-family="ArialMT, Arial" font-size="14" isolation="isolate"><tspan x="0" y="0">Thấp</tspan></text>
  <rect x="890" y="400" width="140" height="60" fill="none" stroke="#c7d6d1"/>
  <text transform="translate(895 435)" fill="#309c47" font-family="ArialMT, Arial" font-size="14" isolation="isolate"><tspan x="0" y="0">Có</tspan></text>
  <rect x="1030" y="400" width="140" height="60" fill="none" stroke="#c7d6d1"/>
  <text transform="translate(1035 435)" font-family="ArialMT, Arial" font-size="14" isolation="isolate"><tspan x="0" y="0">Dễ</tspan></text>
  <rect x="1170" y="400" width="140" height="60" fill="none" stroke="#c7d6d1"/>
  <text transform="translate(1175 435)" fill="#1e8449" font-family="ArialMT, Arial" font-size="14" isolation="isolate"><tspan x="0" y="0">Dễ</tspan></text>
  <rect x="1310" y="400" width="140" height="60" fill="none" stroke="#c7d6d1"/>
  <text transform="translate(1315 435)" fill="#c0392b" font-family="ArialMT, Arial" font-size="14" isolation="isolate"><tspan x="0" y="0">Ít</tspan></text>
  <rect x="1450" y="400" width="140" height="60" fill="none" stroke="#c7d6d1"/>
  <text transform="translate(1455 435)" font-family="ArialMT, Arial" font-size="14" isolation="isolate"><tspan x="0" y="0">$$$</tspan></text>
  <rect y="460" width="1590" height="60" fill="#f4f8f7"/>
  <rect x="50" y="460" width="140" height="60" fill="none" stroke="#c7d6d1"/>
  <text transform="translate(55 495)" font-family="Arial-BoldMT, Arial" font-size="14" font-weight="700" isolation="isolate"><tspan x="0" y="0">Tấm laminate</tspan></text>
  <rect x="190" y="460" width="140" height="60" fill="none" stroke="#c7d6d1"/>
  <text transform="translate(195 495)" fill="#c0392b" font-family="ArialMT, Arial" font-size="14" isolation="isolate"><tspan x="0" y="0">Thấp</tspan></text>
  <rect x="330" y="460" width="140" height="60" fill="none" stroke="#c7d6d1"/>
  <text transform="translate(335 495)" font-family="ArialMT, Arial" font-size="14" isolation="isolate"><tspan x="0" y="0">TB</tspan></text>
  <rect x="470" y="460" width="140" height="60" fill="none" stroke="#c7d6d1"/>
  <text transform="translate(475 495)" fill="#c0392b" font-family="ArialMT, Arial" font-size="14" isolation="isolate"><tspan x="0" y="0">Thấp</tspan></text>
  <rect x="610" y="460" width="140" height="60" fill="none" stroke="#c7d6d1"/>
  <text transform="translate(615 495)" fill="#c0392b" font-family="ArialMT, Arial" font-size="14" isolation="isolate"><tspan x="0" y="0">Thấp</tspan></text>
  <rect x="750" y="460" width="140" height="60" fill="none" stroke="#c7d6d1"/>
  <text transform="translate(755 495)" font-family="ArialMT, Arial" font-size="14" isolation="isolate"><tspan x="0" y="0">TB</tspan></text>
  <rect x="890" y="460" width="140" height="60" fill="none" stroke="#c7d6d1"/>
  <text transform="translate(895 495)" font-family="ArialMT, Arial" font-size="14" isolation="isolate"><tspan x="0" y="0">Không</tspan></text>
  <rect x="1030" y="460" width="140" height="60" fill="none" stroke="#c7d6d1"/>
  <text transform="translate(1035 495)" font-family="ArialMT, Arial" font-size="14" isolation="isolate"><tspan x="0" y="0">TB</tspan></text>
  <rect x="1170" y="460" width="140" height="60" fill="none" stroke="#c7d6d1"/>
  <text transform="translate(1175 495)" fill="#1e8449" font-family="ArialMT, Arial" font-size="14" isolation="isolate"><tspan x="0" y="0">Dễ</tspan></text>
  <rect x="1310" y="460" width="140" height="60" fill="none" stroke="#c7d6d1"/>
  <text transform="translate(1315 495)" fill="#1e8449" font-family="ArialMT, Arial" font-size="14" isolation="isolate"><tspan x="0" y="0">Nhiều</tspan></text>
  <rect x="1450" y="460" width="140" height="60" fill="none" stroke="#c7d6d1"/>
  <text transform="translate(1455 495)" font-family="ArialMT, Arial" font-size="14" isolation="isolate"><tspan x="0" y="0">$</tspan></text>
  <rect y="520" width="1590" height="60" fill="#fff"/>
  <rect x="50" y="520" width="140" height="60" fill="none" stroke="#c7d6d1"/>
  <text transform="translate(55 555)" font-family="Arial-BoldMT, Arial" font-size="14" font-weight="700" isolation="isolate"><tspan x="0" y="0">Inox 304/ kim loại</tspan></text>
  <rect x="190" y="520" width="140" height="60" fill="none" stroke="#c7d6d1"/>
  <text transform="translate(195 555)" fill="#1e8449" font-family="ArialMT, Arial" font-size="14" isolation="isolate"><tspan x="0" y="0">Cao</tspan></text>
  <rect x="330" y="520" width="140" height="60" fill="none" stroke="#c7d6d1"/>
  <text transform="translate(335 555)" fill="#1e8449" font-family="ArialMT, Arial" font-size="14" isolation="isolate"><tspan x="0" y="0">Cao</tspan></text>
  <rect x="470" y="520" width="140" height="60" fill="none" stroke="#c7d6d1"/>
  <text transform="translate(475 555)" fill="#1e8449" font-family="ArialMT, Arial" font-size="14" isolation="isolate"><tspan x="0" y="0">Cao</tspan></text>
  <rect x="610" y="520" width="140" height="60" fill="none" stroke="#c7d6d1"/>
  <text transform="translate(615 555)" fill="#1e8449" font-family="ArialMT, Arial" font-size="14" isolation="isolate"><tspan x="0" y="0">Cao</tspan></text>
  <rect x="750" y="520" width="140" height="60" fill="none" stroke="#c7d6d1"/>
  <text transform="translate(755 555)" font-family="ArialMT, Arial" font-size="14" isolation="isolate"><tspan x="0" y="0">TB</tspan></text>
  <rect x="890" y="520" width="140" height="60" fill="none" stroke="#c7d6d1"/>
  <text transform="translate(895 555)" font-family="ArialMT, Arial" font-size="14" isolation="isolate"><tspan x="0" y="0">Có (hạn chế)</tspan></text>
  <rect x="1030" y="520" width="140" height="60" fill="none" stroke="#c7d6d1"/>
  <text transform="translate(1035 555)" font-family="ArialMT, Arial" font-size="14" isolation="isolate"><tspan x="0" y="0">Khó</tspan></text>
  <rect x="1170" y="520" width="140" height="60" fill="none" stroke="#c7d6d1"/>
  <text transform="translate(1175 555)" font-family="ArialMT, Arial" font-size="14" isolation="isolate"><tspan x="0" y="0">TB</tspan></text>
  <rect x="1310" y="520" width="140" height="60" fill="none" stroke="#c7d6d1"/>
  <text transform="translate(1315 555)" fill="#c0392b" font-family="ArialMT, Arial" font-size="14" isolation="isolate"><tspan x="0" y="0">Ít</tspan></text>
  <rect x="1450" y="520" width="140" height="60" fill="none" stroke="#c7d6d1"/>
  <text transform="translate(1455 555)" font-family="ArialMT, Arial" font-size="14" isolation="isolate"><tspan x="0" y="0">$$$$</tspan></text>
  <rect y="580" width="1590" height="60" fill="#f4f8f7"/>
  <rect x="50" y="580" width="140" height="60" fill="none" stroke="#c7d6d1"/>
  <text transform="translate(55 615)" font-family="Arial-BoldMT, Arial" font-size="14" font-weight="700" isolation="isolate"><tspan x="0" y="0">Gạch</tspan></text>
  <rect x="190" y="580" width="140" height="60" fill="none" stroke="#c7d6d1"/>
  <text transform="translate(195 615)" fill="#1e8449" font-family="ArialMT, Arial" font-size="14" isolation="isolate"><tspan x="0" y="0">Cao</tspan></text>
  <rect x="330" y="580" width="140" height="60" fill="none" stroke="#c7d6d1"/>
  <text transform="translate(335 615)" fill="#1e8449" font-family="ArialMT, Arial" font-size="14" isolation="isolate"><tspan x="0" y="0">Cao</tspan></text>
  <rect x="470" y="580" width="140" height="60" fill="none" stroke="#c7d6d1"/>
  <text transform="translate(475 615)" fill="#1e8449" font-family="ArialMT, Arial" font-size="14" isolation="isolate"><tspan x="0" y="0">Cao</tspan></text>
  <rect x="610" y="580" width="140" height="60" fill="none" stroke="#c7d6d1"/>
  <text transform="translate(615 615)" fill="#1e8449" font-family="ArialMT, Arial" font-size="14" isolation="isolate"><tspan x="0" y="0">Cao</tspan></text>
  <rect x="750" y="580" width="140" height="60" fill="none" stroke="#c7d6d1"/>
  <text transform="translate(755 615)" fill="#c0392b" font-family="ArialMT, Arial" font-size="14" isolation="isolate"><tspan x="0" y="0">Thấp</tspan></text>
  <rect x="890" y="580" width="140" height="60" fill="none" stroke="#c7d6d1"/>
  <text transform="translate(895 615)" font-family="ArialMT, Arial" font-size="14" isolation="isolate"><tspan x="0" y="0">Không</tspan></text>
  <rect x="1030" y="580" width="140" height="60" fill="none" stroke="#c7d6d1"/>
  <text transform="translate(1035 615)" font-family="ArialMT, Arial" font-size="14" isolation="isolate"><tspan x="0" y="0">Khó</tspan></text>
  <rect x="1170" y="580" width="140" height="60" fill="none" stroke="#c7d6d1"/>
  <text transform="translate(1175 615)" font-family="ArialMT, Arial" font-size="14" isolation="isolate"><tspan x="0" y="0">Khó</tspan></text>
  <rect x="1310" y="580" width="140" height="60" fill="none" stroke="#c7d6d1"/>
  <text transform="translate(1315 615)" font-family="ArialMT, Arial" font-size="14" isolation="isolate"><tspan x="0" y="0">TB</tspan></text>
  <rect x="1450" y="580" width="140" height="60" fill="none" stroke="#c7d6d1"/>
  <text transform="translate(1455 615)" font-family="ArialMT, Arial" font-size="14" isolation="isolate"><tspan x="0" y="0">$$$$</tspan></text>
  <text transform="translate(50 740)" fill="#356854" font-family="ArialMT, Arial" font-size="14" isolation="isolate"><tspan x="0" y="0">&quot;TB&quot; = Trung Bình (mức trung bình trong so sánh)</tspan></text>
  <text transform="translate(50 770)" fill="#356854" font-family="ArialMT, Arial" font-size="14" isolation="isolate"><tspan x="0" y="0">Bảng này là so sánh tổng quan, so sánh chi tiết các tính chất còn phụ thuộc mã sản phẩm chi tiết, nhà sản xuất và nguồn gốc xuất xứ.</tspan></text>
  <text transform="translate(50 698.97)" fill="#356854" font-size="14" font-weight="700" isolation="isolate"><tspan x="0" y="0" font-family="ArtifaktElement-Bold, &apos;Artifakt Element&apos;">L</tspan><tspan x="7.35" y="0" font-family="Arial-BoldMT, Arial">Ư</tspan><tspan x="18.96" y="0" font-family="ArtifaktElement-Bold, &apos;Artifakt Element&apos;" letter-spacing="0em">U Ý</tspan></text>
</svg>