<?xml version="1.0" encoding="UTF-8"?>
<svg id="Layer_1" data-name="Layer 1" xmlns="http://www.w3.org/2000/svg" xmlns:xlink="http://www.w3.org/1999/xlink" viewBox="0 0 1200 675">
  <defs>
    <style>
      .cls-1, .cls-2, .cls-3, .cls-4, .cls-5 {
        fill: #4d4d4d;
      }

      .cls-6, .cls-3 {
        font-size: 21px;
      }

      .cls-2, .cls-3, .cls-7, .cls-4, .cls-8, .cls-9 {
        font-family: ArialMT, Arial;
      }

      .cls-10 {
        letter-spacing: -.07em;
      }

      .cls-11 {
        fill: #006837;
      }

      .cls-11, .cls-5, .cls-12 {
        font-family: Arial-BoldMT, Arial;
        font-weight: 700;
      }

      .cls-13, .cls-14 {
        fill: #437355;
      }

      .cls-4 {
        font-size: 18px;
      }

      .cls-15 {
        letter-spacing: -.02em;
      }

      .cls-16, .cls-14, .cls-17, .cls-18, .cls-19, .cls-20 {
        stroke-miterlimit: 10;
      }

      .cls-16, .cls-14, .cls-18, .cls-19 {
        stroke-width: .5px;
      }

      .cls-16, .cls-17, .cls-19, .cls-20 {
        fill: none;
      }

      .cls-16, .cls-18 {
        stroke: #212830;
      }

      .cls-16, .cls-18, .cls-19 {
        stroke-linecap: square;
      }

      .cls-21 {
        fill: #999;
      }

      .cls-8 {
        letter-spacing: -.11em;
      }

      .cls-22 {
        font-family: KozGoPr6N-Regular-90ms-RKSJ-H, 'Kozuka Gothic Pr6N';
      }

      .cls-14, .cls-19 {
        stroke: #000;
      }

      .cls-17 {
        stroke: #b3b3b3;
      }

      .cls-18 {
        fill: #ccc;
      }

      .cls-9 {
        letter-spacing: -.02em;
      }

      .cls-5 {
        font-size: 24px;
      }

      .cls-12 {
        fill: #fff;
        font-size: 38px;
        opacity: .95;
      }

      .cls-20 {
        stroke: #333;
      }
    </style>
  </defs>
  <rect class="cls-14" y="1.26" width="1199" height="89.43"/>
  <text class="cls-12" transform="translate(311.07 60.74)"><tspan class="cls-10" x="0" y="0">T</tspan><tspan x="20.39" y="0">AM GIÁC CÔNG NĂNG TỦ BẾ</tspan><tspan class="cls-15" x="556.6" y="0">P</tspan></text>
  <rect class="cls-21" x="78.3" y="161.72" width="493.68" height="150"/>
  <rect class="cls-21" x="78.3" y="311.4" width="150" height="197.22"/>
  <g>
    <line class="cls-19" x1="499.7" y1="197.41" x2="335.73" y2="197.41"/>
    <line class="cls-19" x1="335.73" y1="287.75" x2="499.7" y2="287.75"/>
    <line class="cls-19" x1="442.05" y1="210.94" x2="408.6" y2="210.94"/>
    <polyline class="cls-19" points="408.6 210.94 407.89 210.97 407.18 211.06 406.49 211.18 405.78 211.38 405.13 211.62 404.48 211.91 403.85 212.26 403.26 212.68 402.69 213.12 402.19 213.59 401.69 214.12 401.24 214.68 400.85 215.26 400.5 215.88 400.2 216.53 399.96 217.18 399.76 217.85 399.64 218.56 399.55 219.26 399.52 219.97"/>
    <line class="cls-19" x1="399.49" y1="219.97" x2="399.49" y2="269.69"/>
    <polyline class="cls-19" points="399.52 269.69 399.55 270.39 399.64 271.1 399.76 271.8 399.96 272.48 400.2 273.13 400.5 273.78 400.85 274.39 401.24 274.98 401.69 275.54 402.19 276.07 402.69 276.54 403.26 276.98 403.85 277.39 404.48 277.75 405.13 278.04 405.78 278.28 406.49 278.48 407.18 278.6 407.89 278.69 408.6 278.72"/>
    <line class="cls-19" x1="408.6" y1="278.72" x2="481.5" y2="278.72"/>
    <polyline class="cls-19" points="481.5 278.72 482.21 278.69 482.93 278.6 483.61 278.48 484.32 278.28 484.97 278.04 485.63 277.75 486.25 277.39 486.84 276.98 487.41 276.54 487.91 276.07 488.42 275.54 488.86 274.98 489.25 274.39 489.6 273.78 489.9 273.13 490.14 272.48 490.35 271.8 490.46 271.1 490.55 270.39 490.58 269.69"/>
    <line class="cls-19" x1="490.58" y1="269.69" x2="490.58" y2="219.97"/>
    <polyline class="cls-19" points="490.58 219.97 490.55 219.26 490.46 218.56 490.35 217.85 490.14 217.18 489.9 216.53 489.6 215.88 489.25 215.26 488.86 214.68 488.42 214.12 487.91 213.59 487.41 213.12 486.84 212.68 486.25 212.26 485.63 211.91 484.97 211.62 484.32 211.38 483.61 211.18 482.93 211.06 482.21 210.97 481.5 210.94"/>
    <line class="cls-19" x1="481.5" y1="210.94" x2="448.05" y2="210.94"/>
    <line class="cls-19" x1="448.7" y1="199.97" x2="447.75" y2="220.18"/>
    <polyline class="cls-19" points="442.35 220.18 442.41 220.56 442.53 220.94 442.71 221.29 442.94 221.62 443.21 221.88 443.54 222.15 443.89 222.32 444.25 222.47 444.67 222.56 445.05 222.59 445.44 222.56 445.85 222.47 446.21 222.32 446.57 222.15 446.89 221.88 447.16 221.62 447.4 221.29 447.57 220.94 447.69 220.56 447.75 220.18"/>
    <line class="cls-19" x1="442.32" y1="220.18" x2="441.4" y2="199.97"/>
    <polyline class="cls-19" points="448.7 199.97 448.49 199.53 448.26 199.11 447.99 198.76 447.66 198.41 447.28 198.11 446.89 197.88 446.45 197.67 446 197.53 445.53 197.44 445.05 197.41 444.58 197.44 444.1 197.53 443.66 197.67 443.21 197.88 442.83 198.11 442.44 198.41 442.11 198.76 441.85 199.11 441.61 199.53 441.4 199.97"/>
    <polyline class="cls-19" points="442.32 219.44 442.02 219.82 441.79 220.27 441.61 220.71 441.49 221.18 441.43 221.65 441.46 222.12 441.52 222.62 441.67 223.06 441.88 223.5 442.11 223.91 442.44 224.3 442.8 224.62 443.21 224.88 443.63 225.09 444.1 225.27 444.58 225.35 445.05 225.38 445.53 225.35 446 225.27 446.48 225.09 446.89 224.88 447.31 224.62 447.66 224.3 447.99 223.91 448.23 223.5 448.43 223.06 448.58 222.62 448.64 222.12 448.67 221.65 448.61 221.18 448.49 220.71 448.32 220.27 448.08 219.82 447.78 219.44"/>
    <polyline class="cls-19" points="442.17 217.21 441.67 217.56 441.19 217.94 440.81 218.41 440.45 218.88 440.15 219.44 439.92 220 439.74 220.56 439.62 221.18 439.59 221.77 439.62 222.38 439.74 222.97 439.89 223.56 440.12 224.12 440.42 224.68 440.78 225.15 441.19 225.62 441.64 226.03 442.14 226.38 442.68 226.68 443.24 226.91 443.83 227.06 444.43 227.18 445.05 227.21 445.67 227.18 446.27 227.06 446.86 226.91 447.43 226.68 447.96 226.38 448.46 226.03 448.91 225.62 449.33 225.15 449.68 224.68 449.98 224.12 450.22 223.56 450.36 222.97 450.48 222.38 450.51 221.77 450.48 221.18 450.36 220.56 450.19 220 449.95 219.44 449.65 218.88 449.3 218.41 448.91 217.94 448.43 217.56 447.93 217.21"/>
    <line class="cls-19" x1="344.84" y1="269.69" x2="390.38" y2="269.69"/>
    <line class="cls-19" x1="344.84" y1="260.63" x2="390.38" y2="260.63"/>
    <line class="cls-19" x1="344.84" y1="251.59" x2="390.38" y2="251.59"/>
    <line class="cls-19" x1="344.84" y1="242.56" x2="390.38" y2="242.56"/>
    <line class="cls-19" x1="344.84" y1="233.53" x2="390.38" y2="233.53"/>
    <line class="cls-19" x1="344.84" y1="224.5" x2="390.38" y2="224.5"/>
    <line class="cls-19" x1="344.84" y1="215.47" x2="390.38" y2="215.47"/>
    <line class="cls-19" x1="335.73" y1="197.41" x2="335.73" y2="287.75"/>
    <polygon class="cls-19" points="435.02 204.61 434.99 204.06 434.87 203.5 434.69 202.97 434.45 202.44 434.16 201.97 433.8 201.53 433.39 201.14 432.91 200.82 432.41 200.56 431.87 200.32 431.34 200.2 430.77 200.11 430.18 200.11 429.62 200.2 429.08 200.32 428.55 200.56 428.04 200.82 427.57 201.14 427.15 201.53 426.8 201.97 426.5 202.44 426.26 202.97 426.08 203.5 425.97 204.06 425.94 204.61 425.97 205.17 426.08 205.73 426.26 206.26 426.5 206.79 426.8 207.26 427.15 207.7 427.57 208.09 428.04 208.41 428.55 208.67 429.08 208.91 429.62 209.03 430.18 209.12 430.77 209.12 431.34 209.03 431.87 208.91 432.41 208.67 432.91 208.41 433.39 208.09 433.8 207.7 434.16 207.26 434.45 206.79 434.69 206.26 434.87 205.73 434.99 205.17 435.02 204.61 435.02 204.61"/>
    <line class="cls-19" x1="430.48" y1="198.29" x2="430.48" y2="210.94"/>
    <line class="cls-19" x1="424.1" y1="204.61" x2="436.86" y2="204.61"/>
    <polygon class="cls-19" points="434.1 204.61 434.07 204.11 433.95 203.64 433.8 203.17 433.56 202.76 433.3 202.35 432.94 202 432.56 201.67 432.14 201.44 431.69 201.23 431.22 201.11 430.71 201.03 430.24 201.03 429.74 201.11 429.26 201.23 428.82 201.44 428.4 201.67 428.01 202 427.66 202.35 427.39 202.76 427.15 203.17 427 203.64 426.89 204.11 426.86 204.61 426.89 205.12 427 205.59 427.15 206.06 427.39 206.47 427.66 206.88 428.01 207.23 428.4 207.56 428.82 207.79 429.26 208 429.74 208.12 430.24 208.2 430.71 208.2 431.22 208.12 431.69 208 432.14 207.79 432.56 207.56 432.94 207.23 433.3 206.88 433.56 206.47 433.8 206.06 433.95 205.59 434.07 205.12 434.1 204.61 434.1 204.61"/>
    <line class="cls-19" x1="499.7" y1="287.75" x2="499.7" y2="197.41"/>
    <polygon class="cls-19" points="464.17 204.61 464.14 204.06 464.02 203.5 463.84 202.97 463.6 202.44 463.31 201.97 462.95 201.53 462.53 201.14 462.06 200.82 461.55 200.56 461.02 200.32 460.49 200.2 459.92 200.11 459.33 200.11 458.76 200.2 458.23 200.32 457.7 200.56 457.19 200.82 456.72 201.14 456.3 201.53 455.94 201.97 455.65 202.44 455.41 202.97 455.23 203.5 455.11 204.06 455.08 204.61 455.11 205.17 455.23 205.73 455.41 206.26 455.65 206.79 455.94 207.26 456.3 207.7 456.72 208.09 457.19 208.41 457.7 208.67 458.23 208.91 458.76 209.03 459.33 209.12 459.92 209.12 460.49 209.03 461.02 208.91 461.55 208.67 462.06 208.41 462.53 208.09 462.95 207.7 463.31 207.26 463.6 206.79 463.84 206.26 464.02 205.73 464.14 205.17 464.17 204.61 464.17 204.61"/>
    <line class="cls-19" x1="459.63" y1="198.29" x2="459.63" y2="210.94"/>
    <line class="cls-19" x1="466.01" y1="204.61" x2="453.24" y2="204.61"/>
    <polygon class="cls-19" points="463.25 204.61 463.22 204.11 463.1 203.64 462.95 203.17 462.71 202.76 462.44 202.35 462.09 202 461.7 201.67 461.29 201.44 460.84 201.23 460.37 201.11 459.86 201.03 459.39 201.03 458.88 201.11 458.41 201.23 457.96 201.44 457.55 201.67 457.16 202 456.81 202.35 456.54 202.76 456.3 203.17 456.15 203.64 456.03 204.11 456 204.61 456.03 205.12 456.15 205.59 456.3 206.06 456.54 206.47 456.81 206.88 457.16 207.23 457.55 207.56 457.96 207.79 458.41 208 458.88 208.12 459.39 208.2 459.86 208.2 460.37 208.12 460.84 208 461.29 207.79 461.7 207.56 462.09 207.23 462.44 206.88 462.71 206.47 462.95 206.06 463.1 205.59 463.22 205.12 463.25 204.61 463.25 204.61"/>
  </g>
  <g>
    <line class="cls-16" x1="155.65" y1="419.43" x2="155.65" y2="427.6"/>
    <line class="cls-16" x1="172.47" y1="410.74" x2="164.36" y2="410.74"/>
    <line class="cls-16" x1="155.65" y1="393.7" x2="155.65" y2="401.87"/>
    <line class="cls-16" x1="147.54" y1="410.74" x2="139.44" y2="410.74"/>
    <line class="cls-16" x1="138.32" y1="358" x2="138.32" y2="366.21"/>
    <line class="cls-16" x1="138.32" y1="382.3" x2="138.32" y2="390.47"/>
    <line class="cls-16" x1="154.85" y1="374.23" x2="146.71" y2="374.23"/>
    <line class="cls-16" x1="130.32" y1="374.23" x2="122.22" y2="374.23"/>
    <line class="cls-16" x1="138.32" y1="453.15" x2="138.32" y2="461.33"/>
    <line class="cls-16" x1="138.32" y1="428.89" x2="138.32" y2="437.06"/>
    <line class="cls-16" x1="154.85" y1="445.09" x2="146.71" y2="445.09"/>
    <line class="cls-16" x1="130.32" y1="445.09" x2="122.22" y2="445.09"/>
    <line class="cls-16" x1="171.96" y1="379.81" x2="171.96" y2="387.98"/>
    <line class="cls-16" x1="166.43" y1="374.31" x2="158.3" y2="374.31"/>
    <line class="cls-16" x1="185.25" y1="374.23" x2="177.12" y2="374.23"/>
    <line class="cls-16" x1="171.96" y1="360.93" x2="171.96" y2="369.1"/>
    <line class="cls-16" x1="173.88" y1="431.71" x2="173.88" y2="439.88"/>
    <line class="cls-16" x1="173.88" y1="450.59" x2="173.88" y2="458.76"/>
    <line class="cls-16" x1="187.14" y1="445.02" x2="179.04" y2="445.02"/>
    <line class="cls-16" x1="168.32" y1="445.13" x2="160.22" y2="445.13"/>
    <polygon class="cls-16" points="156.23 395.93 155.1 395.97 154.01 396.12 152.92 396.34 151.83 396.63 150.78 397 149.76 397.47 148.78 397.99 147.83 398.61 146.96 399.31 146.13 400.04 145.36 400.85 144.64 401.73 143.98 402.64 143.44 403.59 142.93 404.62 142.53 405.65 142.17 406.75 141.91 407.85 141.77 408.95 141.66 410.08 141.66 411.18 141.77 412.32 141.91 413.42 142.17 414.52 142.53 415.62 142.93 416.64 143.44 417.67 143.98 418.62 144.64 419.54 145.36 420.42 146.13 421.23 146.96 421.96 147.83 422.66 148.78 423.28 149.76 423.79 150.78 424.27 151.83 424.63 152.92 424.93 154.01 425.15 155.1 425.29 156.23 425.33 157.35 425.29 158.44 425.15 159.53 424.93 160.62 424.63 161.68 424.27 162.69 423.79 163.67 423.28 164.62 422.66 165.49 421.96 166.33 421.23 167.09 420.42 167.82 419.54 168.47 418.62 169.01 417.67 169.52 416.64 169.92 415.62 170.29 414.52 170.54 413.42 170.69 412.32 170.79 411.18 170.79 410.08 170.69 408.95 170.54 407.85 170.29 406.75 169.92 405.65 169.52 404.62 169.01 403.59 168.47 402.64 167.82 401.73 167.09 400.85 166.33 400.04 165.49 399.31 164.62 398.61 163.67 397.99 162.69 397.47 161.68 397 160.62 396.63 159.53 396.34 158.44 396.12 157.35 395.97 156.23 395.93 156.23 395.93"/>
    <polygon class="cls-16" points="156.23 400.85 155.32 400.88 154.37 401.03 153.5 401.25 152.63 401.54 151.79 401.95 151 402.39 150.23 402.93 149.54 403.56 148.89 404.22 148.34 404.95 147.83 405.72 147.4 406.56 147.07 407.44 146.82 408.32 146.64 409.24 146.53 410.16 146.53 411.11 146.64 412.03 146.82 412.94 147.07 413.82 147.4 414.7 147.83 415.51 148.34 416.31 148.89 417.05 149.54 417.71 150.23 418.33 151 418.88 151.79 419.32 152.63 419.72 153.5 420.02 154.37 420.24 155.32 420.38 156.23 420.42 157.13 420.38 158.08 420.24 158.95 420.02 159.82 419.72 160.66 419.32 161.46 418.88 162.22 418.33 162.91 417.71 163.56 417.05 164.11 416.31 164.62 415.51 165.05 414.7 165.38 413.82 165.64 412.94 165.82 412.03 165.93 411.11 165.93 410.16 165.82 409.24 165.64 408.32 165.38 407.44 165.05 406.56 164.62 405.72 164.11 404.95 163.56 404.22 162.91 403.56 162.22 402.93 161.46 402.39 160.66 401.95 159.82 401.54 158.95 401.25 158.08 401.03 157.13 400.88 156.23 400.85 156.23 400.85"/>
    <polygon class="cls-16" points="156.23 404.11 155.46 404.14 154.74 404.29 154.01 404.51 153.32 404.8 152.67 405.17 152.08 405.65 151.54 406.16 151.03 406.75 150.63 407.37 150.3 408.03 150.01 408.76 149.87 409.5 149.76 410.27 149.76 411 149.87 411.77 150.01 412.5 150.3 413.24 150.63 413.89 151.03 414.52 151.54 415.1 152.08 415.62 152.67 416.09 153.32 416.46 154.01 416.75 154.74 416.97 155.46 417.12 156.23 417.16 156.99 417.12 157.72 416.97 158.44 416.75 159.13 416.46 159.79 416.09 160.37 415.62 160.91 415.1 161.42 414.52 161.82 413.89 162.15 413.24 162.44 412.5 162.58 411.77 162.69 411 162.69 410.27 162.58 409.5 162.44 408.76 162.15 408.03 161.82 407.37 161.42 406.75 160.91 406.16 160.37 405.65 159.79 405.17 159.13 404.8 158.44 404.51 157.72 404.29 156.99 404.14 156.23 404.11 156.23 404.11"/>
    <polygon class="cls-16" points="171.77 369.8 171.16 369.84 170.54 369.98 169.92 370.2 169.38 370.46 168.87 370.82 168.4 371.26 168 371.78 167.67 372.33 167.42 372.88 167.27 373.5 167.16 374.12 167.16 374.78 167.27 375.41 167.42 376.03 167.67 376.58 168 377.13 168.4 377.64 168.87 378.08 169.38 378.45 169.92 378.71 170.54 378.93 171.16 379.07 171.77 379.11 172.39 379.07 173.01 378.93 173.63 378.71 174.17 378.45 174.68 378.08 175.15 377.64 175.55 377.13 175.88 376.58 176.13 376.03 176.28 375.41 176.39 374.78 176.39 374.12 176.28 373.5 176.13 372.88 175.88 372.33 175.55 371.78 175.15 371.26 174.68 370.82 174.17 370.46 173.63 370.2 173.01 369.98 172.39 369.84 171.77 369.8 171.77 369.8"/>
    <polygon class="cls-16" points="171.77 372.25 171.34 372.29 170.94 372.44 170.58 372.62 170.25 372.91 169.96 373.24 169.78 373.61 169.63 374.01 169.6 374.45 169.63 374.89 169.78 375.3 169.96 375.66 170.25 375.99 170.58 376.29 170.94 376.47 171.34 376.62 171.77 376.65 172.21 376.62 172.61 376.47 172.97 376.29 173.3 375.99 173.59 375.66 173.77 375.3 173.92 374.89 173.95 374.45 173.92 374.01 173.77 373.61 173.59 373.24 173.3 372.91 172.97 372.62 172.61 372.44 172.21 372.29 171.77 372.25 171.77 372.25"/>
    <polygon class="cls-16" points="171.77 364.67 170.87 364.7 169.92 364.85 169.05 365.07 168.18 365.36 167.34 365.77 166.54 366.21 165.78 366.76 165.09 367.38 164.44 368.04 163.89 368.77 163.38 369.54 162.95 370.38 162.62 371.26 162.37 372.14 162.18 373.06 162.08 373.98 162.08 374.93 162.18 375.85 162.37 376.76 162.62 377.64 162.95 378.52 163.38 379.33 163.89 380.14 164.44 380.87 165.09 381.53 165.78 382.15 166.54 382.7 167.34 383.14 168.18 383.54 169.05 383.84 169.92 384.06 170.87 384.2 171.77 384.24 172.68 384.2 173.63 384.06 174.5 383.84 175.37 383.54 176.21 383.14 177.01 382.7 177.77 382.15 178.46 381.53 179.11 380.87 179.66 380.14 180.17 379.33 180.6 378.52 180.93 377.64 181.18 376.76 181.37 375.85 181.47 374.93 181.47 373.98 181.37 373.06 181.18 372.14 180.93 371.26 180.6 370.38 180.17 369.54 179.66 368.77 179.11 368.04 178.46 367.38 177.77 366.76 177.01 366.21 176.21 365.77 175.37 365.36 174.5 365.07 173.63 364.85 172.68 364.7 171.77 364.67 171.77 364.67"/>
    <polygon class="cls-16" points="138.64 366.87 137.84 366.9 137.08 367.05 136.32 367.23 135.59 367.53 134.9 367.93 134.25 368.37 133.63 368.88 133.12 369.47 132.61 370.09 132.21 370.75 131.89 371.48 131.63 372.22 131.49 373.02 131.38 373.79 131.38 374.6 131.49 375.37 131.63 376.18 131.89 376.91 132.21 377.64 132.61 378.3 133.12 378.93 133.63 379.51 134.25 380.03 134.9 380.47 135.59 380.87 136.32 381.16 137.08 381.34 137.84 381.49 138.64 381.53 139.44 381.49 140.21 381.34 140.97 381.16 141.69 380.87 142.39 380.47 143.04 380.03 143.66 379.51 144.17 378.93 144.67 378.3 145.07 377.64 145.4 376.91 145.65 376.18 145.8 375.37 145.91 374.6 145.91 373.79 145.8 373.02 145.65 372.22 145.4 371.48 145.07 370.75 144.67 370.09 144.17 369.47 143.66 368.88 143.04 368.37 142.39 367.93 141.69 367.53 140.97 367.23 140.21 367.05 139.44 366.9 138.64 366.87 138.64 366.87"/>
    <polygon class="cls-16" points="138.64 370.13 138.06 370.16 137.52 370.27 136.97 370.49 136.46 370.79 135.99 371.12 135.59 371.52 135.26 372 134.97 372.51 134.76 373.06 134.65 373.61 134.61 374.2 134.65 374.78 134.76 375.33 134.97 375.88 135.26 376.4 135.59 376.87 135.99 377.28 136.46 377.61 136.97 377.9 137.52 378.12 138.06 378.23 138.64 378.27 139.22 378.23 139.77 378.12 140.31 377.9 140.82 377.61 141.3 377.28 141.69 376.87 142.02 376.4 142.31 375.88 142.53 375.33 142.64 374.78 142.68 374.2 142.64 373.61 142.53 373.06 142.31 372.51 142.02 372 141.69 371.52 141.3 371.12 140.82 370.79 140.31 370.49 139.77 370.27 139.22 370.16 138.64 370.13 138.64 370.13"/>
    <polygon class="cls-16" points="138.64 361.15 137.59 361.18 136.5 361.33 135.48 361.55 134.43 361.84 133.45 362.25 132.5 362.72 131.56 363.27 130.69 363.9 129.89 364.59 129.13 365.36 128.43 366.17 127.82 367.05 127.27 368 126.8 368.96 126.4 369.94 126.11 371.01 125.89 372.03 125.75 373.13 125.71 374.2 125.75 375.26 125.89 376.36 126.11 377.39 126.4 378.45 126.8 379.44 127.27 380.39 127.82 381.34 128.43 382.22 129.13 383.03 129.89 383.8 130.69 384.5 131.56 385.12 132.5 385.67 133.45 386.15 134.43 386.55 135.48 386.84 136.5 387.06 137.59 387.21 138.64 387.25 139.7 387.21 140.79 387.06 141.8 386.84 142.86 386.55 143.84 386.15 144.78 385.67 145.73 385.12 146.6 384.5 147.4 383.8 148.16 383.03 148.85 382.22 149.47 381.34 150.01 380.39 150.49 379.44 150.89 378.45 151.18 377.39 151.39 376.36 151.54 375.26 151.58 374.2 151.54 373.13 151.39 372.03 151.18 371.01 150.89 369.94 150.49 368.96 150.01 368 149.47 367.05 148.85 366.17 148.16 365.36 147.4 364.59 146.6 363.9 145.73 363.27 144.78 362.72 143.84 362.25 142.86 361.84 141.8 361.55 140.79 361.33 139.7 361.18 138.64 361.15 138.64 361.15"/>
    <polygon class="cls-16" points="173.7 435.45 172.79 435.48 171.85 435.63 170.98 435.85 170.1 436.14 169.27 436.55 168.47 436.99 167.71 437.54 167.02 438.16 166.36 438.82 165.82 439.55 165.31 440.32 164.87 441.17 164.55 442.05 164.29 442.93 164.11 443.84 164 444.76 164 445.71 164.11 446.63 164.29 447.54 164.55 448.42 164.87 449.3 165.31 450.11 165.82 450.92 166.36 451.65 167.02 452.31 167.71 452.93 168.47 453.48 169.27 453.92 170.1 454.33 170.98 454.62 171.85 454.84 172.79 454.99 173.7 455.02 174.61 454.99 175.55 454.84 176.43 454.62 177.3 454.33 178.13 453.92 178.93 453.48 179.69 452.93 180.38 452.31 181.04 451.65 181.58 450.92 182.09 450.11 182.53 449.3 182.86 448.42 183.11 447.54 183.29 446.63 183.4 445.71 183.4 444.76 183.29 443.84 183.11 442.93 182.86 442.05 182.53 441.17 182.09 440.32 181.58 439.55 181.04 438.82 180.38 438.16 179.69 437.54 178.93 436.99 178.13 436.55 177.3 436.14 176.43 435.85 175.55 435.63 174.61 435.48 173.7 435.45 173.7 435.45"/>
    <polygon class="cls-16" points="173.7 443.04 173.26 443.07 172.86 443.22 172.5 443.4 172.17 443.7 171.88 444.03 171.7 444.39 171.56 444.8 171.52 445.24 171.56 445.67 171.7 446.08 171.88 446.44 172.17 446.77 172.5 447.07 172.86 447.25 173.26 447.4 173.7 447.43 174.14 447.4 174.54 447.25 174.9 447.07 175.23 446.77 175.52 446.44 175.7 446.08 175.84 445.67 175.88 445.24 175.84 444.8 175.7 444.39 175.52 444.03 175.23 443.7 174.9 443.4 174.54 443.22 174.14 443.07 173.7 443.04 173.7 443.04"/>
    <polygon class="cls-16" points="173.7 440.58 173.08 440.62 172.47 440.76 171.85 440.98 171.3 441.24 170.79 441.61 170.32 442.05 169.92 442.56 169.6 443.11 169.34 443.66 169.2 444.28 169.09 444.91 169.09 445.57 169.2 446.19 169.34 446.81 169.6 447.36 169.92 447.91 170.32 448.42 170.79 448.86 171.3 449.23 171.85 449.49 172.47 449.71 173.08 449.85 173.7 449.89 174.32 449.85 174.94 449.71 175.55 449.49 176.1 449.23 176.61 448.86 177.08 448.42 177.48 447.91 177.81 447.36 178.06 446.81 178.21 446.19 178.31 445.57 178.31 444.91 178.21 444.28 178.06 443.66 177.81 443.11 177.48 442.56 177.08 442.05 176.61 441.61 176.1 441.24 175.55 440.98 174.94 440.76 174.32 440.62 173.7 440.58 173.7 440.58"/>
    <polygon class="cls-16" points="138.64 439.33 137.95 439.37 137.3 439.52 136.65 439.7 136.03 439.99 135.41 440.36 134.9 440.76 134.39 441.28 133.99 441.79 133.63 442.41 133.34 443.04 133.16 443.7 133.01 444.36 132.98 445.05 133.01 445.75 133.16 446.41 133.34 447.07 133.63 447.69 133.99 448.31 134.39 448.83 134.9 449.34 135.41 449.74 136.03 450.11 136.65 450.4 137.3 450.59 137.95 450.73 138.64 450.77 139.33 450.73 139.99 450.59 140.64 450.4 141.26 450.11 141.88 449.74 142.39 449.34 142.89 448.83 143.29 448.31 143.66 447.69 143.95 447.07 144.13 446.41 144.27 445.75 144.31 445.05 144.27 444.36 144.13 443.7 143.95 443.04 143.66 442.41 143.29 441.79 142.89 441.28 142.39 440.76 141.88 440.36 141.26 439.99 140.64 439.7 139.99 439.52 139.33 439.37 138.64 439.33 138.64 439.33"/>
    <polygon class="cls-16" points="138.64 436.07 137.77 436.11 136.9 436.25 136.06 436.47 135.23 436.77 134.47 437.13 133.7 437.57 133.01 438.12 132.36 438.71 131.78 439.37 131.23 440.07 130.8 440.84 130.43 441.61 130.14 442.45 129.92 443.29 129.78 444.17 129.74 445.05 129.78 445.93 129.92 446.81 130.14 447.65 130.43 448.5 130.8 449.27 131.23 450.04 131.78 450.73 132.36 451.39 133.01 451.98 133.7 452.53 134.47 452.97 135.23 453.34 136.06 453.63 136.9 453.85 137.77 454 138.64 454.03 139.52 454 140.39 453.85 141.22 453.63 142.06 453.34 142.82 452.97 143.58 452.53 144.27 451.98 144.93 451.39 145.51 450.73 146.05 450.04 146.49 449.27 146.85 448.5 147.14 447.65 147.36 446.81 147.51 445.93 147.54 445.05 147.51 444.17 147.36 443.29 147.14 442.45 146.85 441.61 146.49 440.84 146.05 440.07 145.51 439.37 144.93 438.71 144.27 438.12 143.58 437.57 142.82 437.13 142.06 436.77 141.22 436.47 140.39 436.25 139.52 436.11 138.64 436.07 138.64 436.07"/>
    <polygon class="cls-16" points="138.64 432 137.59 432.04 136.5 432.19 135.48 432.41 134.43 432.7 133.45 433.1 132.5 433.58 131.56 434.13 130.69 434.75 129.89 435.45 129.13 436.22 128.43 437.02 127.82 437.9 127.27 438.86 126.8 439.81 126.4 440.8 126.11 441.86 125.89 442.89 125.75 443.99 125.71 445.05 125.75 446.11 125.89 447.21 126.11 448.24 126.4 449.3 126.8 450.29 127.27 451.25 127.82 452.2 128.43 453.08 129.13 453.89 129.89 454.66 130.69 455.35 131.56 455.98 132.5 456.52 133.45 457 134.43 457.4 135.48 457.7 136.5 457.92 137.59 458.06 138.64 458.1 139.7 458.06 140.79 457.92 141.8 457.7 142.86 457.4 143.84 457 144.78 456.52 145.73 455.98 146.6 455.35 147.4 454.66 148.16 453.89 148.85 453.08 149.47 452.2 150.01 451.25 150.49 450.29 150.89 449.3 151.18 448.24 151.39 447.21 151.54 446.11 151.58 445.05 151.54 443.99 151.39 442.89 151.18 441.86 150.89 440.8 150.49 439.81 150.01 438.86 149.47 437.9 148.85 437.02 148.16 436.22 147.4 435.45 146.6 434.75 145.73 434.13 144.78 433.58 143.84 433.1 142.86 432.7 141.8 432.41 140.79 432.19 139.7 432.04 138.64 432 138.64 432"/>
    <line class="cls-16" x1="118.05" y1="469.87" x2="200.69" y2="469.87"/>
    <polygon class="cls-16" points="194.59 397.99 194.23 398.02 193.86 398.13 193.57 398.32 193.28 398.57 193.06 398.87 192.92 399.2 192.85 399.56 192.85 399.93 192.92 400.3 193.06 400.63 193.28 400.92 193.57 401.18 193.86 401.36 194.23 401.47 194.59 401.51 194.95 401.47 195.32 401.36 195.61 401.18 195.9 400.92 196.12 400.63 196.26 400.3 196.33 399.93 196.33 399.56 196.26 399.2 196.12 398.87 195.9 398.57 195.61 398.32 195.32 398.13 194.95 398.02 194.59 397.99 194.59 397.99"/>
    <polygon class="cls-16" points="194.59 405.13 194.23 405.17 193.86 405.28 193.57 405.46 193.28 405.72 193.06 406.01 192.92 406.34 192.85 406.71 192.85 407.08 192.92 407.44 193.06 407.77 193.28 408.07 193.57 408.32 193.86 408.51 194.23 408.62 194.59 408.65 194.95 408.62 195.32 408.51 195.61 408.32 195.9 408.07 196.12 407.77 196.26 407.44 196.33 407.08 196.33 406.71 196.26 406.34 196.12 406.01 195.9 405.72 195.61 405.46 195.32 405.28 194.95 405.17 194.59 405.13 194.59 405.13"/>
    <polygon class="cls-16" points="194.59 419.8 194.23 419.83 193.86 419.94 193.57 420.13 193.28 420.38 193.06 420.68 192.92 421.01 192.85 421.37 192.85 421.74 192.92 422.11 193.06 422.44 193.28 422.73 193.57 422.99 193.86 423.17 194.23 423.28 194.59 423.32 194.95 423.28 195.32 423.17 195.61 422.99 195.9 422.73 196.12 422.44 196.26 422.11 196.33 421.74 196.33 421.37 196.26 421.01 196.12 420.68 195.9 420.38 195.61 420.13 195.32 419.94 194.95 419.83 194.59 419.8 194.59 419.8"/>
    <polygon class="cls-16" points="194.59 412.65 194.23 412.69 193.86 412.8 193.57 412.98 193.28 413.24 193.06 413.53 192.92 413.86 192.85 414.22 192.85 414.59 192.92 414.96 193.06 415.29 193.28 415.58 193.57 415.84 193.86 416.02 194.23 416.13 194.59 416.17 194.95 416.13 195.32 416.02 195.61 415.84 195.9 415.58 196.12 415.29 196.26 414.96 196.33 414.59 196.33 414.22 196.26 413.86 196.12 413.53 195.9 413.24 195.61 412.98 195.32 412.8 194.95 412.69 194.59 412.65 194.59 412.65"/>
    <line class="cls-16" x1="189.36" y1="354.62" x2="120.48" y2="354.62"/>
    <line class="cls-16" x1="189.36" y1="467.41" x2="189.36" y2="354.62"/>
    <line class="cls-16" x1="120.48" y1="467.41" x2="189.36" y2="467.41"/>
    <line class="cls-16" x1="120.48" y1="354.62" x2="120.48" y2="467.41"/>
    <line class="cls-16" x1="118.05" y1="352.2" x2="118.05" y2="469.87"/>
    <line class="cls-16" x1="200.69" y1="352.2" x2="118.05" y2="352.2"/>
    <line class="cls-16" x1="200.69" y1="469.87" x2="200.69" y2="352.2"/>
  </g>
  <rect class="cls-18" x="484.82" y="485.1" width="125.17" height="124.32"/>
  <text class="cls-4" transform="translate(406.82 251.27)"><tspan x="0" y="0">Chậu rửa</tspan></text>
  <text class="cls-4" transform="translate(125.77 343.04)"><tspan x="0" y="0">Bếp nấu</tspan></text>
  <text class="cls-4" transform="translate(517.38 553.71)"><tspan x="0" y="0">Tủ lạnh</tspan></text>
  <circle class="cls-13" cx="430.48" cy="326.98" r="9.13"/>
  <circle class="cls-13" cx="245.11" cy="406.89" r="9.13"/>
  <circle class="cls-13" cx="552.04" cy="469.87" r="9.13"/>
  <line class="cls-20" x1="245.11" y1="406.89" x2="431.23" y2="326.98"/>
  <line class="cls-20" x1="552.04" y1="469.87" x2="430.48" y2="326.98"/>
  <line class="cls-20" x1="245.11" y1="406.89" x2="552.04" y2="469.87"/>
  <text class="cls-4" transform="translate(374.88 404.43)"><tspan class="cls-10" x="0" y="0">T</tspan><tspan x="9.66" y="0">AM GIÁC</tspan></text>
  <rect class="cls-17" x="720.29" y="166.75" width="419.93" height="441"/>
  <text class="cls-5" transform="translate(794.05 214.1)"><tspan x="0" y="0">KHUYẾN CÁO</tspan></text>
  <rect class="cls-1" x="752.82" y="193.31" width="24.39" height="24.39"/>
  <text class="cls-3" transform="translate(743.65 287.1)"><tspan x="0" y="0">Chu vi tam giác công năng = 3,6 ~ 6,6m</tspan></text>
  <text class="cls-6" transform="translate(744.7 359.39)"><tspan class="cls-1"><tspan class="cls-22" x="0" y="0">⁂</tspan><tspan class="cls-9" x="21" y="0"> </tspan><tspan class="cls-8" x="26.46" y="0">T</tspan><tspan class="cls-7" x="36.96" y="0">am giác công năng là hình tam giác </tspan></tspan><tspan class="cls-2" x="0" y="36">tạo bởi ba điểm trong gian bếp là </tspan><tspan class="cls-11" x="313.82" y="36">chậu </tspan><tspan class="cls-11" x="0" y="72">rửa </tspan><tspan class="cls-2" x="40.89" y="72">(khu rửa), </tspan><tspan class="cls-11" x="138.97" y="72">bếp nấu </tspan><tspan class="cls-2" x="225.31" y="72">(khu nấu) và </tspan><tspan class="cls-11" x="347.88" y="72">tủ </tspan><tspan class="cls-11" x="0" y="108">lạnh</tspan><tspan class="cls-2" x="43.17" y="108" xml:space="preserve"> (khu lưu trữ).</tspan></text>
  <image width="1230" height="371" transform="translate(978.2 607.75) scale(.15)" xlink:href="../ドキュメント/K/Logo Kurashi/lOGO-01.png"/>
</svg>