<?xml version="1.0" encoding="UTF-8"?>
<svg id="Layer_1" data-name="Layer 1" xmlns="http://www.w3.org/2000/svg" viewBox="0 0 1200 675">
  <defs>
    <style>
      .cls-1, .cls-2, .cls-3, .cls-4, .cls-5 {
        fill: #4d4d4d;
      }

      .cls-6, .cls-3 {
        font-size: 21px;
      }

      .cls-2, .cls-3, .cls-4, .cls-7, .cls-5, .cls-8, .cls-9 {
        font-family: ArialMT, Arial;
      }

      .cls-4 {
        font-size: 32px;
      }

      .cls-10 {
        letter-spacing: -.07em;
      }

      .cls-11 {
        fill: #006837;
      }

      .cls-11, .cls-12 {
        font-family: Arial-BoldMT, Arial;
        font-weight: 700;
      }

      .cls-13, .cls-14 {
        fill: #437355;
      }

      .cls-5 {
        font-size: 18px;
      }

      .cls-15 {
        letter-spacing: -.02em;
      }

      .cls-16, .cls-14, .cls-17, .cls-18, .cls-19, .cls-20 {
        stroke-miterlimit: 10;
      }

      .cls-16, .cls-14, .cls-18, .cls-19 {
        stroke-width: .5px;
      }

      .cls-16, .cls-17, .cls-19, .cls-20 {
        fill: none;
      }

      .cls-16, .cls-18 {
        stroke: #212830;
      }

      .cls-16, .cls-18, .cls-19 {
        stroke-linecap: square;
      }

      .cls-21 {
        fill: #999;
      }

      .cls-8 {
        letter-spacing: -.11em;
      }

      .cls-22 {
        font-family: KozGoPr6N-Regular-90ms-RKSJ-H, 'Kozuka Gothic Pr6N';
      }

      .cls-14, .cls-19 {
        stroke: #000;
      }

      .cls-17 {
        stroke: #b3b3b3;
      }

      .cls-18 {
        fill: #ccc;
      }

      .cls-9 {
        letter-spacing: -.02em;
      }

      .cls-12 {
        fill: #fff;
        font-size: 38px;
        opacity: .95;
      }

      .cls-20 {
        stroke: #333;
      }
    </style>
  </defs>
  <rect class="cls-14" y="1.26" width="1199" height="89.43"/>
  <text class="cls-12" transform="translate(311.07 60.74)"><tspan class="cls-10" x="0" y="0">T</tspan><tspan x="20.39" y="0">AM GIÁC CÔNG NĂNG TỦ BẾ</tspan><tspan class="cls-15" x="556.6" y="0">P</tspan></text>
  <rect class="cls-21" x="48.75" y="160.91" width="553.88" height="150"/>
  <rect class="cls-21" x="48.75" y="310.59" width="150" height="197.22"/>
  <g>
    <line class="cls-19" x1="520.25" y1="194.35" x2="356.28" y2="194.35"/>
    <line class="cls-19" x1="356.28" y1="284.69" x2="520.25" y2="284.69"/>
    <line class="cls-19" x1="462.61" y1="207.88" x2="429.15" y2="207.88"/>
    <polyline class="cls-19" points="429.15 207.88 428.44 207.91 427.73 208 427.05 208.11 426.33 208.32 425.68 208.55 425.03 208.85 424.4 209.2 423.81 209.61 423.25 210.05 422.74 210.52 422.24 211.05 421.79 211.61 421.41 212.2 421.05 212.82 420.75 213.47 420.52 214.11 420.31 214.79 420.19 215.5 420.1 216.2 420.07 216.91"/>
    <line class="cls-19" x1="420.04" y1="216.91" x2="420.04" y2="266.62"/>
    <polyline class="cls-19" points="420.07 266.62 420.1 267.33 420.19 268.04 420.31 268.74 420.52 269.42 420.75 270.07 421.05 270.71 421.41 271.33 421.79 271.92 422.24 272.48 422.74 273.01 423.25 273.48 423.81 273.92 424.4 274.33 425.03 274.68 425.68 274.98 426.33 275.21 427.05 275.42 427.73 275.54 428.44 275.63 429.15 275.66"/>
    <line class="cls-19" x1="429.15" y1="275.66" x2="502.05" y2="275.66"/>
    <polyline class="cls-19" points="502.05 275.66 502.77 275.63 503.48 275.54 504.16 275.42 504.87 275.21 505.53 274.98 506.18 274.68 506.8 274.33 507.4 273.92 507.96 273.48 508.46 273.01 508.97 272.48 509.41 271.92 509.8 271.33 510.16 270.71 510.45 270.07 510.69 269.42 510.9 268.74 511.02 268.04 511.11 267.33 511.14 266.62"/>
    <line class="cls-19" x1="511.14" y1="266.62" x2="511.14" y2="216.91"/>
    <polyline class="cls-19" points="511.14 216.91 511.11 216.2 511.02 215.5 510.9 214.79 510.69 214.11 510.45 213.47 510.16 212.82 509.8 212.2 509.41 211.61 508.97 211.05 508.46 210.52 507.96 210.05 507.4 209.61 506.8 209.2 506.18 208.85 505.53 208.55 504.87 208.32 504.16 208.11 503.48 208 502.77 207.91 502.05 207.88"/>
    <line class="cls-19" x1="502.05" y1="207.88" x2="468.6" y2="207.88"/>
    <line class="cls-19" x1="469.25" y1="196.9" x2="468.3" y2="217.11"/>
    <polyline class="cls-19" points="462.9 217.11 462.96 217.5 463.08 217.88 463.26 218.23 463.5 218.56 463.76 218.82 464.09 219.09 464.45 219.26 464.8 219.41 465.22 219.5 465.6 219.53 465.99 219.5 466.4 219.41 466.76 219.26 467.12 219.09 467.44 218.82 467.71 218.56 467.95 218.23 468.13 217.88 468.25 217.5 468.3 217.11"/>
    <line class="cls-19" x1="462.87" y1="217.11" x2="461.95" y2="196.9"/>
    <polyline class="cls-19" points="469.25 196.9 469.05 196.46 468.81 196.05 468.54 195.7 468.22 195.35 467.83 195.05 467.44 194.82 467 194.61 466.55 194.46 466.08 194.37 465.6 194.35 465.13 194.37 464.65 194.46 464.21 194.61 463.76 194.82 463.38 195.05 462.99 195.35 462.66 195.7 462.4 196.05 462.16 196.46 461.95 196.9"/>
    <polyline class="cls-19" points="462.87 216.38 462.58 216.76 462.34 217.2 462.16 217.64 462.04 218.11 461.98 218.59 462.01 219.06 462.07 219.56 462.22 220 462.43 220.44 462.66 220.85 462.99 221.23 463.35 221.56 463.76 221.82 464.18 222.03 464.65 222.2 465.13 222.29 465.6 222.32 466.08 222.29 466.55 222.2 467.03 222.03 467.44 221.82 467.86 221.56 468.22 221.23 468.54 220.85 468.78 220.44 468.99 220 469.14 219.56 469.19 219.06 469.22 218.59 469.17 218.11 469.05 217.64 468.87 217.2 468.63 216.76 468.33 216.38"/>
    <polyline class="cls-19" points="462.72 214.14 462.22 214.5 461.74 214.88 461.36 215.35 461 215.82 460.71 216.38 460.47 216.94 460.29 217.5 460.17 218.11 460.14 218.7 460.17 219.32 460.29 219.91 460.44 220.5 460.68 221.06 460.97 221.62 461.33 222.09 461.74 222.56 462.19 222.97 462.69 223.32 463.23 223.62 463.79 223.85 464.39 224 464.98 224.12 465.6 224.15 466.23 224.12 466.82 224 467.41 223.85 467.98 223.62 468.51 223.32 469.02 222.97 469.46 222.56 469.88 222.09 470.23 221.62 470.53 221.06 470.77 220.5 470.92 219.91 471.04 219.32 471.06 218.7 471.04 218.11 470.92 217.5 470.74 216.94 470.5 216.38 470.2 215.82 469.85 215.35 469.46 214.88 468.99 214.5 468.48 214.14"/>
    <line class="cls-19" x1="365.4" y1="266.62" x2="410.93" y2="266.62"/>
    <line class="cls-19" x1="365.4" y1="257.56" x2="410.93" y2="257.56"/>
    <line class="cls-19" x1="365.4" y1="248.53" x2="410.93" y2="248.53"/>
    <line class="cls-19" x1="365.4" y1="239.5" x2="410.93" y2="239.5"/>
    <line class="cls-19" x1="365.4" y1="230.47" x2="410.93" y2="230.47"/>
    <line class="cls-19" x1="365.4" y1="221.44" x2="410.93" y2="221.44"/>
    <line class="cls-19" x1="365.4" y1="212.41" x2="410.93" y2="212.41"/>
    <line class="cls-19" x1="356.28" y1="194.35" x2="356.28" y2="284.69"/>
    <polygon class="cls-19" points="455.57 201.55 455.54 200.99 455.42 200.43 455.24 199.91 455.01 199.38 454.71 198.91 454.35 198.46 453.94 198.08 453.46 197.76 452.96 197.49 452.42 197.26 451.89 197.14 451.33 197.05 450.73 197.05 450.17 197.14 449.63 197.26 449.1 197.49 448.6 197.76 448.12 198.08 447.71 198.46 447.35 198.91 447.05 199.38 446.81 199.91 446.64 200.43 446.52 200.99 446.49 201.55 446.52 202.11 446.64 202.67 446.81 203.2 447.05 203.73 447.35 204.2 447.71 204.64 448.12 205.02 448.6 205.35 449.1 205.61 449.63 205.85 450.17 205.97 450.73 206.05 451.33 206.05 451.89 205.97 452.42 205.85 452.96 205.61 453.46 205.35 453.94 205.02 454.35 204.64 454.71 204.2 455.01 203.73 455.24 203.2 455.42 202.67 455.54 202.11 455.57 201.55 455.57 201.55"/>
    <line class="cls-19" x1="451.03" y1="195.23" x2="451.03" y2="207.88"/>
    <line class="cls-19" x1="444.65" y1="201.55" x2="457.41" y2="201.55"/>
    <polygon class="cls-19" points="454.65 201.55 454.62 201.05 454.5 200.58 454.35 200.11 454.12 199.7 453.85 199.29 453.49 198.93 453.11 198.61 452.69 198.38 452.25 198.17 451.77 198.05 451.27 197.96 450.79 197.96 450.29 198.05 449.81 198.17 449.37 198.38 448.95 198.61 448.57 198.93 448.21 199.29 447.94 199.7 447.71 200.11 447.56 200.58 447.44 201.05 447.41 201.55 447.44 202.05 447.56 202.52 447.71 202.99 447.94 203.41 448.21 203.82 448.57 204.17 448.95 204.49 449.37 204.73 449.81 204.94 450.29 205.05 450.79 205.14 451.27 205.14 451.77 205.05 452.25 204.94 452.69 204.73 453.11 204.49 453.49 204.17 453.85 203.82 454.12 203.41 454.35 202.99 454.5 202.52 454.62 202.05 454.65 201.55 454.65 201.55"/>
    <line class="cls-19" x1="520.25" y1="284.69" x2="520.25" y2="194.35"/>
    <polygon class="cls-19" points="484.72 201.55 484.69 200.99 484.57 200.43 484.39 199.91 484.15 199.38 483.86 198.91 483.5 198.46 483.09 198.08 482.61 197.76 482.11 197.49 481.57 197.26 481.04 197.14 480.47 197.05 479.88 197.05 479.32 197.14 478.78 197.26 478.25 197.49 477.74 197.76 477.27 198.08 476.85 198.46 476.5 198.91 476.2 199.38 475.96 199.91 475.78 200.43 475.67 200.99 475.64 201.55 475.67 202.11 475.78 202.67 475.96 203.2 476.2 203.73 476.5 204.2 476.85 204.64 477.27 205.02 477.74 205.35 478.25 205.61 478.78 205.85 479.32 205.97 479.88 206.05 480.47 206.05 481.04 205.97 481.57 205.85 482.11 205.61 482.61 205.35 483.09 205.02 483.5 204.64 483.86 204.2 484.15 203.73 484.39 203.2 484.57 202.67 484.69 202.11 484.72 201.55 484.72 201.55"/>
    <line class="cls-19" x1="480.18" y1="195.23" x2="480.18" y2="207.88"/>
    <line class="cls-19" x1="486.56" y1="201.55" x2="473.8" y2="201.55"/>
    <polygon class="cls-19" points="483.8 201.55 483.77 201.05 483.65 200.58 483.5 200.11 483.26 199.7 483 199.29 482.64 198.93 482.25 198.61 481.84 198.38 481.39 198.17 480.92 198.05 480.41 197.96 479.94 197.96 479.44 198.05 478.96 198.17 478.52 198.38 478.1 198.61 477.71 198.93 477.36 199.29 477.09 199.7 476.85 200.11 476.7 200.58 476.59 201.05 476.56 201.55 476.59 202.05 476.7 202.52 476.85 202.99 477.09 203.41 477.36 203.82 477.71 204.17 478.1 204.49 478.52 204.73 478.96 204.94 479.44 205.05 479.94 205.14 480.41 205.14 480.92 205.05 481.39 204.94 481.84 204.73 482.25 204.49 482.64 204.17 483 203.82 483.26 203.41 483.5 202.99 483.65 202.52 483.77 202.05 483.8 201.55 483.8 201.55"/>
  </g>
  <g>
    <line class="cls-16" x1="126.09" y1="418.62" x2="126.09" y2="426.79"/>
    <line class="cls-16" x1="142.91" y1="409.93" x2="134.81" y2="409.93"/>
    <line class="cls-16" x1="126.09" y1="392.89" x2="126.09" y2="401.06"/>
    <line class="cls-16" x1="117.99" y1="409.93" x2="109.89" y2="409.93"/>
    <line class="cls-16" x1="108.77" y1="357.18" x2="108.77" y2="365.39"/>
    <line class="cls-16" x1="108.77" y1="381.49" x2="108.77" y2="389.66"/>
    <line class="cls-16" x1="125.29" y1="373.42" x2="117.16" y2="373.42"/>
    <line class="cls-16" x1="100.77" y1="373.42" x2="92.67" y2="373.42"/>
    <line class="cls-16" x1="108.77" y1="452.34" x2="108.77" y2="460.51"/>
    <line class="cls-16" x1="108.77" y1="428.07" x2="108.77" y2="436.25"/>
    <line class="cls-16" x1="125.29" y1="444.28" x2="117.16" y2="444.28"/>
    <line class="cls-16" x1="100.77" y1="444.28" x2="92.67" y2="444.28"/>
    <line class="cls-16" x1="142.41" y1="378.99" x2="142.41" y2="387.17"/>
    <line class="cls-16" x1="136.88" y1="373.5" x2="128.75" y2="373.5"/>
    <line class="cls-16" x1="155.7" y1="373.42" x2="147.56" y2="373.42"/>
    <line class="cls-16" x1="142.41" y1="360.12" x2="142.41" y2="368.29"/>
    <line class="cls-16" x1="144.33" y1="430.9" x2="144.33" y2="439.07"/>
    <line class="cls-16" x1="144.33" y1="449.77" x2="144.33" y2="457.95"/>
    <line class="cls-16" x1="157.59" y1="444.2" x2="149.49" y2="444.2"/>
    <line class="cls-16" x1="138.77" y1="444.31" x2="130.67" y2="444.31"/>
    <polygon class="cls-16" points="126.68 395.12 125.55 395.16 124.46 395.31 123.37 395.52 122.28 395.82 121.23 396.18 120.21 396.66 119.23 397.17 118.28 397.8 117.41 398.49 116.58 399.23 115.81 400.03 115.09 400.91 114.43 401.83 113.89 402.78 113.38 403.81 112.98 404.84 112.62 405.94 112.36 407.03 112.22 408.13 112.11 409.27 112.11 410.37 112.22 411.51 112.36 412.61 112.62 413.71 112.98 414.81 113.38 415.83 113.89 416.86 114.43 417.81 115.09 418.73 115.81 419.61 116.58 420.41 117.41 421.15 118.28 421.84 119.23 422.47 120.21 422.98 121.23 423.46 122.28 423.82 123.37 424.12 124.46 424.34 125.55 424.48 126.68 424.52 127.8 424.48 128.89 424.34 129.98 424.12 131.07 423.82 132.12 423.46 133.14 422.98 134.12 422.47 135.07 421.84 135.94 421.15 136.77 420.41 137.54 419.61 138.26 418.73 138.92 417.81 139.46 416.86 139.97 415.83 140.37 414.81 140.73 413.71 140.99 412.61 141.13 411.51 141.24 410.37 141.24 409.27 141.13 408.13 140.99 407.03 140.73 405.94 140.37 404.84 139.97 403.81 139.46 402.78 138.92 401.83 138.26 400.91 137.54 400.03 136.77 399.23 135.94 398.49 135.07 397.8 134.12 397.17 133.14 396.66 132.12 396.18 131.07 395.82 129.98 395.52 128.89 395.31 127.8 395.16 126.68 395.12 126.68 395.12"/>
    <polygon class="cls-16" points="126.68 400.03 125.77 400.07 124.82 400.22 123.95 400.44 123.08 400.73 122.24 401.13 121.44 401.57 120.68 402.12 119.99 402.75 119.34 403.41 118.79 404.14 118.28 404.91 117.85 405.75 117.52 406.63 117.27 407.51 117.08 408.43 116.98 409.34 116.98 410.3 117.08 411.21 117.27 412.13 117.52 413.01 117.85 413.89 118.28 414.7 118.79 415.5 119.34 416.24 119.99 416.9 120.68 417.52 121.44 418.07 122.24 418.51 123.08 418.91 123.95 419.2 124.82 419.42 125.77 419.57 126.68 419.61 127.58 419.57 128.53 419.42 129.4 419.2 130.27 418.91 131.11 418.51 131.91 418.07 132.67 417.52 133.36 416.9 134.01 416.24 134.56 415.5 135.07 414.7 135.5 413.89 135.83 413.01 136.08 412.13 136.27 411.21 136.37 410.3 136.37 409.34 136.27 408.43 136.08 407.51 135.83 406.63 135.5 405.75 135.07 404.91 134.56 404.14 134.01 403.41 133.36 402.75 132.67 402.12 131.91 401.57 131.11 401.13 130.27 400.73 129.4 400.44 128.53 400.22 127.58 400.07 126.68 400.03 126.68 400.03"/>
    <polygon class="cls-16" points="126.68 403.3 125.91 403.33 125.19 403.48 124.46 403.7 123.77 403.99 123.11 404.36 122.53 404.84 121.99 405.35 121.48 405.94 121.08 406.56 120.75 407.22 120.46 407.95 120.32 408.68 120.21 409.45 120.21 410.19 120.32 410.96 120.46 411.69 120.75 412.42 121.08 413.08 121.48 413.71 121.99 414.29 122.53 414.81 123.11 415.28 123.77 415.65 124.46 415.94 125.19 416.16 125.91 416.31 126.68 416.35 127.44 416.31 128.16 416.16 128.89 415.94 129.58 415.65 130.24 415.28 130.82 414.81 131.36 414.29 131.87 413.71 132.27 413.08 132.6 412.42 132.89 411.69 133.03 410.96 133.14 410.19 133.14 409.45 133.03 408.68 132.89 407.95 132.6 407.22 132.27 406.56 131.87 405.94 131.36 405.35 130.82 404.84 130.24 404.36 129.58 403.99 128.89 403.7 128.16 403.48 127.44 403.33 126.68 403.3 126.68 403.3"/>
    <polygon class="cls-16" points="142.22 368.99 141.61 369.02 140.99 369.17 140.37 369.39 139.83 369.65 139.32 370.01 138.85 370.45 138.45 370.97 138.12 371.52 137.86 372.07 137.72 372.69 137.61 373.31 137.61 373.97 137.72 374.59 137.86 375.22 138.12 375.77 138.45 376.32 138.85 376.83 139.32 377.27 139.83 377.64 140.37 377.89 140.99 378.11 141.61 378.26 142.22 378.3 142.84 378.26 143.46 378.11 144.08 377.89 144.62 377.64 145.13 377.27 145.6 376.83 146 376.32 146.33 375.77 146.58 375.22 146.73 374.59 146.84 373.97 146.84 373.31 146.73 372.69 146.58 372.07 146.33 371.52 146 370.97 145.6 370.45 145.13 370.01 144.62 369.65 144.08 369.39 143.46 369.17 142.84 369.02 142.22 368.99 142.22 368.99"/>
    <polygon class="cls-16" points="142.22 371.44 141.79 371.48 141.39 371.63 141.02 371.81 140.7 372.1 140.41 372.43 140.23 372.8 140.08 373.2 140.04 373.64 140.08 374.08 140.23 374.48 140.41 374.85 140.7 375.18 141.02 375.47 141.39 375.66 141.79 375.8 142.22 375.84 142.66 375.8 143.06 375.66 143.42 375.47 143.75 375.18 144.04 374.85 144.22 374.48 144.37 374.08 144.4 373.64 144.37 373.2 144.22 372.8 144.04 372.43 143.75 372.1 143.42 371.81 143.06 371.63 142.66 371.48 142.22 371.44 142.22 371.44"/>
    <polygon class="cls-16" points="142.22 363.85 141.32 363.89 140.37 364.04 139.5 364.26 138.63 364.55 137.79 364.95 136.99 365.39 136.23 365.94 135.54 366.57 134.89 367.23 134.34 367.96 133.83 368.73 133.4 369.57 133.07 370.45 132.81 371.33 132.63 372.25 132.52 373.17 132.52 374.12 132.63 375.03 132.81 375.95 133.07 376.83 133.4 377.71 133.83 378.52 134.34 379.32 134.89 380.06 135.54 380.72 136.23 381.34 136.99 381.89 137.79 382.33 138.63 382.73 139.5 383.03 140.37 383.25 141.32 383.39 142.22 383.43 143.13 383.39 144.08 383.25 144.95 383.03 145.82 382.73 146.66 382.33 147.45 381.89 148.22 381.34 148.91 380.72 149.56 380.06 150.11 379.32 150.62 378.52 151.05 377.71 151.38 376.83 151.63 375.95 151.81 375.03 151.92 374.12 151.92 373.17 151.81 372.25 151.63 371.33 151.38 370.45 151.05 369.57 150.62 368.73 150.11 367.96 149.56 367.23 148.91 366.57 148.22 365.94 147.45 365.39 146.66 364.95 145.82 364.55 144.95 364.26 144.08 364.04 143.13 363.89 142.22 363.85 142.22 363.85"/>
    <polygon class="cls-16" points="109.09 366.05 108.29 366.09 107.53 366.24 106.77 366.42 106.04 366.71 105.35 367.12 104.7 367.56 104.08 368.07 103.57 368.66 103.06 369.28 102.66 369.94 102.33 370.67 102.08 371.41 101.94 372.21 101.83 372.98 101.83 373.79 101.94 374.56 102.08 375.36 102.33 376.1 102.66 376.83 103.06 377.49 103.57 378.11 104.08 378.7 104.7 379.21 105.35 379.65 106.04 380.06 106.77 380.35 107.53 380.53 108.29 380.68 109.09 380.72 109.89 380.68 110.65 380.53 111.42 380.35 112.14 380.06 112.83 379.65 113.49 379.21 114.11 378.7 114.61 378.11 115.12 377.49 115.52 376.83 115.85 376.1 116.1 375.36 116.25 374.56 116.36 373.79 116.36 372.98 116.25 372.21 116.1 371.41 115.85 370.67 115.52 369.94 115.12 369.28 114.61 368.66 114.11 368.07 113.49 367.56 112.83 367.12 112.14 366.71 111.42 366.42 110.65 366.24 109.89 366.09 109.09 366.05 109.09 366.05"/>
    <polygon class="cls-16" points="109.09 369.32 108.51 369.35 107.97 369.46 107.42 369.68 106.91 369.98 106.44 370.31 106.04 370.71 105.71 371.19 105.42 371.7 105.2 372.25 105.1 372.8 105.06 373.39 105.1 373.97 105.2 374.52 105.42 375.07 105.71 375.58 106.04 376.06 106.44 376.46 106.91 376.79 107.42 377.09 107.97 377.31 108.51 377.42 109.09 377.45 109.67 377.42 110.22 377.31 110.76 377.09 111.27 376.79 111.74 376.46 112.14 376.06 112.47 375.58 112.76 375.07 112.98 374.52 113.09 373.97 113.12 373.39 113.09 372.8 112.98 372.25 112.76 371.7 112.47 371.19 112.14 370.71 111.74 370.31 111.27 369.98 110.76 369.68 110.22 369.46 109.67 369.35 109.09 369.32 109.09 369.32"/>
    <polygon class="cls-16" points="109.09 360.34 108.04 360.37 106.95 360.52 105.93 360.74 104.88 361.03 103.9 361.44 102.95 361.91 102.01 362.46 101.14 363.08 100.34 363.78 99.57 364.55 98.88 365.36 98.27 366.24 97.72 367.19 97.25 368.14 96.85 369.13 96.56 370.2 96.34 371.22 96.2 372.32 96.16 373.39 96.2 374.45 96.34 375.55 96.56 376.57 96.85 377.64 97.25 378.63 97.72 379.58 98.27 380.53 98.88 381.41 99.57 382.22 100.34 382.99 101.14 383.69 102.01 384.31 102.95 384.86 103.9 385.33 104.88 385.74 105.93 386.03 106.95 386.25 108.04 386.4 109.09 386.43 110.15 386.4 111.24 386.25 112.25 386.03 113.31 385.74 114.29 385.33 115.23 384.86 116.18 384.31 117.05 383.69 117.85 382.99 118.61 382.22 119.3 381.41 119.92 380.53 120.46 379.58 120.94 378.63 121.33 377.64 121.63 376.57 121.84 375.55 121.99 374.45 122.03 373.39 121.99 372.32 121.84 371.22 121.63 370.2 121.33 369.13 120.94 368.14 120.46 367.19 119.92 366.24 119.3 365.36 118.61 364.55 117.85 363.78 117.05 363.08 116.18 362.46 115.23 361.91 114.29 361.44 113.31 361.03 112.25 360.74 111.24 360.52 110.15 360.37 109.09 360.34 109.09 360.34"/>
    <polygon class="cls-16" points="144.15 434.64 143.24 434.67 142.3 434.82 141.42 435.04 140.55 435.33 139.72 435.74 138.92 436.18 138.15 436.73 137.46 437.35 136.81 438.01 136.27 438.74 135.76 439.51 135.32 440.35 134.99 441.23 134.74 442.11 134.56 443.03 134.45 443.95 134.45 444.9 134.56 445.82 134.74 446.73 134.99 447.61 135.32 448.49 135.76 449.3 136.27 450.1 136.81 450.84 137.46 451.5 138.15 452.12 138.92 452.67 139.72 453.11 140.55 453.51 141.42 453.81 142.3 454.03 143.24 454.17 144.15 454.21 145.06 454.17 146 454.03 146.87 453.81 147.75 453.51 148.58 453.11 149.38 452.67 150.14 452.12 150.83 451.5 151.49 450.84 152.03 450.1 152.54 449.3 152.98 448.49 153.3 447.61 153.56 446.73 153.74 445.82 153.85 444.9 153.85 443.95 153.74 443.03 153.56 442.11 153.3 441.23 152.98 440.35 152.54 439.51 152.03 438.74 151.49 438.01 150.83 437.35 150.14 436.73 149.38 436.18 148.58 435.74 147.75 435.33 146.87 435.04 146 434.82 145.06 434.67 144.15 434.64 144.15 434.64"/>
    <polygon class="cls-16" points="144.15 442.22 143.71 442.26 143.31 442.41 142.95 442.59 142.62 442.88 142.33 443.21 142.15 443.58 142.01 443.98 141.97 444.42 142.01 444.86 142.15 445.27 142.33 445.63 142.62 445.96 142.95 446.26 143.31 446.44 143.71 446.59 144.15 446.62 144.58 446.59 144.98 446.44 145.35 446.26 145.67 445.96 145.97 445.63 146.15 445.27 146.29 444.86 146.33 444.42 146.29 443.98 146.15 443.58 145.97 443.21 145.67 442.88 145.35 442.59 144.98 442.41 144.58 442.26 144.15 442.22 144.15 442.22"/>
    <polygon class="cls-16" points="144.15 439.77 143.53 439.8 142.91 439.95 142.3 440.17 141.75 440.43 141.24 440.79 140.77 441.23 140.37 441.75 140.04 442.3 139.79 442.85 139.64 443.47 139.54 444.09 139.54 444.75 139.64 445.38 139.79 446 140.04 446.55 140.37 447.1 140.77 447.61 141.24 448.05 141.75 448.42 142.3 448.68 142.91 448.9 143.53 449.04 144.15 449.08 144.77 449.04 145.38 448.9 146 448.68 146.55 448.42 147.06 448.05 147.53 447.61 147.93 447.1 148.25 446.55 148.51 446 148.65 445.38 148.76 444.75 148.76 444.09 148.65 443.47 148.51 442.85 148.25 442.3 147.93 441.75 147.53 441.23 147.06 440.79 146.55 440.43 146 440.17 145.38 439.95 144.77 439.8 144.15 439.77 144.15 439.77"/>
    <polygon class="cls-16" points="109.09 438.52 108.4 438.56 107.75 438.7 107.09 438.89 106.48 439.18 105.86 439.55 105.35 439.95 104.84 440.46 104.44 440.98 104.08 441.6 103.79 442.22 103.61 442.88 103.46 443.54 103.42 444.24 103.46 444.94 103.61 445.6 103.79 446.26 104.08 446.88 104.44 447.5 104.84 448.02 105.35 448.53 105.86 448.93 106.48 449.3 107.09 449.59 107.75 449.77 108.4 449.92 109.09 449.96 109.78 449.92 110.44 449.77 111.09 449.59 111.71 449.3 112.33 448.93 112.83 448.53 113.34 448.02 113.74 447.5 114.11 446.88 114.4 446.26 114.58 445.6 114.72 444.94 114.76 444.24 114.72 443.54 114.58 442.88 114.4 442.22 114.11 441.6 113.74 440.98 113.34 440.46 112.83 439.95 112.33 439.55 111.71 439.18 111.09 438.89 110.44 438.7 109.78 438.56 109.09 438.52 109.09 438.52"/>
    <polygon class="cls-16" points="109.09 435.26 108.22 435.3 107.35 435.44 106.51 435.66 105.68 435.96 104.91 436.32 104.15 436.76 103.46 437.31 102.81 437.9 102.23 438.56 101.68 439.25 101.25 440.02 100.88 440.79 100.59 441.64 100.37 442.48 100.23 443.36 100.19 444.24 100.23 445.12 100.37 446 100.59 446.84 100.88 447.69 101.25 448.46 101.68 449.23 102.23 449.92 102.81 450.58 103.46 451.17 104.15 451.72 104.91 452.16 105.68 452.52 106.51 452.82 107.35 453.04 108.22 453.18 109.09 453.22 109.96 453.18 110.84 453.04 111.67 452.82 112.51 452.52 113.27 452.16 114.03 451.72 114.72 451.17 115.38 450.58 115.96 449.92 116.5 449.23 116.94 448.46 117.3 447.69 117.59 446.84 117.81 446 117.96 445.12 117.99 444.24 117.96 443.36 117.81 442.48 117.59 441.64 117.3 440.79 116.94 440.02 116.5 439.25 115.96 438.56 115.38 437.9 114.72 437.31 114.03 436.76 113.27 436.32 112.51 435.96 111.67 435.66 110.84 435.44 109.96 435.3 109.09 435.26 109.09 435.26"/>
    <polygon class="cls-16" points="109.09 431.19 108.04 431.23 106.95 431.37 105.93 431.59 104.88 431.89 103.9 432.29 102.95 432.77 102.01 433.32 101.14 433.94 100.34 434.64 99.57 435.41 98.88 436.21 98.27 437.09 97.72 438.05 97.25 439 96.85 439.99 96.56 441.05 96.34 442.08 96.2 443.18 96.16 444.24 96.2 445.3 96.34 446.4 96.56 447.43 96.85 448.49 97.25 449.48 97.72 450.43 98.27 451.39 98.88 452.27 99.57 453.07 100.34 453.84 101.14 454.54 102.01 455.16 102.95 455.71 103.9 456.19 104.88 456.59 105.93 456.89 106.95 457.11 108.04 457.25 109.09 457.29 110.15 457.25 111.24 457.11 112.25 456.89 113.31 456.59 114.29 456.19 115.23 455.71 116.18 455.16 117.05 454.54 117.85 453.84 118.61 453.07 119.3 452.27 119.92 451.39 120.46 450.43 120.94 449.48 121.33 448.49 121.63 447.43 121.84 446.4 121.99 445.3 122.03 444.24 121.99 443.18 121.84 442.08 121.63 441.05 121.33 439.99 120.94 439 120.46 438.05 119.92 437.09 119.3 436.21 118.61 435.41 117.85 434.64 117.05 433.94 116.18 433.32 115.23 432.77 114.29 432.29 113.31 431.89 112.25 431.59 111.24 431.37 110.15 431.23 109.09 431.19 109.09 431.19"/>
    <line class="cls-16" x1="88.49" y1="469.06" x2="171.14" y2="469.06"/>
    <polygon class="cls-16" points="165.04 397.17 164.67 397.21 164.31 397.32 164.02 397.5 163.73 397.76 163.51 398.05 163.37 398.38 163.29 398.75 163.29 399.12 163.37 399.48 163.51 399.81 163.73 400.11 164.02 400.36 164.31 400.55 164.67 400.66 165.04 400.69 165.4 400.66 165.76 400.55 166.06 400.36 166.35 400.11 166.56 399.81 166.71 399.48 166.78 399.12 166.78 398.75 166.71 398.38 166.56 398.05 166.35 397.76 166.06 397.5 165.76 397.32 165.4 397.21 165.04 397.17 165.04 397.17"/>
    <polygon class="cls-16" points="165.04 404.32 164.67 404.36 164.31 404.47 164.02 404.65 163.73 404.91 163.51 405.2 163.37 405.53 163.29 405.9 163.29 406.26 163.37 406.63 163.51 406.96 163.73 407.25 164.02 407.51 164.31 407.69 164.67 407.8 165.04 407.84 165.4 407.8 165.76 407.69 166.06 407.51 166.35 407.25 166.56 406.96 166.71 406.63 166.78 406.26 166.78 405.9 166.71 405.53 166.56 405.2 166.35 404.91 166.06 404.65 165.76 404.47 165.4 404.36 165.04 404.32 165.04 404.32"/>
    <polygon class="cls-16" points="165.04 418.98 164.67 419.02 164.31 419.13 164.02 419.31 163.73 419.57 163.51 419.86 163.37 420.19 163.29 420.56 163.29 420.93 163.37 421.29 163.51 421.62 163.73 421.92 164.02 422.17 164.31 422.36 164.67 422.47 165.04 422.5 165.4 422.47 165.76 422.36 166.06 422.17 166.35 421.92 166.56 421.62 166.71 421.29 166.78 420.93 166.78 420.56 166.71 420.19 166.56 419.86 166.35 419.57 166.06 419.31 165.76 419.13 165.4 419.02 165.04 418.98 165.04 418.98"/>
    <polygon class="cls-16" points="165.04 411.84 164.67 411.87 164.31 411.98 164.02 412.17 163.73 412.42 163.51 412.72 163.37 413.05 163.29 413.41 163.29 413.78 163.37 414.15 163.51 414.48 163.73 414.77 164.02 415.03 164.31 415.21 164.67 415.32 165.04 415.36 165.4 415.32 165.76 415.21 166.06 415.03 166.35 414.77 166.56 414.48 166.71 414.15 166.78 413.78 166.78 413.41 166.71 413.05 166.56 412.72 166.35 412.42 166.06 412.17 165.76 411.98 165.4 411.87 165.04 411.84 165.04 411.84"/>
    <line class="cls-16" x1="159.81" y1="353.81" x2="90.93" y2="353.81"/>
    <line class="cls-16" x1="159.81" y1="466.6" x2="159.81" y2="353.81"/>
    <line class="cls-16" x1="90.93" y1="466.6" x2="159.81" y2="466.6"/>
    <line class="cls-16" x1="90.93" y1="353.81" x2="90.93" y2="466.6"/>
    <line class="cls-16" x1="88.49" y1="351.39" x2="88.49" y2="469.06"/>
    <line class="cls-16" x1="171.14" y1="351.39" x2="88.49" y2="351.39"/>
    <line class="cls-16" x1="171.14" y1="469.06" x2="171.14" y2="351.39"/>
  </g>
  <rect class="cls-18" x="455.27" y="484.29" width="194.98" height="124.32"/>
  <text class="cls-5" transform="translate(426.86 248.23)"><tspan x="0" y="0">Chậu rửa</tspan></text>
  <text class="cls-5" transform="translate(96.22 342.23)"><tspan x="0" y="0">Bếp nấu</tspan></text>
  <text class="cls-5" transform="translate(521.62 555.9)"><tspan x="0" y="0">Tủ lạnh</tspan></text>
  <circle class="cls-13" cx="444.65" cy="330.19" r="9.13"/>
  <circle class="cls-13" cx="215.56" cy="406.08" r="9.13"/>
  <circle class="cls-13" cx="551.56" cy="469.06" r="9.13"/>
  <line class="cls-20" x1="215.56" y1="406.08" x2="444.65" y2="330.19"/>
  <line class="cls-20" x1="551.56" y1="469.06" x2="444.65" y2="330.19"/>
  <line class="cls-20" x1="215.56" y1="406.08" x2="551.56" y2="469.06"/>
  <text class="cls-5" transform="translate(368.09 403.4)"><tspan class="cls-10" x="0" y="0">T</tspan><tspan x="9.66" y="0">AM GIÁC</tspan></text>
  <rect class="cls-17" x="749.39" y="168.21" width="419.93" height="441"/>
  <text class="cls-4" transform="translate(828 218.43)"><tspan x="0" y="0">Khuyến cáo</tspan></text>
  <rect class="cls-1" x="781.92" y="194.78" width="24.39" height="24.39"/>
  <text class="cls-3" transform="translate(772.75 288.57)"><tspan x="0" y="0">Chu vi tam giác công năng = 3,6 ~ 6,6m</tspan></text>
  <text class="cls-6" transform="translate(773.8 378.94)"><tspan class="cls-1"><tspan class="cls-22" x="0" y="0">⁂</tspan><tspan class="cls-9" x="21" y="0"> </tspan><tspan class="cls-8" x="26.46" y="0">T</tspan><tspan class="cls-7" x="36.96" y="0">am giác công năng là hình tam giác </tspan></tspan><tspan class="cls-2" x="0" y="36">tạo bởi ba điểm trong gian bếp là </tspan><tspan class="cls-11" x="313.82" y="36">chậu </tspan><tspan class="cls-11" x="0" y="72">rửa</tspan><tspan class="cls-2" x="35.06" y="72">, </tspan><tspan class="cls-11" x="46.73" y="72">bếp nấu</tspan><tspan class="cls-2" x="127.23" y="72" xml:space="preserve"> và </tspan><tspan class="cls-11" x="161.08" y="72">tủ lạnh</tspan><tspan class="cls-2" x="229.91" y="72">.</tspan></text>
</svg>